{
copyright = "Copyright (c) 2010 - 2012, Matt McInerney (matt@pixelspread.com), Pablo Impallari (impallari@gmail.com), Rodrigo Fuenzalida (hello@rfuenzalida.com) with Reserved Font Name \"Raleway\"";
customParameters = (
{
name = description;
value = "Raleway is an elegant sans-serif typeface family. Initially designed by Matt McInerney as a single thin weight, it was expanded into a 9 weight family by Pablo Impallari and Rodrigo Fuenzalida in 2012 and iKerned by Igino Marini. It is a display face and the download features both old style and lining numerals, standard and discretionary ligatures, a pretty complete set of diacritics, as well as a stylistic alternate inspired by more geometric sans-serif typefaces than its neo-grotesque inspired default character set.";
},
{
name = license;
value = "This Font Software is licensed under the SIL Open Font License, Version 1.1. This license is available with a FAQ at: http://scripts.sil.org/OFL";
},
{
name = licenseURL;
value = "http://scripts.sil.org/OFL";
},
{
name = glyphOrder;
value = (
    ".notdef",
    A,
    "A.sc",
    AE,
    AEacute,
    acute,
    Aacute,
    Abreve,
    breve,
    Acircumflex,
    circumflex,
    Adieresis,
    dieresis,
    Agrave,
    grave,
    Amacron,
    macron,
    Aogonek,
    ogonek,
    Aring,
    ring,
    Aringacute,
    Atilde,
    tilde,
    B,
    "B.sc",
    C,
    "C.sc",
    uni000D,
    Cacute,
    Ccaron,
    caron,
    Ccedilla,
    cedilla,
    Ccircumflex,
    Cdotaccent,
    dotaccent,
    D,
    "D.sc",
    Dcaron,
    Dcroat,
    E,
    "E.sc",
    Eacute,
    Ebreve,
    Ecaron,
    Ecircumflex,
    Edieresis,
    Edotaccent,
    Egrave,
    Emacron,
    Eng,
    Eogonek,
    Eth,
    Etilde,
    Euro,
    F,
    "F.sc",
    G,
    "G.alt",
    "G.sc",
    Gbreve,
    Gcircumflex,
    Gcommaaccent,
    commaaccent,
    Gdotaccent,
    H,
    "H.sc",
    Hbar,
    Hcircumflex,
    I,
    "I.sc",
    IJ,
    J,
    Iacute,
    Ibreve,
    Icircumflex,
    Idieresis,

glyphs = (
{
glyphname = A;
layers = (
{
layerId = "DC6C2CDD-F679-463F-ABCE-FDFA3FC576E2";
name = "Regular Italic";
paths = (
{
closed = 1;
nodes = (
"386 710 LINE",
"446 710 LINE",
"574 0 LINE",
"500 0 LINE",
"461 222 LINE",
"162 222 LINE",
"30 0 LINE",
"-45 0 LINE"
);
},
{
closed = 1;
nodes = (
"457 277 LINE",
"399 628 LINE",
"188 277 LINE"
);
}
);
width = 651;
}
);
leftKerningGroup = A;
note = A;
rightKerningGroup = A;
unicode = 0041;
},
{
glyphname = A.sc;
layers = (
{
layerId = "DC6C2CDD-F679-463F-ABCE-FDFA3FC576E2";
name = "Regular Italic";
paths = (
{
closed = 1;
nodes = (
"312 548 LINE",
"364 548 LINE",
"483 0 LINE",
"417 0 LINE",
"381 165 LINE",
"132 165 LINE",
"26 0 LINE",
"-41 0 LINE"
);
},
{
closed = 1;
nodes = (
"377 220 LINE",
"321 470 LINE",
"159 220 LINE"
);
}
);
width = 564;
}
);
leftKerningGroup = A.sc;
note = A.sc;
rightKerningGroup = A.sc;
},
{
glyphname = AE;
layers = (
{
layerId = "DC6C2CDD-F679-463F-ABCE-FDFA3FC576E2";
name = "Regular Italic";
paths = (
{
closed = 1;
nodes = (
"503 710 LINE",
"962 710 LINE",
"948 648 LINE",
"577 648 LINE",
"524 393 LINE",
"843 393 LINE",
"829 331 LINE",
"510 331 LINE",
"453 62 LINE",
"832 62 LINE",
"819 0 LINE",
"371 0 LINE",
"418 222 LINE",
"174 222 LINE",
"-5 0 LINE",
"-81 0 LINE"
);
},
{
closed = 1;
nodes = (
"427 284 LINE",
"500 626 LINE",
"219 284 LINE"
);
}
);
width = 923;
}
);
leftKerningGroup = AE;
note = AE;
rightKerningGroup = AE;
unicode = 00C6;
},
{
glyphname = AEacute;
layers = (
{
layerId = "DC6C2CDD-F679-463F-ABCE-FDFA3FC576E2";
name = "Regular Italic";
paths = (
{
closed = 1;
nodes = (
"573 807 LINE",
"531 824 LINE",
"607 917 LINE",
"678 917 LINE"
);
},
{
closed = 1;
nodes = (
"503 710 LINE",
"962 710 LINE",
"948 648 LINE",
"577 648 LINE",
"524 393 LINE",
"843 393 LINE",
"829 331 LINE",
"510 331 LINE",
"453 62 LINE",
"832 62 LINE",
"819 0 LINE",
"371 0 LINE",
"418 222 LINE",
"174 222 LINE",
"-5 0 LINE",
"-81 0 LINE"
);
},
{
closed = 1;
nodes = (
"427 284 LINE",
"500 626 LINE",
"219 284 LINE"
);
}
);
width = 923;
}
);
leftKerningGroup = AE;
note = AEacute;
rightKerningGroup = AE;
unicode = 01FC;
},
{
glyphname = acute;
layers = (
{
layerId = "DC6C2CDD-F679-463F-ABCE-FDFA3FC576E2";
name = "Regular Italic";
paths = (
{
closed = 1;
nodes = (
"74 620 LINE",
"32 637 LINE",
"108 730 LINE",
"179 730 LINE"
);
}
);
width = 212;
}
);
note = acute;
rightKerningGroup = acute;
unicode = 00B4;
},
{
glyphname = Aacute;
layers = (
{
layerId = "DC6C2CDD-F679-463F-ABCE-FDFA3FC576E2";
name = "Regular Italic";
paths = (
{
closed = 1;
nodes = (
"386 710 LINE",
"446 710 LINE",
"574 0 LINE",
"500 0 LINE",
"461 222 LINE",
"162 222 LINE",
"30 0 LINE",
"-45 0 LINE"
);
},
{
closed = 1;
nodes = (
"457 277 LINE",
"399 628 LINE",
"188 277 LINE"
);
},
{
closed = 1;
nodes = (
"431 807 LINE",
"389 824 LINE",
"465 917 LINE",
"536 917 LINE"
);
}
);
width = 651;
}
);
leftKerningGroup = A;
note = Aacute;
rightKerningGroup = A;
unicode = 00C1;
},
{
glyphname = Abreve;
layers = (
{
layerId = "DC6C2CDD-F679-463F-ABCE-FDFA3FC576E2";
name = "Regular Italic";
paths = (
{
closed = 1;
nodes = (
"386 710 LINE",
"446 710 LINE",
"574 0 LINE",
"500 0 LINE",
"461 222 LINE",
"162 222 LINE",
"30 0 LINE",
"-45 0 LINE"
);
},
{
closed = 1;
nodes = (
"457 277 LINE",
"399 628 LINE",
"188 277 LINE"
);
},
{
closed = 1;
nodes = (
"465 851 OFFCURVE",
"495 880 OFFCURVE",
"507 917 CURVE",
"547 917 LINE",
"540 889 OFFCURVE",
"525 864 OFFCURVE",
"505 846 CURVE SMOOTH",
"484 828 OFFCURVE",
"458 816 OFFCURVE",
"431 816 CURVE SMOOTH",
"384 816 OFFCURVE",
"354 849 OFFCURVE",
"354 894 CURVE SMOOTH",
"354 901 OFFCURVE",
"355 909 OFFCURVE",
"357 917 CURVE",
"399 917 LINE",
"398 910 OFFCURVE",
"397 905 OFFCURVE",
"397 902 CURVE SMOOTH",
"397 874 OFFCURVE",
"414 851 OFFCURVE",
"438 851 CURVE SMOOTH"
);
}
);
width = 651;
}
);
leftKerningGroup = A;
note = Abreve;
rightKerningGroup = A;
unicode = 0102;
},
{
glyphname = breve;
layers = (
{
layerId = "DC6C2CDD-F679-463F-ABCE-FDFA3FC576E2";
name = "Regular Italic";
paths = (
{
closed = 1;
nodes = (
"170 664 OFFCURVE",
"200 693 OFFCURVE",
"212 730 CURVE",
"252 730 LINE",
"245 702 OFFCURVE",
"230 677 OFFCURVE",
"210 659 CURVE SMOOTH",
"189 641 OFFCURVE",
"163 629 OFFCURVE",
"136 629 CURVE SMOOTH",
"89 629 OFFCURVE",
"59 662 OFFCURVE",
"59 707 CURVE SMOOTH",
"59 714 OFFCURVE",
"60 722 OFFCURVE",
"62 730 CURVE",
"104 730 LINE",
"103 723 OFFCURVE",
"102 718 OFFCURVE",
"102 715 CURVE SMOOTH",
"102 687 OFFCURVE",
"119 664 OFFCURVE",
"143 664 CURVE SMOOTH"
);
}
);
width = 270;
}
);
note = breve;
rightKerningGroup = acute;
unicode = 02D8;
},
{
glyphname = Acircumflex;
layers = (
{
layerId = "DC6C2CDD-F679-463F-ABCE-FDFA3FC576E2";
name = "Regular Italic";
paths = (
{
closed = 1;
nodes = (
"386 710 LINE",
"446 710 LINE",
"574 0 LINE",
"500 0 LINE",
"461 222 LINE",
"162 222 LINE",
"30 0 LINE",
"-45 0 LINE"
);
},
{
closed = 1;
nodes = (
"457 277 LINE",
"399 628 LINE",
"188 277 LINE"
);
},
{
closed = 1;
nodes = (
"322 832 LINE",
"435 917 LINE",
"485 917 LINE",
"560 832 LINE",
"518 811 LINE",
"450 874 LINE",
"356 811 LINE"
);
}
);
width = 651;
}
);
leftKerningGroup = A;
note = Acircumflex;
rightKerningGroup = A;
unicode = 00C2;
},
{
glyphname = circumflex;
layers = (
{
layerId = "DC6C2CDD-F679-463F-ABCE-FDFA3FC576E2";
name = "Regular Italic";
paths = (
{
closed = 1;
nodes = (
"57 645 LINE",
"170 730 LINE",
"220 730 LINE",
"295 645 LINE",
"253 624 LINE",
"185 687 LINE",
"91 624 LINE"
);
}
);
width = 316;
}
);
note = circumflex;
rightKerningGroup = acute;
unicode = 02C6;
},
{
glyphname = Adieresis;
layers = (
{
layerId = "DC6C2CDD-F679-463F-ABCE-FDFA3FC576E2";
name = "Regular Italic";
paths = (
{
closed = 1;
nodes = (
"386 710 LINE",
"446 710 LINE",
"574 0 LINE",
"500 0 LINE",
"461 222 LINE",
"162 222 LINE",
"30 0 LINE",
"-45 0 LINE"
);
},
{
closed = 1;
nodes = (
"457 277 LINE",
"399 628 LINE",
"188 277 LINE"
);
},
{
closed = 1;
nodes = (
"328 820 LINE",
"349 914 LINE",
"407 914 LINE",
"386 820 LINE"
);
},
{
closed = 1;
nodes = (
"472 820 LINE",
"492 914 LINE",
"549 914 LINE",
"530 820 LINE"
);
}
);
width = 651;
}
);
leftKerningGroup = A;
note = Adieresis;
rightKerningGroup = A;
unicode = 00C4;
},
{
glyphname = dieresis;
layers = (
{
layerId = "DC6C2CDD-F679-463F-ABCE-FDFA3FC576E2";
name = "Regular Italic";
paths = (
{
closed = 1;
nodes = (
"63 633 LINE",
"84 727 LINE",
"142 727 LINE",
"121 633 LINE"
);
},
{
closed = 1;
nodes = (
"207 633 LINE",
"227 727 LINE",
"284 727 LINE",
"265 633 LINE"
);
}
);
width = 319;
}
);
note = dieresis;
rightKerningGroup = acute;
unicode = 00A8;
},
{
glyphname = Agrave;
layers = (
{
layerId = "DC6C2CDD-F679-463F-ABCE-FDFA3FC576E2";
name = "Regular Italic";
paths = (
{
closed = 1;
nodes = (
"386 710 LINE",
"446 710 LINE",
"574 0 LINE",
"500 0 LINE",
"461 222 LINE",
"162 222 LINE",
"30 0 LINE",
"-45 0 LINE"
);
},
{
closed = 1;
nodes = (
"457 277 LINE",
"399 628 LINE",
"188 277 LINE"
);
},
{
closed = 1;
nodes = (
"354 917 LINE",
"424 917 LINE",
"462 824 LINE",
"413 807 LINE"
);
}
);
width = 651;
}
);
leftKerningGroup = A;
note = Agrave;
rightKerningGroup = A;
unicode = 00C0;
},
{
glyphname = grave;
layers = (
{
layerId = "DC6C2CDD-F679-463F-ABCE-FDFA3FC576E2";
name = "Regular Italic";
paths = (
{
closed = 1;
nodes = (
"67 730 LINE",
"137 730 LINE",
"175 637 LINE",
"126 620 LINE"
);
}
);
width = 213;
}
);
note = grave;
rightKerningGroup = acute;
unicode = 0060;
},
{
glyphname = Amacron;
layers = (
{
layerId = "DC6C2CDD-F679-463F-ABCE-FDFA3FC576E2";
name = "Regular Italic";
paths = (
{
closed = 1;
nodes = (
"386 710 LINE",
"446 710 LINE",
"574 0 LINE",
"500 0 LINE",
"461 222 LINE",
"162 222 LINE",
"30 0 LINE",
"-45 0 LINE"
);
},
{
closed = 1;
nodes = (
"457 277 LINE",
"399 628 LINE",
"188 277 LINE"
);
},
{
closed = 1;
nodes = (
"304 849 LINE",
"314 896 LINE",
"589 896 LINE",
"579 849 LINE"
);
}
);
width = 651;
}
);
leftKerningGroup = A;
note = Amacron;
rightKerningGroup = A;
unicode = 0100;
},
{
glyphname = macron;
layers = (
{
layerId = "DC6C2CDD-F679-463F-ABCE-FDFA3FC576E2";
name = "Regular Italic";
paths = (
{
closed = 1;
nodes = (
"72 662 LINE",
"82 709 LINE",
"357 709 LINE",
"347 662 LINE"
);
}
);
width = 378;
}
);
note = macron;
rightKerningGroup = acute;
unicode = 00AF;
},
{
glyphname = Aogonek;
layers = (
{
layerId = "DC6C2CDD-F679-463F-ABCE-FDFA3FC576E2";
name = "Regular Italic";
paths = (
{
closed = 1;
nodes = (
"491 -175 LINE",
"451 -166 OFFCURVE",
"431 -143 OFFCURVE",
"431 -114 CURVE SMOOTH",
"431 -77 OFFCURVE",
"459 -43 OFFCURVE",
"526 0 CURVE",
"500 0 LINE",
"461 222 LINE",
"162 222 LINE",
"30 0 LINE",
"-45 0 LINE",
"386 710 LINE",
"446 710 LINE",
"574 0 LINE",
"537 -21 OFFCURVE",
"512 -40 OFFCURVE",
"497 -55 CURVE SMOOTH",
"482 -70 OFFCURVE",
"475 -86 OFFCURVE",
"475 -101 CURVE SMOOTH",
"475 -121 OFFCURVE",
"489 -133 OFFCURVE",
"517 -137 CURVE"
);
},
{
closed = 1;
nodes = (
"457 277 LINE",
"399 628 LINE",
"188 277 LINE"
);
}
);
width = 651;
}
);
leftKerningGroup = A;
note = Aogonek;
rightKerningGroup = A;
unicode = 0104;
},
{
glyphname = ogonek;
layers = (
{
layerId = "DC6C2CDD-F679-463F-ABCE-FDFA3FC576E2";
name = "Regular Italic";
paths = (
{
closed = 1;
nodes = (
"49 -166 OFFCURVE",
"29 -143 OFFCURVE",
"29 -114 CURVE SMOOTH",
"29 -71 OFFCURVE",
"65 -34 OFFCURVE",
"153 17 CURVE",
"172 0 LINE",
"135 -21 OFFCURVE",
"110 -40 OFFCURVE",
"95 -55 CURVE SMOOTH",
"80 -70 OFFCURVE",
"73 -86 OFFCURVE",
"73 -101 CURVE SMOOTH",
"73 -121 OFFCURVE",
"87 -133 OFFCURVE",
"115 -137 CURVE",
"89 -175 LINE"
);
}
);
width = 230;
}
);
note = ogonek;
rightKerningGroup = acute;
unicode = 02DB;
},
{
glyphname = Aring;
layers = (
{
layerId = "DC6C2CDD-F679-463F-ABCE-FDFA3FC576E2";
name = "Regular Italic";
paths = (
{
closed = 1;
nodes = (
"386 710 LINE",
"446 710 LINE",
"574 0 LINE",
"500 0 LINE",
"461 222 LINE",
"162 222 LINE",
"30 0 LINE",
"-45 0 LINE"
);
},
{
closed = 1;
nodes = (
"457 277 LINE",
"399 628 LINE",
"188 277 LINE"
);
},
{
closed = 1;
nodes = (
"372 886 OFFCURVE",
"412 917 OFFCURVE",
"459 917 CURVE SMOOTH",
"495 917 OFFCURVE",
"517 896 OFFCURVE",
"517 864 CURVE SMOOTH",
"517 819 OFFCURVE",
"479 786 OFFCURVE",
"430 786 CURVE SMOOTH",
"394 786 OFFCURVE",
"372 807 OFFCURVE",
"372 839 CURVE SMOOTH"
);
},
{
closed = 1;
nodes = (
"429 890 OFFCURVE",
"405 871 OFFCURVE",
"405 844 CURVE SMOOTH",
"405 827 OFFCURVE",
"417 813 OFFCURVE",
"436 813 CURVE SMOOTH",
"459 813 OFFCURVE",
"485 832 OFFCURVE",
"485 859 CURVE SMOOTH",
"485 878 OFFCURVE",
"472 890 OFFCURVE",
"453 890 CURVE SMOOTH"
);
}
);
width = 651;
}
);
leftKerningGroup = A;
note = Aring;
rightKerningGroup = A;
unicode = 00C5;
},
{
glyphname = ring;
layers = (
{
layerId = "DC6C2CDD-F679-463F-ABCE-FDFA3FC576E2";
name = "Regular Italic";
paths = (
{
closed = 1;
nodes = (
"66 699 OFFCURVE",
"106 730 OFFCURVE",
"153 730 CURVE SMOOTH",
"189 730 OFFCURVE",
"211 709 OFFCURVE",
"211 677 CURVE SMOOTH",
"211 632 OFFCURVE",
"173 599 OFFCURVE",
"124 599 CURVE SMOOTH",
"88 599 OFFCURVE",
"66 620 OFFCURVE",
"66 652 CURVE SMOOTH"
);
},
{
closed = 1;
nodes = (
"123 703 OFFCURVE",
"99 684 OFFCURVE",
"99 657 CURVE SMOOTH",
"99 640 OFFCURVE",
"111 626 OFFCURVE",
"130 626 CURVE SMOOTH",
"153 626 OFFCURVE",
"179 645 OFFCURVE",
"179 672 CURVE SMOOTH",
"179 691 OFFCURVE",
"166 703 OFFCURVE",
"147 703 CURVE SMOOTH"
);
}
);
width = 236;
}
);
note = ring;
rightKerningGroup = acute;
unicode = 02DA;
},
{
glyphname = Aringacute;
layers = (
{
layerId = "DC6C2CDD-F679-463F-ABCE-FDFA3FC576E2";
name = "Regular Italic";
paths = (
{
closed = 1;
nodes = (
"455 812 LINE",
"482 807 OFFCURVE",
"497 788 OFFCURVE",
"497 761 CURVE SMOOTH",
"497 729 OFFCURVE",
"478 703 OFFCURVE",
"449 691 CURVE",
"574 0 LINE",
"500 0 LINE",
"461 222 LINE",
"162 222 LINE",
"30 0 LINE",
"-45 0 LINE",
"375 692 LINE",
"360 701 OFFCURVE",
"352 716 OFFCURVE",
"352 736 CURVE SMOOTH",
"352 783 OFFCURVE",
"392 814 OFFCURVE",
"439 814 CURVE SMOOTH",
"442 814 OFFCURVE",
"444 814 OFFCURVE",
"446 814 CURVE",
"448 813 OFFCURVE",
"450 813 OFFCURVE",
"453 813 CURVE",
"413 828 LINE",
"489 918 LINE",
"560 918 LINE"
);
},
{
closed = 1;
nodes = (
"457 277 LINE",
"399 628 LINE",
"188 277 LINE"
);
},
{
closed = 1;
nodes = (
"409 787 OFFCURVE",
"385 768 OFFCURVE",
"385 741 CURVE SMOOTH",
"385 724 OFFCURVE",
"397 710 OFFCURVE",
"416 710 CURVE SMOOTH",
"439 710 OFFCURVE",
"465 729 OFFCURVE",
"465 756 CURVE SMOOTH",
"465 775 OFFCURVE",
"452 787 OFFCURVE",
"433 787 CURVE SMOOTH"
);
}
);
width = 651;
}
);
leftKerningGroup = A;
note = Aringacute;
rightKerningGroup = A;
unicode = 01FA;
},
{
glyphname = Atilde;
layers = (
{
layerId = "DC6C2CDD-F679-463F-ABCE-FDFA3FC576E2";
name = "Regular Italic";
paths = (
{
closed = 1;
nodes = (
"386 710 LINE",
"446 710 LINE",
"574 0 LINE",
"500 0 LINE",
"461 222 LINE",
"162 222 LINE",
"30 0 LINE",
"-45 0 LINE"
);
},
{
closed = 1;
nodes = (
"457 277 LINE",
"399 628 LINE",
"188 277 LINE"
);
},
{
closed = 1;
nodes = (
"467 825 OFFCURVE",
"449 835 OFFCURVE",
"433 845 CURVE SMOOTH",
"417 855 OFFCURVE",
"402 865 OFFCURVE",
"382 865 CURVE SMOOTH",
"362 865 OFFCURVE",
"347 854 OFFCURVE",
"339 843 CURVE",
"334 837 OFFCURVE",
"331 832 OFFCURVE",
"329 827 CURVE",
"326 822 OFFCURVE",
"325 818 OFFCURVE",
"325 817 CURVE",
"283 817 LINE",
"284 824 OFFCURVE",
"294 848 OFFCURVE",
"311 869 CURVE SMOOTH",
"328 890 OFFCURVE",
"355 910 OFFCURVE",
"391 910 CURVE SMOOTH",
"418 910 OFFCURVE",
"434 900 OFFCURVE",
"450 889 CURVE SMOOTH",
"466 878 OFFCURVE",
"480 868 OFFCURVE",
"504 868 CURVE SMOOTH",
"528 868 OFFCURVE",
"545 879 OFFCURVE",
"554 891 CURVE",
"559 897 OFFCURVE",
"562 903 OFFCURVE",
"565 908 CURVE",
"567 913 OFFCURVE",
"568 916 OFFCURVE",
"568 917 CURVE",
"610 917 LINE",
"609 914 OFFCURVE",
"607 907 OFFCURVE",
"602 897 CURVE",
"593 877 OFFCURVE",
"574 854 OFFCURVE",
"546 838 CURVE",
"532 829 OFFCURVE",
"515 825 OFFCURVE",
"495 825 CURVE SMOOTH"
);
}
);
width = 651;
}
);
leftKerningGroup = A;
note = Atilde;
rightKerningGroup = A;
unicode = 00C3;
},
{
glyphname = tilde;
layers = (
{
layerId = "DC6C2CDD-F679-463F-ABCE-FDFA3FC576E2";
name = "Regular Italic";
paths = (
{
closed = 1;
nodes = (
"228 638 OFFCURVE",
"210 648 OFFCURVE",
"194 658 CURVE SMOOTH",
"178 668 OFFCURVE",
"163 678 OFFCURVE",
"143 678 CURVE SMOOTH",
"123 678 OFFCURVE",
"108 667 OFFCURVE",
"100 656 CURVE",
"95 650 OFFCURVE",
"92 645 OFFCURVE",
"90 640 CURVE",
"87 635 OFFCURVE",
"86 631 OFFCURVE",
"86 630 CURVE",
"44 630 LINE",
"45 637 OFFCURVE",
"55 661 OFFCURVE",
"72 682 CURVE SMOOTH",
"89 703 OFFCURVE",
"116 723 OFFCURVE",
"152 723 CURVE SMOOTH",
"179 723 OFFCURVE",
"195 713 OFFCURVE",
"211 702 CURVE SMOOTH",
"227 691 OFFCURVE",
"241 681 OFFCURVE",
"265 681 CURVE SMOOTH",
"289 681 OFFCURVE",
"306 692 OFFCURVE",
"315 704 CURVE",
"320 710 OFFCURVE",
"323 716 OFFCURVE",
"326 721 CURVE",
"328 726 OFFCURVE",
"329 729 OFFCURVE",
"329 730 CURVE",
"371 730 LINE",
"370 727 OFFCURVE",
"368 720 OFFCURVE",
"363 710 CURVE",
"354 690 OFFCURVE",
"335 667 OFFCURVE",
"307 651 CURVE",
"293 642 OFFCURVE",
"276 638 OFFCURVE",
"256 638 CURVE SMOOTH"
);
}
);
width = 387;
}
);
note = tilde;
rightKerningGroup = acute;
unicode = 02DC;
},
{
glyphname = B;
layers = (
{
layerId = "DC6C2CDD-F679-463F-ABCE-FDFA3FC576E2";
name = "Regular Italic";
paths = (
{
closed = 1;
nodes = (
"175 710 LINE",
"501 710 LINE SMOOTH",
"541 710 OFFCURVE",
"571 692 OFFCURVE",
"591 665 CURVE SMOOTH",
"611 638 OFFCURVE",
"621 602 OFFCURVE",
"621 565 CURVE SMOOTH",
"621 522 OFFCURVE",
"607 481 OFFCURVE",
"583 446 CURVE SMOOTH",
"559 410 OFFCURVE",
"524 381 OFFCURVE",
"484 364 CURVE",
"544 344 OFFCURVE",
"576 288 OFFCURVE",
"576 220 CURVE SMOOTH",
"576 156 OFFCURVE",
"547 102 OFFCURVE",
"504 63 CURVE SMOOTH",
"460 23 OFFCURVE",
"402 0 OFFCURVE",
"342 0 CURVE SMOOTH",
"24 0 LINE"
);
},
{
closed = 1;
nodes = (
"355 61 LINE SMOOTH",
"394 61 OFFCURVE",
"432 81 OFFCURVE",
"460 111 CURVE SMOOTH",
"488 141 OFFCURVE",
"507 180 OFFCURVE",
"507 221 CURVE SMOOTH",
"507 250 OFFCURVE",
"499 278 OFFCURVE",
"484 298 CURVE SMOOTH",
"468 318 OFFCURVE",
"447 330 OFFCURVE",
"419 330 CURVE SMOOTH",
"163 330 LINE",
"106 61 LINE"
);
},
{
closed = 1;
nodes = (
"405 387 LINE SMOOTH",
"442 387 OFFCURVE",
"478 407 OFFCURVE",
"505 436 CURVE SMOOTH",
"532 465 OFFCURVE",
"549 505 OFFCURVE",
"549 546 CURVE SMOOTH",
"549 603 OFFCURVE",
"518 649 OFFCURVE",
"466 649 CURVE SMOOTH",
"231 649 LINE",
"175 387 LINE"
);
}
);
width = 641;
}
);
leftKerningGroup = B;
note = B;
rightKerningGroup = B;
unicode = 0042;
},
{
glyphname = B.sc;
layers = (
{
layerId = "DC6C2CDD-F679-463F-ABCE-FDFA3FC576E2";
name = "Regular Italic";
paths = (
{
closed = 1;
nodes = (
"135 548 LINE",
"411 548 LINE SMOOTH",
"444 548 OFFCURVE",
"471 534 OFFCURVE",
"488 513 CURVE SMOOTH",
"505 492 OFFCURVE",
"514 463 OFFCURVE",
"514 434 CURVE SMOOTH",
"514 369 OFFCURVE",
"469 308 OFFCURVE",
"402 281 CURVE",
"453 265 OFFCURVE",
"482 223 OFFCURVE",
"482 168 CURVE SMOOTH",
"482 119 OFFCURVE",
"458 76 OFFCURVE",
"422 47 CURVE SMOOTH",
"385 18 OFFCURVE",
"335 0 OFFCURVE",
"286 0 CURVE SMOOTH",
"18 0 LINE"
);
},
{
closed = 1;
nodes = (
"297 54 LINE SMOOTH",
"328 54 OFFCURVE",
"358 68 OFFCURVE",
"381 90 CURVE SMOOTH",
"404 112 OFFCURVE",
"419 139 OFFCURVE",
"419 170 CURVE SMOOTH",
"419 213 OFFCURVE",
"392 251 OFFCURVE",
"345 251 CURVE SMOOTH",
"134 251 LINE",
"93 54 LINE"
);
},
{
closed = 1;
nodes = (
"334 302 LINE SMOOTH",
"363 302 OFFCURVE",
"393 315 OFFCURVE",
"414 336 CURVE SMOOTH",
"435 357 OFFCURVE",
"449 385 OFFCURVE",
"449 416 CURVE SMOOTH",
"449 460 OFFCURVE",
"422 492 OFFCURVE",
"379 492 CURVE SMOOTH",
"185 492 LINE",
"145 302 LINE"
);
}
);
width = 557;
}
);
leftKerningGroup = B.sc;
note = B.sc;
rightKerningGroup = B.sc;
},
{
glyphname = C;
layers = (
{
layerId = "DC6C2CDD-F679-463F-ABCE-FDFA3FC576E2";
name = "Regular Italic";
paths = (
{
closed = 1;
nodes = (
"215 -6 OFFCURVE",
"154 31 OFFCURVE",
"112 87 CURVE SMOOTH",
"70 143 OFFCURVE",
"47 218 OFFCURVE",
"47 294 CURVE SMOOTH",
"47 391 OFFCURVE",
"90 496 OFFCURVE",
"162 577 CURVE SMOOTH",
"234 657 OFFCURVE",
"335 714 OFFCURVE",
"452 714 CURVE SMOOTH",
"573 714 OFFCURVE",
"646 651 OFFCURVE",
"669 559 CURVE",
"606 525 LINE",
"594 572 OFFCURVE",
"570 603 OFFCURVE",
"539 623 CURVE SMOOTH",
"508 643 OFFCURVE",
"471 651 OFFCURVE",
"435 651 CURVE SMOOTH",
"342 651 OFFCURVE",
"262 603 OFFCURVE",
"206 535 CURVE SMOOTH",
"150 466 OFFCURVE",
"117 377 OFFCURVE",
"117 297 CURVE SMOOTH",
"117 232 OFFCURVE",
"136 172 OFFCURVE",
"169 128 CURVE SMOOTH",
"202 84 OFFCURVE",
"251 57 OFFCURVE",
"311 57 CURVE SMOOTH",
"348 57 OFFCURVE",
"392 67 OFFCURVE",
"433 89 CURVE SMOOTH",
"474 111 OFFCURVE",
"514 142 OFFCURVE",
"545 189 CURVE",
"597 159 LINE",
"564 106 OFFCURVE",
"515 65 OFFCURVE",
"460 37 CURVE SMOOTH",
"405 9 OFFCURVE",
"346 -6 OFFCURVE",
"294 -6 CURVE SMOOTH"
);
}
);
width = 656;
}
);
leftKerningGroup = C;
note = C;
rightKerningGroup = C;
unicode = 0043;
},
{
glyphname = C.sc;
layers = (
{
layerId = "DC6C2CDD-F679-463F-ABCE-FDFA3FC576E2";
name = "Regular Italic";
paths = (
{
closed = 1;
nodes = (
"178 -5 OFFCURVE",
"125 24 OFFCURVE",
"89 68 CURVE SMOOTH",
"53 112 OFFCURVE",
"33 171 OFFCURVE",
"33 231 CURVE SMOOTH",
"33 304 OFFCURVE",
"68 385 OFFCURVE",
"128 447 CURVE SMOOTH",
"187 509 OFFCURVE",
"271 551 OFFCURVE",
"368 551 CURVE SMOOTH",
"469 551 OFFCURVE",
"534 502 OFFCURVE",
"554 431 CURVE",
"498 399 LINE",
"487 435 OFFCURVE",
"467 458 OFFCURVE",
"441 474 CURVE SMOOTH",
"415 489 OFFCURVE",
"382 494 OFFCURVE",
"353 494 CURVE SMOOTH",
"277 494 OFFCURVE",
"213 460 OFFCURVE",
"168 410 CURVE SMOOTH",
"123 360 OFFCURVE",
"97 295 OFFCURVE",
"97 235 CURVE SMOOTH",
"97 186 OFFCURVE",
"113 139 OFFCURVE",
"141 106 CURVE SMOOTH",
"169 73 OFFCURVE",
"210 52 OFFCURVE",
"261 52 CURVE SMOOTH",
"293 52 OFFCURVE",
"328 59 OFFCURVE",
"362 75 CURVE SMOOTH",
"396 91 OFFCURVE",
"428 116 OFFCURVE",
"453 151 CURVE",
"499 122 LINE",
"471 82 OFFCURVE",
"431 49 OFFCURVE",
"385 28 CURVE SMOOTH",
"339 7 OFFCURVE",
"290 -5 OFFCURVE",
"246 -5 CURVE SMOOTH"
);
}
);
width = 570;
}
);
leftKerningGroup = C.sc;
note = C.sc;
rightKerningGroup = C.sc;
},
{
glyphname = Cacute;
layers = (
{
layerId = "DC6C2CDD-F679-463F-ABCE-FDFA3FC576E2";
name = "Regular Italic";
paths = (
{
closed = 1;
nodes = (
"472 807 LINE",
"430 824 LINE",
"506 917 LINE",
"577 917 LINE"
);
},
{
closed = 1;
nodes = (
"215 -6 OFFCURVE",
"154 31 OFFCURVE",
"112 87 CURVE SMOOTH",
"70 143 OFFCURVE",
"47 218 OFFCURVE",
"47 294 CURVE SMOOTH",
"47 391 OFFCURVE",
"90 496 OFFCURVE",
"162 577 CURVE SMOOTH",
"234 657 OFFCURVE",
"335 714 OFFCURVE",
"452 714 CURVE SMOOTH",
"573 714 OFFCURVE",
"646 651 OFFCURVE",
"669 559 CURVE",
"606 525 LINE",
"594 572 OFFCURVE",
"570 603 OFFCURVE",
"539 623 CURVE SMOOTH",
"508 643 OFFCURVE",
"471 651 OFFCURVE",
"435 651 CURVE SMOOTH",
"342 651 OFFCURVE",
"262 603 OFFCURVE",
"206 535 CURVE SMOOTH",
"150 466 OFFCURVE",
"117 377 OFFCURVE",
"117 297 CURVE SMOOTH",
"117 232 OFFCURVE",
"136 172 OFFCURVE",
"169 128 CURVE SMOOTH",
"202 84 OFFCURVE",
"251 57 OFFCURVE",
"311 57 CURVE SMOOTH",
"348 57 OFFCURVE",
"392 67 OFFCURVE",
"433 89 CURVE SMOOTH",
"474 111 OFFCURVE",
"514 142 OFFCURVE",
"545 189 CURVE",
"597 159 LINE",
"564 106 OFFCURVE",
"515 65 OFFCURVE",
"460 37 CURVE SMOOTH",
"405 9 OFFCURVE",
"346 -6 OFFCURVE",
"294 -6 CURVE SMOOTH"
);
}
);
width = 656;
}
);
leftKerningGroup = C;
note = Cacute;
rightKerningGroup = C;
unicode = 0106;
},
{
glyphname = Ccaron;
layers = (
{
layerId = "DC6C2CDD-F679-463F-ABCE-FDFA3FC576E2";
name = "Regular Italic";
paths = (
{
closed = 1;
nodes = (
"376 897 LINE",
"419 917 LINE",
"486 854 LINE",
"580 917 LINE",
"614 897 LINE",
"502 811 LINE",
"452 811 LINE"
);
},
{
closed = 1;
nodes = (
"215 -6 OFFCURVE",
"154 31 OFFCURVE",
"112 87 CURVE SMOOTH",
"70 143 OFFCURVE",
"47 218 OFFCURVE",
"47 294 CURVE SMOOTH",
"47 391 OFFCURVE",
"90 496 OFFCURVE",
"162 577 CURVE SMOOTH",
"234 657 OFFCURVE",
"335 714 OFFCURVE",
"452 714 CURVE SMOOTH",
"573 714 OFFCURVE",
"646 651 OFFCURVE",
"669 559 CURVE",
"606 525 LINE",
"594 572 OFFCURVE",
"570 603 OFFCURVE",
"539 623 CURVE SMOOTH",
"508 643 OFFCURVE",
"471 651 OFFCURVE",
"435 651 CURVE SMOOTH",
"342 651 OFFCURVE",
"262 603 OFFCURVE",
"206 535 CURVE SMOOTH",
"150 466 OFFCURVE",
"117 377 OFFCURVE",
"117 297 CURVE SMOOTH",
"117 232 OFFCURVE",
"136 172 OFFCURVE",
"169 128 CURVE SMOOTH",
"202 84 OFFCURVE",
"251 57 OFFCURVE",
"311 57 CURVE SMOOTH",
"348 57 OFFCURVE",
"392 67 OFFCURVE",
"433 89 CURVE SMOOTH",
"474 111 OFFCURVE",
"514 142 OFFCURVE",
"545 189 CURVE",
"597 159 LINE",
"564 106 OFFCURVE",
"515 65 OFFCURVE",
"460 37 CURVE SMOOTH",
"405 9 OFFCURVE",
"346 -6 OFFCURVE",
"294 -6 CURVE SMOOTH"
);
}
);
width = 656;
}
);
leftKerningGroup = C;
note = Ccaron;
rightKerningGroup = C;
unicode = 010C;
},
{
glyphname = caron;
layers = (
{
layerId = "DC6C2CDD-F679-463F-ABCE-FDFA3FC576E2";
name = "Regular Italic";
paths = (
{
closed = 1;
nodes = (
"67 710 LINE",
"110 730 LINE",
"177 667 LINE",
"271 730 LINE",
"305 710 LINE",
"193 624 LINE",
"143 624 LINE"
);
}
);
width = 316;
}
);
note = caron;
rightKerningGroup = acute;
unicode = 02C7;
},
{
glyphname = Ccedilla;
layers = (
{
layerId = "DC6C2CDD-F679-463F-ABCE-FDFA3FC576E2";
name = "Regular Italic";
paths = (
{
closed = 1;
nodes = (
"183 -126 LINE",
"198 -135 OFFCURVE",
"229 -144 OFFCURVE",
"262 -144 CURVE SMOOTH",
"305 -144 OFFCURVE",
"326 -130 OFFCURVE",
"326 -101 CURVE SMOOTH",
"326 -80 OFFCURVE",
"309 -73 OFFCURVE",
"285 -73 CURVE SMOOTH",
"258 -73 OFFCURVE",
"224 -80 OFFCURVE",
"205 -87 CURVE",
"264 -4 LINE",
"193 3 OFFCURVE",
"139 41 OFFCURVE",
"101 96 CURVE SMOOTH",
"63 151 OFFCURVE",
"43 222 OFFCURVE",
"43 294 CURVE SMOOTH",
"43 391 OFFCURVE",
"86 496 OFFCURVE",
"158 577 CURVE SMOOTH",
"230 657 OFFCURVE",
"331 714 OFFCURVE",
"448 714 CURVE SMOOTH",
"569 714 OFFCURVE",
"642 651 OFFCURVE",
"665 559 CURVE",
"602 525 LINE",
"590 572 OFFCURVE",
"566 603 OFFCURVE",
"535 623 CURVE SMOOTH",
"504 643 OFFCURVE",
"467 651 OFFCURVE",
"431 651 CURVE SMOOTH",
"338 651 OFFCURVE",
"258 603 OFFCURVE",
"202 535 CURVE SMOOTH",
"146 466 OFFCURVE",
"113 377 OFFCURVE",
"113 297 CURVE SMOOTH",
"113 232 OFFCURVE",
"132 172 OFFCURVE",
"165 128 CURVE SMOOTH",
"198 84 OFFCURVE",
"247 57 OFFCURVE",
"307 57 CURVE SMOOTH",
"344 57 OFFCURVE",
"388 67 OFFCURVE",
"429 89 CURVE SMOOTH",
"470 111 OFFCURVE",
"510 142 OFFCURVE",
"541 189 CURVE",
"593 159 LINE",
"561 108 OFFCURVE",
"514 68 OFFCURVE",
"462 40 CURVE SMOOTH",
"410 12 OFFCURVE",
"353 -4 OFFCURVE",
"302 -5 CURVE",
"266 -51 LINE",
"278 -46 OFFCURVE",
"292 -45 OFFCURVE",
"303 -45 CURVE SMOOTH",
"342 -45 OFFCURVE",
"364 -62 OFFCURVE",
"364 -94 CURVE SMOOTH",
"364 -145 OFFCURVE",
"324 -176 OFFCURVE",
"249 -176 CURVE SMOOTH",
"213 -176 OFFCURVE",
"182 -168 OFFCURVE",
"159 -157 CURVE"
);
}
);
width = 652;
}
);
leftKerningGroup = C;
note = Ccedilla;
rightKerningGroup = C;
unicode = 00C7;
},
{
glyphname = cedilla;
layers = (
{
layerId = "DC6C2CDD-F679-463F-ABCE-FDFA3FC576E2";
name = "Regular Italic";
paths = (
{
closed = 1;
nodes = (
"11 -126 LINE",
"26 -135 OFFCURVE",
"57 -144 OFFCURVE",
"90 -144 CURVE SMOOTH",
"133 -144 OFFCURVE",
"154 -130 OFFCURVE",
"154 -101 CURVE SMOOTH",
"154 -80 OFFCURVE",
"137 -73 OFFCURVE",
"113 -73 CURVE SMOOTH",
"86 -73 OFFCURVE",
"52 -80 OFFCURVE",
"33 -87 CURVE",
"109 18 LINE",
"139 5 LINE",
"94 -51 LINE",
"106 -46 OFFCURVE",
"120 -45 OFFCURVE",
"131 -45 CURVE SMOOTH",
"170 -45 OFFCURVE",
"192 -62 OFFCURVE",
"192 -94 CURVE SMOOTH",
"192 -145 OFFCURVE",
"152 -176 OFFCURVE",
"77 -176 CURVE SMOOTH",
"41 -176 OFFCURVE",
"10 -168 OFFCURVE",
"-13 -157 CURVE"
);
}
);
width = 270;
}
);
note = cedilla;
rightKerningGroup = acute;
unicode = 00B8;
},
{
glyphname = Ccircumflex;
layers = (
{
layerId = "DC6C2CDD-F679-463F-ABCE-FDFA3FC576E2";
name = "Regular Italic";
paths = (
{
closed = 1;
nodes = (
"367 832 LINE",
"480 917 LINE",
"530 917 LINE",
"605 832 LINE",
"563 811 LINE",
"495 874 LINE",
"401 811 LINE"
);
},
{
closed = 1;
nodes = (
"215 -6 OFFCURVE",
"154 31 OFFCURVE",
"112 87 CURVE SMOOTH",
"70 143 OFFCURVE",
"47 218 OFFCURVE",
"47 294 CURVE SMOOTH",
"47 391 OFFCURVE",
"90 496 OFFCURVE",
"162 577 CURVE SMOOTH",
"234 657 OFFCURVE",
"335 714 OFFCURVE",
"452 714 CURVE SMOOTH",
"573 714 OFFCURVE",
"646 651 OFFCURVE",
"669 559 CURVE",
"606 525 LINE",
"594 572 OFFCURVE",
"570 603 OFFCURVE",
"539 623 CURVE SMOOTH",
"508 643 OFFCURVE",
"471 651 OFFCURVE",
"435 651 CURVE SMOOTH",
"342 651 OFFCURVE",
"262 603 OFFCURVE",
"206 535 CURVE SMOOTH",
"150 466 OFFCURVE",
"117 377 OFFCURVE",
"117 297 CURVE SMOOTH",
"117 232 OFFCURVE",
"136 172 OFFCURVE",
"169 128 CURVE SMOOTH",
"202 84 OFFCURVE",
"251 57 OFFCURVE",
"311 57 CURVE SMOOTH",
"348 57 OFFCURVE",
"392 67 OFFCURVE",
"433 89 CURVE SMOOTH",
"474 111 OFFCURVE",
"514 142 OFFCURVE",
"545 189 CURVE",
"597 159 LINE",
"564 106 OFFCURVE",
"515 65 OFFCURVE",
"460 37 CURVE SMOOTH",
"405 9 OFFCURVE",
"346 -6 OFFCURVE",
"294 -6 CURVE SMOOTH"
);
}
);
width = 656;
}
);
leftKerningGroup = C;
note = Ccircumflex;
rightKerningGroup = C;
unicode = 0108;
},
{
glyphname = Cdotaccent;
layers = (
{
layerId = "DC6C2CDD-F679-463F-ABCE-FDFA3FC576E2";
name = "Regular Italic";
paths = (
{
closed = 1;
nodes = (
"215 -6 OFFCURVE",
"154 31 OFFCURVE",
"112 87 CURVE SMOOTH",
"70 143 OFFCURVE",
"47 218 OFFCURVE",
"47 294 CURVE SMOOTH",
"47 391 OFFCURVE",
"90 496 OFFCURVE",
"162 577 CURVE SMOOTH",
"234 657 OFFCURVE",
"335 714 OFFCURVE",
"452 714 CURVE SMOOTH",
"573 714 OFFCURVE",
"646 651 OFFCURVE",
"669 559 CURVE",
"606 525 LINE",
"594 572 OFFCURVE",
"570 603 OFFCURVE",
"539 623 CURVE SMOOTH",
"508 643 OFFCURVE",
"471 651 OFFCURVE",
"435 651 CURVE SMOOTH",
"342 651 OFFCURVE",
"262 603 OFFCURVE",
"206 535 CURVE SMOOTH",
"150 466 OFFCURVE",
"117 377 OFFCURVE",
"117 297 CURVE SMOOTH",
"117 232 OFFCURVE",
"136 172 OFFCURVE",
"169 128 CURVE SMOOTH",
"202 84 OFFCURVE",
"251 57 OFFCURVE",
"311 57 CURVE SMOOTH",
"348 57 OFFCURVE",
"392 67 OFFCURVE",
"433 89 CURVE SMOOTH",
"474 111 OFFCURVE",
"514 142 OFFCURVE",
"545 189 CURVE",
"597 159 LINE",
"564 106 OFFCURVE",
"515 65 OFFCURVE",
"460 37 CURVE SMOOTH",
"405 9 OFFCURVE",
"346 -6 OFFCURVE",
"294 -6 CURVE SMOOTH"
);
},
{
closed = 1;
nodes = (
"452 820 LINE",
"473 917 LINE",
"535 917 LINE",
"514 820 LINE"
);
}
);
width = 656;
}
);
leftKerningGroup = C;
note = Cdotaccent;
rightKerningGroup = C;
unicode = 010A;
},
{
glyphname = dotaccent;
layers = (
{
layerId = "DC6C2CDD-F679-463F-ABCE-FDFA3FC576E2";
name = "Regular Italic";
paths = (
{
closed = 1;
nodes = (
"51 633 LINE",
"72 730 LINE",
"134 730 LINE",
"113 633 LINE"
);
}
);
width = 156;
}
);
note = dotaccent;
rightKerningGroup = acute;
unicode = 02D9;
},
{
glyphname = D;
layers = (
{
layerId = "DC6C2CDD-F679-463F-ABCE-FDFA3FC576E2";
name = "Regular Italic";
paths = (
{
closed = 1;
nodes = (
"175 710 LINE",
"405 710 LINE SMOOTH",
"493 710 OFFCURVE",
"558 680 OFFCURVE",
"601 631 CURVE SMOOTH",
"644 582 OFFCURVE",
"664 514 OFFCURVE",
"664 438 CURVE SMOOTH",
"664 313 OFFCURVE",
"620 203 OFFCURVE",
"547 125 CURVE SMOOTH",
"474 47 OFFCURVE",
"371 0 OFFCURVE",
"254 0 CURVE SMOOTH",
"24 0 LINE"
);
},
{
closed = 1;
nodes = (
"267 62 LINE SMOOTH",
"367 62 OFFCURVE",
"449 105 OFFCURVE",
"505 173 CURVE SMOOTH",
"561 240 OFFCURVE",
"592 331 OFFCURVE",
"592 427 CURVE SMOOTH",
"592 491 OFFCURVE",
"576 547 OFFCURVE",
"542 586 CURVE SMOOTH",
"508 625 OFFCURVE",
"458 648 OFFCURVE",
"391 648 CURVE SMOOTH",
"231 648 LINE",
"106 62 LINE"
);
}
);
width = 690;
}
);
leftKerningGroup = B;
note = D;
rightKerningGroup = D;
unicode = 0044;
},
{
glyphname = D.sc;
layers = (
{
layerId = "DC6C2CDD-F679-463F-ABCE-FDFA3FC576E2";
name = "Regular Italic";
paths = (
{
closed = 1;
nodes = (
"135 548 LINE",
"330 548 LINE SMOOTH",
"406 548 OFFCURVE",
"463 525 OFFCURVE",
"500 486 CURVE SMOOTH",
"536 447 OFFCURVE",
"554 393 OFFCURVE",
"554 333 CURVE SMOOTH",
"554 237 OFFCURVE",
"518 153 OFFCURVE",
"458 94 CURVE SMOOTH",
"397 35 OFFCURVE",
"311 0 OFFCURVE",
"214 0 CURVE SMOOTH",
"18 0 LINE"
);
},
{
closed = 1;
nodes = (
"225 56 LINE SMOOTH",
"308 56 OFFCURVE",
"374 87 OFFCURVE",
"419 136 CURVE SMOOTH",
"464 185 OFFCURVE",
"489 252 OFFCURVE",
"489 323 CURVE SMOOTH",
"489 372 OFFCURVE",
"474 415 OFFCURVE",
"446 445 CURVE SMOOTH",
"417 475 OFFCURVE",
"374 492 OFFCURVE",
"318 492 CURVE SMOOTH",
"185 492 LINE",
"93 56 LINE"
);
}
);
width = 600;
}
);
leftKerningGroup = B.sc;
note = D.sc;
rightKerningGroup = D.sc;
},
{
glyphname = Dcaron;
layers = (
{
layerId = "DC6C2CDD-F679-463F-ABCE-FDFA3FC576E2";
name = "Regular Italic";
paths = (
{
closed = 1;
nodes = (
"326 897 LINE",
"369 917 LINE",
"436 854 LINE",
"530 917 LINE",
"564 897 LINE",
"452 811 LINE",
"402 811 LINE"
);
},
{
closed = 1;
nodes = (
"175 710 LINE",
"405 710 LINE SMOOTH",
"493 710 OFFCURVE",
"558 680 OFFCURVE",
"601 631 CURVE SMOOTH",
"644 582 OFFCURVE",
"664 514 OFFCURVE",
"664 438 CURVE SMOOTH",
"664 313 OFFCURVE",
"620 203 OFFCURVE",
"547 125 CURVE SMOOTH",
"474 47 OFFCURVE",
"371 0 OFFCURVE",
"254 0 CURVE SMOOTH",
"24 0 LINE"
);
},
{
closed = 1;
nodes = (
"267 62 LINE SMOOTH",
"367 62 OFFCURVE",
"449 105 OFFCURVE",
"505 173 CURVE SMOOTH",
"561 240 OFFCURVE",
"592 331 OFFCURVE",
"592 427 CURVE SMOOTH",
"592 491 OFFCURVE",
"576 547 OFFCURVE",
"542 586 CURVE SMOOTH",
"508 625 OFFCURVE",
"458 648 OFFCURVE",
"391 648 CURVE SMOOTH",
"231 648 LINE",
"106 62 LINE"
);
}
);
width = 690;
}
);
leftKerningGroup = B;
note = Dcaron;
rightKerningGroup = D;
unicode = 010E;
},
{
glyphname = Dcroat;
layers = (
{
layerId = "DC6C2CDD-F679-463F-ABCE-FDFA3FC576E2";
name = "Regular Italic";
paths = (
{
closed = 1;
nodes = (
"55 384 LINE",
"112 384 LINE",
"182 710 LINE",
"412 710 LINE SMOOTH",
"500 710 OFFCURVE",
"565 680 OFFCURVE",
"608 631 CURVE SMOOTH",
"651 582 OFFCURVE",
"671 514 OFFCURVE",
"671 438 CURVE SMOOTH",
"671 313 OFFCURVE",
"627 203 OFFCURVE",
"554 125 CURVE SMOOTH",
"481 47 OFFCURVE",
"378 0 OFFCURVE",
"261 0 CURVE SMOOTH",
"31 0 LINE",
"101 330 LINE",
"43 330 LINE"
);
},
{
closed = 1;
nodes = (
"274 62 LINE SMOOTH",
"374 62 OFFCURVE",
"456 105 OFFCURVE",
"512 173 CURVE SMOOTH",
"568 240 OFFCURVE",
"599 331 OFFCURVE",
"599 427 CURVE SMOOTH",
"599 491 OFFCURVE",
"583 547 OFFCURVE",
"549 586 CURVE SMOOTH",
"515 625 OFFCURVE",
"465 648 OFFCURVE",
"398 648 CURVE SMOOTH",
"238 648 LINE",
"181 384 LINE",
"342 384 LINE",
"331 330 LINE",
"170 330 LINE",
"113 62 LINE"
);
}
);
width = 697;
}
);
leftKerningGroup = B;
note = Dcroat;
rightKerningGroup = D;
unicode = 0110;
},
{
glyphname = E;
layers = (
{
layerId = "DC6C2CDD-F679-463F-ABCE-FDFA3FC576E2";
name = "Regular Italic";
paths = (
{
closed = 1;
nodes = (
"175 710 LINE",
"620 710 LINE",
"607 648 LINE",
"231 648 LINE",
"176 392 LINE",
"504 392 LINE",
"492 333 LINE",
"164 333 LINE",
"106 62 LINE",
"491 62 LINE",
"478 0 LINE",
"24 0 LINE"
);
}
);
width = 582;
}
);
leftKerningGroup = B;
note = E;
rightKerningGroup = AE;
unicode = 0045;
},
{
glyphname = E.sc;
layers = (
{
layerId = "DC6C2CDD-F679-463F-ABCE-FDFA3FC576E2";
name = "Regular Italic";
paths = (
{
closed = 1;
nodes = (
"135 548 LINE",
"512 548 LINE",
"501 492 LINE",
"185 492 LINE",
"146 305 LINE",
"421 305 LINE",
"409 253 LINE",
"135 253 LINE",
"93 56 LINE",
"415 56 LINE",
"403 0 LINE",
"18 0 LINE"
);
}
);
width = 509;
}
);
leftKerningGroup = B.sc;
note = E.sc;
rightKerningGroup = E.sc;
},
{
glyphname = Eacute;
layers = (
{
layerId = "DC6C2CDD-F679-463F-ABCE-FDFA3FC576E2";
name = "Regular Italic";
paths = (
{
closed = 1;
nodes = (
"422 807 LINE",
"380 824 LINE",
"456 917 LINE",
"527 917 LINE"
);
},
{
closed = 1;
nodes = (
"175 710 LINE",
"620 710 LINE",
"607 648 LINE",
"231 648 LINE",
"176 392 LINE",
"504 392 LINE",
"492 333 LINE",
"164 333 LINE",
"106 62 LINE",
"491 62 LINE",
"478 0 LINE",
"24 0 LINE"
);
}
);
width = 582;
}
);
leftKerningGroup = B;
note = Eacute;
rightKerningGroup = AE;
unicode = 00C9;
},
{
glyphname = Ebreve;
layers = (
{
layerId = "DC6C2CDD-F679-463F-ABCE-FDFA3FC576E2";
name = "Regular Italic";
paths = (
{
closed = 1;
nodes = (
"175 710 LINE",
"620 710 LINE",
"607 648 LINE",
"231 648 LINE",
"176 392 LINE",
"504 392 LINE",
"492 333 LINE",
"164 333 LINE",
"106 62 LINE",
"491 62 LINE",
"478 0 LINE",
"24 0 LINE"
);
},
{
closed = 1;
nodes = (
"447 851 OFFCURVE",
"477 880 OFFCURVE",
"489 917 CURVE",
"529 917 LINE",
"522 889 OFFCURVE",
"507 864 OFFCURVE",
"487 846 CURVE SMOOTH",
"466 828 OFFCURVE",
"440 816 OFFCURVE",
"413 816 CURVE SMOOTH",
"366 816 OFFCURVE",
"336 849 OFFCURVE",
"336 894 CURVE SMOOTH",
"336 901 OFFCURVE",
"337 909 OFFCURVE",
"339 917 CURVE",
"381 917 LINE",
"380 910 OFFCURVE",
"379 905 OFFCURVE",
"379 902 CURVE SMOOTH",
"379 874 OFFCURVE",
"396 851 OFFCURVE",
"420 851 CURVE SMOOTH"
);
}
);
width = 582;
}
);
leftKerningGroup = B;
note = Ebreve;
rightKerningGroup = AE;
unicode = 0114;
},
{
glyphname = Ecaron;
layers = (
{
layerId = "DC6C2CDD-F679-463F-ABCE-FDFA3FC576E2";
name = "Regular Italic";
paths = (
{
closed = 1;
nodes = (
"313 897 LINE",
"356 917 LINE",
"423 854 LINE",
"517 917 LINE",
"551 897 LINE",
"439 811 LINE",
"389 811 LINE"
);
},
{
closed = 1;
nodes = (
"175 710 LINE",
"620 710 LINE",
"607 648 LINE",
"231 648 LINE",
"176 392 LINE",
"504 392 LINE",
"492 333 LINE",
"164 333 LINE",
"106 62 LINE",
"491 62 LINE",
"478 0 LINE",
"24 0 LINE"
);
}
);
width = 582;
}
);
leftKerningGroup = B;
note = Ecaron;
rightKerningGroup = AE;
unicode = 011A;
},
{
glyphname = Ecircumflex;
layers = (
{
layerId = "DC6C2CDD-F679-463F-ABCE-FDFA3FC576E2";
name = "Regular Italic";
paths = (
{
closed = 1;
nodes = (
"313 832 LINE",
"426 917 LINE",
"476 917 LINE",
"551 832 LINE",
"509 811 LINE",
"441 874 LINE",
"347 811 LINE"
);
},
{
closed = 1;
nodes = (
"175 710 LINE",
"620 710 LINE",
"607 648 LINE",
"231 648 LINE",
"176 392 LINE",
"504 392 LINE",
"492 333 LINE",
"164 333 LINE",
"106 62 LINE",
"491 62 LINE",
"478 0 LINE",
"24 0 LINE"
);
}
);
width = 582;
}
);
leftKerningGroup = B;
note = Ecircumflex;
rightKerningGroup = AE;
unicode = 00CA;
},
{
glyphname = Edieresis;
layers = (
{
layerId = "DC6C2CDD-F679-463F-ABCE-FDFA3FC576E2";
name = "Regular Italic";
paths = (
{
closed = 1;
nodes = (
"320 820 LINE",
"341 914 LINE",
"399 914 LINE",
"378 820 LINE"
);
},
{
closed = 1;
nodes = (
"464 820 LINE",
"484 914 LINE",
"541 914 LINE",
"522 820 LINE"
);
},
{
closed = 1;
nodes = (
"175 710 LINE",
"620 710 LINE",
"607 648 LINE",
"231 648 LINE",
"176 392 LINE",
"504 392 LINE",
"492 333 LINE",
"164 333 LINE",
"106 62 LINE",
"491 62 LINE",
"478 0 LINE",
"24 0 LINE"
);
}
);
width = 582;
}
);
leftKerningGroup = B;
note = Edieresis;
rightKerningGroup = AE;
unicode = 00CB;
},
{
glyphname = Edotaccent;
layers = (
{
layerId = "DC6C2CDD-F679-463F-ABCE-FDFA3FC576E2";
name = "Regular Italic";
paths = (
{
closed = 1;
nodes = (
"175 710 LINE",
"620 710 LINE",
"607 648 LINE",
"231 648 LINE",
"176 392 LINE",
"504 392 LINE",
"492 333 LINE",
"164 333 LINE",
"106 62 LINE",
"491 62 LINE",
"478 0 LINE",
"24 0 LINE"
);
},
{
closed = 1;
nodes = (
"392 820 LINE",
"413 917 LINE",
"475 917 LINE",
"454 820 LINE"
);
}
);
width = 582;
}
);
leftKerningGroup = B;
note = Edotaccent;
rightKerningGroup = AE;
unicode = 0116;
},
{
glyphname = Egrave;
layers = (
{
layerId = "DC6C2CDD-F679-463F-ABCE-FDFA3FC576E2";
name = "Regular Italic";
paths = (
{
closed = 1;
nodes = (
"175 710 LINE",
"620 710 LINE",
"607 648 LINE",
"231 648 LINE",
"176 392 LINE",
"504 392 LINE",
"492 333 LINE",
"164 333 LINE",
"106 62 LINE",
"491 62 LINE",
"478 0 LINE",
"24 0 LINE"
);
},
{
closed = 1;
nodes = (
"356 917 LINE",
"426 917 LINE",
"464 824 LINE",
"415 807 LINE"
);
}
);
width = 582;
}
);
leftKerningGroup = B;
note = Egrave;
rightKerningGroup = AE;
unicode = 00C8;
},
{
glyphname = Emacron;
layers = (
{
layerId = "DC6C2CDD-F679-463F-ABCE-FDFA3FC576E2";
name = "Regular Italic";
paths = (
{
closed = 1;
nodes = (
"175 710 LINE",
"620 710 LINE",
"607 648 LINE",
"231 648 LINE",
"176 392 LINE",
"504 392 LINE",
"492 333 LINE",
"164 333 LINE",
"106 62 LINE",
"491 62 LINE",
"478 0 LINE",
"24 0 LINE"
);
},
{
closed = 1;
nodes = (
"289 849 LINE",
"299 896 LINE",
"574 896 LINE",
"564 849 LINE"
);
}
);
width = 582;
}
);
leftKerningGroup = B;
note = Emacron;
rightKerningGroup = AE;
unicode = 0112;
},
{
glyphname = Eng;
layers = (
{
layerId = "DC6C2CDD-F679-463F-ABCE-FDFA3FC576E2";
name = "Regular Italic";
paths = (
{
closed = 1;
nodes = (
"355 -181 OFFCURVE",
"319 -170 OFFCURVE",
"296 -142 CURVE",
"339 -96 LINE",
"354 -115 OFFCURVE",
"378 -120 OFFCURVE",
"402 -120 CURVE SMOOTH",
"423 -120 OFFCURVE",
"448 -110 OFFCURVE",
"468 -93 CURVE SMOOTH",
"488 -77 OFFCURVE",
"504 -54 OFFCURVE",
"509 -27 CURVE",
"517 9 LINE",
"216 579 LINE",
"93 0 LINE",
"24 0 LINE",
"175 710 LINE",
"228 710 LINE",
"539 122 LINE",
"664 709 LINE",
"734 709 LINE",
"578 -25 LINE SMOOTH",
"567 -72 OFFCURVE",
"542 -110 OFFCURVE",
"508 -137 CURVE SMOOTH",
"474 -165 OFFCURVE",
"433 -181 OFFCURVE",
"396 -181 CURVE SMOOTH"
);
}
);
width = 736;
}
);
leftKerningGroup = B;
note = Eng;
rightKerningGroup = Eng;
unicode = 014A;
},
{
glyphname = Eogonek;
layers = (
{
layerId = "DC6C2CDD-F679-463F-ABCE-FDFA3FC576E2";
name = "Regular Italic";
paths = (
{
closed = 1;
nodes = (
"175 710 LINE",
"620 710 LINE",
"607 648 LINE",
"231 648 LINE",
"176 392 LINE",
"504 392 LINE",
"492 333 LINE",
"164 333 LINE",
"106 62 LINE",
"491 62 LINE",
"478 0 LINE",
"282 0 LINE",
"245 -21 OFFCURVE",
"220 -40 OFFCURVE",
"205 -55 CURVE SMOOTH",
"190 -70 OFFCURVE",
"183 -86 OFFCURVE",
"183 -101 CURVE SMOOTH",
"183 -121 OFFCURVE",
"197 -133 OFFCURVE",
"225 -137 CURVE",
"199 -175 LINE",
"159 -166 OFFCURVE",
"139 -143 OFFCURVE",
"139 -114 CURVE SMOOTH",
"139 -77 OFFCURVE",
"167 -43 OFFCURVE",
"234 0 CURVE",
"24 0 LINE"
);
}
);
width = 582;
}
);
leftKerningGroup = B;
note = Eogonek;
rightKerningGroup = AE;
unicode = 0118;
},
{
glyphname = Eth;
layers = (
{
layerId = "DC6C2CDD-F679-463F-ABCE-FDFA3FC576E2";
name = "Regular Italic";
paths = (
{
closed = 1;
nodes = (
"55 384 LINE",
"112 384 LINE",
"182 710 LINE",
"412 710 LINE SMOOTH",
"500 710 OFFCURVE",
"565 680 OFFCURVE",
"608 631 CURVE SMOOTH",
"651 582 OFFCURVE",
"671 514 OFFCURVE",
"671 438 CURVE SMOOTH",
"671 313 OFFCURVE",
"627 203 OFFCURVE",
"554 125 CURVE SMOOTH",
"481 47 OFFCURVE",
"378 0 OFFCURVE",
"261 0 CURVE SMOOTH",
"31 0 LINE",
"101 330 LINE",
"43 330 LINE"
);
},
{
closed = 1;
nodes = (
"274 62 LINE SMOOTH",
"374 62 OFFCURVE",
"456 105 OFFCURVE",
"512 173 CURVE SMOOTH",
"568 240 OFFCURVE",
"599 331 OFFCURVE",
"599 427 CURVE SMOOTH",
"599 491 OFFCURVE",
"583 547 OFFCURVE",
"549 586 CURVE SMOOTH",
"515 625 OFFCURVE",
"465 648 OFFCURVE",
"398 648 CURVE SMOOTH",
"238 648 LINE",
"181 384 LINE",
"342 384 LINE",
"331 330 LINE",
"170 330 LINE",
"113 62 LINE"
);
}
);
width = 697;
}
);
leftKerningGroup = B;
note = Eth;
rightKerningGroup = D;
unicode = 00D0;
},
{
glyphname = Etilde;
layers = (
{
layerId = "DC6C2CDD-F679-463F-ABCE-FDFA3FC576E2";
name = "Regular Italic";
paths = (
{
closed = 1;
nodes = (
"175 710 LINE",
"620 710 LINE",
"607 648 LINE",
"231 648 LINE",
"176 392 LINE",
"504 392 LINE",
"492 333 LINE",
"164 333 LINE",
"106 62 LINE",
"491 62 LINE",
"478 0 LINE",
"24 0 LINE"
);
},
{
closed = 1;
nodes = (
"446 825 OFFCURVE",
"428 835 OFFCURVE",
"412 845 CURVE SMOOTH",
"396 855 OFFCURVE",
"381 865 OFFCURVE",
"361 865 CURVE SMOOTH",
"341 865 OFFCURVE",
"326 854 OFFCURVE",
"318 843 CURVE",
"313 837 OFFCURVE",
"310 832 OFFCURVE",
"308 827 CURVE",
"305 822 OFFCURVE",
"304 818 OFFCURVE",
"304 817 CURVE",
"262 817 LINE",
"263 824 OFFCURVE",
"273 848 OFFCURVE",
"290 869 CURVE SMOOTH",
"307 890 OFFCURVE",
"334 910 OFFCURVE",
"370 910 CURVE SMOOTH",
"397 910 OFFCURVE",
"413 900 OFFCURVE",
"429 889 CURVE SMOOTH",
"445 878 OFFCURVE",
"459 868 OFFCURVE",
"483 868 CURVE SMOOTH",
"507 868 OFFCURVE",
"524 879 OFFCURVE",
"533 891 CURVE",
"538 897 OFFCURVE",
"541 903 OFFCURVE",
"544 908 CURVE",
"546 913 OFFCURVE",
"547 916 OFFCURVE",
"547 917 CURVE",
"589 917 LINE",
"588 914 OFFCURVE",
"586 907 OFFCURVE",
"581 897 CURVE",
"572 877 OFFCURVE",
"553 854 OFFCURVE",
"525 838 CURVE",
"511 829 OFFCURVE",
"494 825 OFFCURVE",
"474 825 CURVE SMOOTH"
);
}
);
width = 582;
}
);
leftKerningGroup = B;
note = Etilde;
rightKerningGroup = AE;
unicode = 1EBC;
},
{
glyphname = Euro;
layers = (
{
layerId = "DC6C2CDD-F679-463F-ABCE-FDFA3FC576E2";
name = "Regular Italic";
paths = (
{
closed = 1;
nodes = (
"155 416 LINE",
"180 493 OFFCURVE",
"231 568 OFFCURVE",
"297 623 CURVE SMOOTH",
"363 678 OFFCURVE",
"446 714 OFFCURVE",
"539 714 CURVE SMOOTH",
"660 714 OFFCURVE",
"733 651 OFFCURVE",
"756 559 CURVE",
"693 525 LINE",
"681 572 OFFCURVE",
"657 603 OFFCURVE",
"626 623 CURVE SMOOTH",
"595 643 OFFCURVE",
"558 651 OFFCURVE",
"522 651 CURVE SMOOTH",
"451 651 OFFCURVE",
"389 623 OFFCURVE",
"338 580 CURVE SMOOTH",
"287 537 OFFCURVE",
"249 477 OFFCURVE",
"226 416 CURVE",
"547 416 LINE",
"520 373 LINE",
"213 373 LINE",
"208 352 OFFCURVE",
"205 332 OFFCURVE",
"204 311 CURVE",
"490 311 LINE",
"463 268 LINE",
"205 268 LINE",
"210 209 OFFCURVE",
"231 157 OFFCURVE",
"264 119 CURVE SMOOTH",
"296 81 OFFCURVE",
"342 57 OFFCURVE",
"398 57 CURVE SMOOTH",
"435 57 OFFCURVE",
"479 67 OFFCURVE",
"520 89 CURVE SMOOTH",
"561 111 OFFCURVE",
"601 142 OFFCURVE",
"633 189 CURVE",
"684 159 LINE",
"651 106 OFFCURVE",
"602 65 OFFCURVE",
"547 37 CURVE SMOOTH",
"492 9 OFFCURVE",
"433 -6 OFFCURVE",
"381 -6 CURVE SMOOTH",
"306 -6 OFFCURVE",
"248 26 OFFCURVE",
"206 77 CURVE SMOOTH",
"164 128 OFFCURVE",
"139 196 OFFCURVE",
"135 268 CURVE",
"26 268 LINE",
"54 311 LINE",
"134 311 LINE",
"135 332 OFFCURVE",
"138 352 OFFCURVE",
"143 373 CURVE",
"75 373 LINE",
"102 416 LINE"
);
}
);
width = 763;
}
);
note = Euro;
rightKerningGroup = acute;
unicode = 20AC;
},
{
glyphname = F;
layers = (
{
layerId = "DC6C2CDD-F679-463F-ABCE-FDFA3FC576E2";
name = "Regular Italic";
paths = (
{
closed = 1;
nodes = (
"175 710 LINE",
"617 710 LINE",
"604 648 LINE",
"231 648 LINE",
"176 387 LINE",
"491 387 LINE",
"478 329 LINE",
"163 329 LINE",
"93 0 LINE",
"24 0 LINE"
);
}
);
width = 572;
}
);
leftKerningGroup = B;
note = F;
rightKerningGroup = F;
unicode = 0046;
},
{
glyphname = F.sc;
layers = (
{
layerId = "DC6C2CDD-F679-463F-ABCE-FDFA3FC576E2";
name = "Regular Italic";
paths = (
{
closed = 1;
nodes = (
"135 548 LINE",
"509 548 LINE",
"497 492 LINE",
"185 492 LINE",
"145 302 LINE",
"409 302 LINE",
"397 248 LINE",
"133 248 LINE",
"81 0 LINE",
"18 0 LINE"
);
}
);
width = 498;
}
);
leftKerningGroup = B.sc;
note = F.sc;
rightKerningGroup = F.sc;
},
{
glyphname = G;
layers = (
{
layerId = "DC6C2CDD-F679-463F-ABCE-FDFA3FC576E2";
name = "Regular Italic";
paths = (
{
closed = 1;
nodes = (
"532 103 LINE",
"455 31 OFFCURVE",
"376 -5 OFFCURVE",
"295 -5 CURVE SMOOTH",
"218 -5 OFFCURVE",
"156 30 OFFCURVE",
"113 86 CURVE SMOOTH",
"70 141 OFFCURVE",
"47 215 OFFCURVE",
"47 292 CURVE SMOOTH",
"47 399 OFFCURVE",
"95 504 OFFCURVE",
"169 584 CURVE SMOOTH",
"243 663 OFFCURVE",
"341 715 OFFCURVE",
"445 715 CURVE SMOOTH",
"510 715 OFFCURVE",
"561 699 OFFCURVE",
"598 672 CURVE SMOOTH",
"635 644 OFFCURVE",
"658 605 OFFCURVE",
"670 560 CURVE",
"608 524 LINE",
"584 612 OFFCURVE",
"519 652 OFFCURVE",
"430 652 CURVE SMOOTH",
"345 652 OFFCURVE",
"266 606 OFFCURVE",
"210 538 CURVE SMOOTH",
"153 470 OFFCURVE",
"117 381 OFFCURVE",
"117 296 CURVE SMOOTH",
"117 231 OFFCURVE",
"137 172 OFFCURVE",
"171 129 CURVE SMOOTH",
"205 85 OFFCURVE",
"253 58 OFFCURVE",
"313 58 CURVE SMOOTH",
"389 58 OFFCURVE",
"466 95 OFFCURVE",
"547 176 CURVE",
"573 295 LINE",
"425 295 LINE",
"436 349 LINE",
"644 349 LINE",
"570 0 LINE",
"510 0 LINE"
);
}
);
width = 687;
}
);
leftKerningGroup = C;
note = G;
rightKerningGroup = G;
unicode = 0047;
},
{
glyphname = G.alt;
layers = (
{
layerId = "DC6C2CDD-F679-463F-ABCE-FDFA3FC576E2";
name = "Regular Italic";
paths = (
{
closed = 1;
nodes = (
"220 -5 OFFCURVE",
"157 31 OFFCURVE",
"114 85 CURVE SMOOTH",
"70 139 OFFCURVE",
"47 213 OFFCURVE",
"47 290 CURVE SMOOTH",
"47 397 OFFCURVE",
"94 503 OFFCURVE",
"169 583 CURVE SMOOTH",
"244 662 OFFCURVE",
"345 715 OFFCURVE",
"452 715 CURVE SMOOTH",
"565 715 OFFCURVE",
"643 654 OFFCURVE",
"676 562 CURVE",
"613 517 LINE",
"601 550 OFFCURVE",
"581 585 OFFCURVE",
"552 610 CURVE SMOOTH",
"523 635 OFFCURVE",
"483 652 OFFCURVE",
"435 652 CURVE SMOOTH",
"348 652 OFFCURVE",
"269 605 OFFCURVE",
"211 537 CURVE SMOOTH",
"153 469 OFFCURVE",
"117 379 OFFCURVE",
"117 295 CURVE SMOOTH",
"117 234 OFFCURVE",
"134 174 OFFCURVE",
"166 130 CURVE SMOOTH",
"198 86 OFFCURVE",
"246 58 OFFCURVE",
"309 58 CURVE SMOOTH",
"373 58 OFFCURVE",
"434 85 OFFCURVE",
"484 128 CURVE SMOOTH",
"534 171 OFFCURVE",
"574 227 OFFCURVE",
"595 286 CURVE",
"400 286 LINE",
"414 349 LINE",
"684 349 LINE",
"674 311 LINE SMOOTH",
"651 227 OFFCURVE",
"602 148 OFFCURVE",
"535 90 CURVE SMOOTH",
"468 32 OFFCURVE",
"385 -5 OFFCURVE",
"300 -5 CURVE SMOOTH"
);
}
);
width = 701;
}
);
leftKerningGroup = C;
note = G.alt;
rightKerningGroup = G.alt;
},
{
glyphname = G.sc;
layers = (
{
layerId = "DC6C2CDD-F679-463F-ABCE-FDFA3FC576E2";
name = "Regular Italic";
paths = (
{
closed = 1;
nodes = (
"439 76 LINE",
"377 23 OFFCURVE",
"312 -4 OFFCURVE",
"245 -4 CURVE SMOOTH",
"180 -4 OFFCURVE",
"127 24 OFFCURVE",
"91 67 CURVE SMOOTH",
"54 110 OFFCURVE",
"34 169 OFFCURVE",
"34 229 CURVE SMOOTH",
"34 312 OFFCURVE",
"73 392 OFFCURVE",
"133 452 CURVE SMOOTH",
"193 512 OFFCURVE",
"275 551 OFFCURVE",
"362 551 CURVE SMOOTH",
"471 551 OFFCURVE",
"529 503 OFFCURVE",
"552 432 CURVE",
"496 399 LINE",
"476 466 OFFCURVE",
"420 495 OFFCURVE",
"348 495 CURVE SMOOTH",
"279 495 OFFCURVE",
"215 462 OFFCURVE",
"170 412 CURVE SMOOTH",
"125 362 OFFCURVE",
"97 297 OFFCURVE",
"97 233 CURVE SMOOTH",
"97 184 OFFCURVE",
"113 138 OFFCURVE",
"142 106 CURVE SMOOTH",
"170 73 OFFCURVE",
"212 53 OFFCURVE",
"261 53 CURVE SMOOTH",
"325 53 OFFCURVE",
"388 81 OFFCURVE",
"453 142 CURVE",
"471 223 LINE",
"347 223 LINE",
"356 271 LINE",
"534 271 LINE",
"477 0 LINE",
"423 0 LINE"
);
}
);
width = 593;
}
);
leftKerningGroup = C.sc;
note = G.sc;
rightKerningGroup = G.sc;
},
{
glyphname = Gbreve;
layers = (
{
layerId = "DC6C2CDD-F679-463F-ABCE-FDFA3FC576E2";
name = "Regular Italic";
paths = (
{
closed = 1;
nodes = (
"532 103 LINE",
"455 31 OFFCURVE",
"376 -5 OFFCURVE",
"295 -5 CURVE SMOOTH",
"218 -5 OFFCURVE",
"156 30 OFFCURVE",
"113 86 CURVE SMOOTH",
"70 141 OFFCURVE",
"47 215 OFFCURVE",
"47 292 CURVE SMOOTH",
"47 399 OFFCURVE",
"95 504 OFFCURVE",
"169 584 CURVE SMOOTH",
"243 663 OFFCURVE",
"341 715 OFFCURVE",
"445 715 CURVE SMOOTH",
"510 715 OFFCURVE",
"561 699 OFFCURVE",
"598 672 CURVE SMOOTH",
"635 644 OFFCURVE",
"658 605 OFFCURVE",
"670 560 CURVE",
"608 524 LINE",
"584 612 OFFCURVE",
"519 652 OFFCURVE",
"430 652 CURVE SMOOTH",
"345 652 OFFCURVE",
"266 606 OFFCURVE",
"210 538 CURVE SMOOTH",
"153 470 OFFCURVE",
"117 381 OFFCURVE",
"117 296 CURVE SMOOTH",
"117 231 OFFCURVE",
"137 172 OFFCURVE",
"171 129 CURVE SMOOTH",
"205 85 OFFCURVE",
"253 58 OFFCURVE",
"313 58 CURVE SMOOTH",
"389 58 OFFCURVE",
"466 95 OFFCURVE",
"547 176 CURVE",
"573 295 LINE",
"425 295 LINE",
"436 349 LINE",
"644 349 LINE",
"570 0 LINE",
"510 0 LINE"
);
},
{
closed = 1;
nodes = (
"494 851 OFFCURVE",
"524 880 OFFCURVE",
"536 917 CURVE",
"576 917 LINE",
"569 889 OFFCURVE",
"554 864 OFFCURVE",
"534 846 CURVE SMOOTH",
"513 828 OFFCURVE",
"487 816 OFFCURVE",
"460 816 CURVE SMOOTH",
"413 816 OFFCURVE",
"383 849 OFFCURVE",
"383 894 CURVE SMOOTH",
"383 901 OFFCURVE",
"384 909 OFFCURVE",
"386 917 CURVE",
"428 917 LINE",
"427 910 OFFCURVE",
"426 905 OFFCURVE",
"426 902 CURVE SMOOTH",
"426 874 OFFCURVE",
"443 851 OFFCURVE",
"467 851 CURVE SMOOTH"
);
}
);
width = 687;
}
);
leftKerningGroup = C;
note = Gbreve;
rightKerningGroup = G;
unicode = 011E;
},
{
glyphname = Gcircumflex;
layers = (
{
layerId = "DC6C2CDD-F679-463F-ABCE-FDFA3FC576E2";
name = "Regular Italic";
paths = (
{
closed = 1;
nodes = (
"351 832 LINE",
"464 917 LINE",
"514 917 LINE",
"589 832 LINE",
"547 811 LINE",
"479 874 LINE",
"385 811 LINE"
);
},
{
closed = 1;
nodes = (
"532 103 LINE",
"455 31 OFFCURVE",
"376 -5 OFFCURVE",
"295 -5 CURVE SMOOTH",
"218 -5 OFFCURVE",
"156 30 OFFCURVE",
"113 86 CURVE SMOOTH",
"70 141 OFFCURVE",
"47 215 OFFCURVE",
"47 292 CURVE SMOOTH",
"47 399 OFFCURVE",
"95 504 OFFCURVE",
"169 584 CURVE SMOOTH",
"243 663 OFFCURVE",
"341 715 OFFCURVE",
"445 715 CURVE SMOOTH",
"510 715 OFFCURVE",
"561 699 OFFCURVE",
"598 672 CURVE SMOOTH",
"635 644 OFFCURVE",
"658 605 OFFCURVE",
"670 560 CURVE",
"608 524 LINE",
"584 612 OFFCURVE",
"519 652 OFFCURVE",
"430 652 CURVE SMOOTH",
"345 652 OFFCURVE",
"266 606 OFFCURVE",
"210 538 CURVE SMOOTH",
"153 470 OFFCURVE",
"117 381 OFFCURVE",
"117 296 CURVE SMOOTH",
"117 231 OFFCURVE",
"137 172 OFFCURVE",
"171 129 CURVE SMOOTH",
"205 85 OFFCURVE",
"253 58 OFFCURVE",
"313 58 CURVE SMOOTH",
"389 58 OFFCURVE",
"466 95 OFFCURVE",
"547 176 CURVE",
"573 295 LINE",
"425 295 LINE",
"436 349 LINE",
"644 349 LINE",
"570 0 LINE",
"510 0 LINE"
);
}
);
width = 687;
}
);
leftKerningGroup = C;
note = Gcircumflex;
rightKerningGroup = G;
unicode = 011C;
},
{
glyphname = Gcommaaccent;
layers = (
{
layerId = "DC6C2CDD-F679-463F-ABCE-FDFA3FC576E2";
name = "Regular Italic";
paths = (
{
closed = 1;
nodes = (
"225 -199 LINE",
"257 -125 LINE",
"237 -125 LINE",
"254 -49 LINE",
"315 -49 LINE",
"299 -125 LINE",
"259 -199 LINE"
);
},
{
closed = 1;
nodes = (
"532 103 LINE",
"455 31 OFFCURVE",
"376 -5 OFFCURVE",
"295 -5 CURVE SMOOTH",
"218 -5 OFFCURVE",
"156 30 OFFCURVE",
"113 86 CURVE SMOOTH",
"70 141 OFFCURVE",
"47 215 OFFCURVE",
"47 292 CURVE SMOOTH",
"47 399 OFFCURVE",
"95 504 OFFCURVE",
"169 584 CURVE SMOOTH",
"243 663 OFFCURVE",
"341 715 OFFCURVE",
"445 715 CURVE SMOOTH",
"510 715 OFFCURVE",
"561 699 OFFCURVE",
"598 672 CURVE SMOOTH",
"635 644 OFFCURVE",
"658 605 OFFCURVE",
"670 560 CURVE",
"608 524 LINE",
"584 612 OFFCURVE",
"519 652 OFFCURVE",
"430 652 CURVE SMOOTH",
"345 652 OFFCURVE",
"266 606 OFFCURVE",
"210 538 CURVE SMOOTH",
"153 470 OFFCURVE",
"117 381 OFFCURVE",
"117 296 CURVE SMOOTH",
"117 231 OFFCURVE",
"137 172 OFFCURVE",
"171 129 CURVE SMOOTH",
"205 85 OFFCURVE",
"253 58 OFFCURVE",
"313 58 CURVE SMOOTH",
"389 58 OFFCURVE",
"466 95 OFFCURVE",
"547 176 CURVE",
"573 295 LINE",
"425 295 LINE",
"436 349 LINE",
"644 349 LINE",
"570 0 LINE",
"510 0 LINE"
);
}
);
width = 687;
}
);
leftKerningGroup = C;
note = Gcommaaccent;
rightKerningGroup = G;
unicode = 0122;
},
{
glyphname = commaaccent;
layers = (
{
layerId = "DC6C2CDD-F679-463F-ABCE-FDFA3FC576E2";
name = "Regular Italic";
paths = (
{
closed = 1;
nodes = (
"16 -199 LINE",
"48 -125 LINE",
"28 -125 LINE",
"45 -49 LINE",
"106 -49 LINE",
"90 -125 LINE",
"50 -199 LINE"
);
}
);
width = 149;
}
);
note = commaaccent;
rightKerningGroup = acute;
unicode = F6C3;
},
{
glyphname = Gdotaccent;
layers = (
{
layerId = "DC6C2CDD-F679-463F-ABCE-FDFA3FC576E2";
name = "Regular Italic";
paths = (
{
closed = 1;
nodes = (
"532 103 LINE",
"455 31 OFFCURVE",
"376 -5 OFFCURVE",
"295 -5 CURVE SMOOTH",
"218 -5 OFFCURVE",
"156 30 OFFCURVE",
"113 86 CURVE SMOOTH",
"70 141 OFFCURVE",
"47 215 OFFCURVE",
"47 292 CURVE SMOOTH",
"47 399 OFFCURVE",
"95 504 OFFCURVE",
"169 584 CURVE SMOOTH",
"243 663 OFFCURVE",
"341 715 OFFCURVE",
"445 715 CURVE SMOOTH",
"510 715 OFFCURVE",
"561 699 OFFCURVE",
"598 672 CURVE SMOOTH",
"635 644 OFFCURVE",
"658 605 OFFCURVE",
"670 560 CURVE",
"608 524 LINE",
"584 612 OFFCURVE",
"519 652 OFFCURVE",
"430 652 CURVE SMOOTH",
"345 652 OFFCURVE",
"266 606 OFFCURVE",
"210 538 CURVE SMOOTH",
"153 470 OFFCURVE",
"117 381 OFFCURVE",
"117 296 CURVE SMOOTH",
"117 231 OFFCURVE",
"137 172 OFFCURVE",
"171 129 CURVE SMOOTH",
"205 85 OFFCURVE",
"253 58 OFFCURVE",
"313 58 CURVE SMOOTH",
"389 58 OFFCURVE",
"466 95 OFFCURVE",
"547 176 CURVE",
"573 295 LINE",
"425 295 LINE",
"436 349 LINE",
"644 349 LINE",
"570 0 LINE",
"510 0 LINE"
);
},
{
closed = 1;
nodes = (
"440 820 LINE",
"461 917 LINE",
"523 917 LINE",
"502 820 LINE"
);
}
);
width = 687;
}
);
leftKerningGroup = C;
note = Gdotaccent;
rightKerningGroup = G;
unicode = 0120;
},
{
glyphname = H;
layers = (
{
layerId = "DC6C2CDD-F679-463F-ABCE-FDFA3FC576E2";
name = "Regular Italic";
paths = (
{
closed = 1;
nodes = (
"175 710 LINE",
"244 710 LINE",
"177 394 LINE",
"572 394 LINE",
"639 710 LINE",
"709 710 LINE",
"558 0 LINE",
"488 0 LINE",
"559 332 LINE",
"164 332 LINE",
"93 0 LINE",
"24 0 LINE"
);
}
);
width = 709;
}
);
leftKerningGroup = B;
note = H;
rightKerningGroup = Eng;
unicode = 0048;
},
{
glyphname = H.sc;
layers = (
{
layerId = "DC6C2CDD-F679-463F-ABCE-FDFA3FC576E2";
name = "Regular Italic";
paths = (
{
closed = 1;
nodes = (
"135 548 LINE",
"197 548 LINE",
"146 309 LINE",
"475 309 LINE",
"525 548 LINE",
"587 548 LINE",
"471 0 LINE",
"409 0 LINE",
"462 252 LINE",
"134 252 LINE",
"81 0 LINE",
"18 0 LINE"
);
}
);
width = 617;
}
);
leftKerningGroup = B.sc;
note = H.sc;
rightKerningGroup = H.sc;
},
{
glyphname = Hbar;
layers = (
{
layerId = "DC6C2CDD-F679-463F-ABCE-FDFA3FC576E2";
name = "Regular Italic";
paths = (
{
closed = 1;
nodes = (
"107 589 LINE",
"154 589 LINE",
"180 710 LINE",
"250 710 LINE",
"224 589 LINE",
"619 589 LINE",
"645 710 LINE",
"714 710 LINE",
"688 589 LINE",
"736 589 LINE",
"727 550 LINE",
"680 550 LINE",
"563 0 LINE",
"494 0 LINE",
"564 332 LINE",
"169 332 LINE",
"99 0 LINE",
"29 0 LINE",
"146 550 LINE",
"99 550 LINE"
);
},
{
closed = 1;
nodes = (
"578 394 LINE",
"611 550 LINE",
"216 550 LINE",
"183 394 LINE"
);
}
);
width = 719;
}
);
leftKerningGroup = B;
note = Hbar;
rightKerningGroup = Eng;
unicode = 0126;
},
{
glyphname = Hcircumflex;
layers = (
{
layerId = "DC6C2CDD-F679-463F-ABCE-FDFA3FC576E2";
name = "Regular Italic";
paths = (
{
closed = 1;
nodes = (
"346 832 LINE",
"459 917 LINE",
"509 917 LINE",
"584 832 LINE",
"542 811 LINE",
"474 874 LINE",
"380 811 LINE"
);
},
{
closed = 1;
nodes = (
"175 710 LINE",
"244 710 LINE",
"177 394 LINE",
"572 394 LINE",
"639 710 LINE",
"709 710 LINE",
"558 0 LINE",
"488 0 LINE",
"559 332 LINE",
"164 332 LINE",
"93 0 LINE",
"24 0 LINE"
);
}
);
width = 709;
}
);
leftKerningGroup = B;
note = Hcircumflex;
rightKerningGroup = Eng;
unicode = 0124;
},
{
glyphname = I;
layers = (
{
layerId = "DC6C2CDD-F679-463F-ABCE-FDFA3FC576E2";
name = "Regular Italic";
paths = (
{
closed = 1;
nodes = (
"175 709 LINE",
"244 709 LINE",
"93 0 LINE",
"24 0 LINE"
);
}
);
width = 245;
}
);
leftKerningGroup = B;
note = I;
rightKerningGroup = Eng;
unicode = 0049;
},
{
glyphname = I.sc;
layers = (
{
layerId = "DC6C2CDD-F679-463F-ABCE-FDFA3FC576E2";
name = "Regular Italic";
paths = (
{
closed = 1;
nodes = (
"135 547 LINE",
"197 547 LINE",
"81 0 LINE",
"18 0 LINE"
);
}
);
width = 226;
}
);
leftKerningGroup = B.sc;
note = I.sc;
rightKerningGroup = H.sc;
},
{
glyphname = IJ;
layers = (
{
layerId = "DC6C2CDD-F679-463F-ABCE-FDFA3FC576E2";
name = "Regular Italic";
paths = (
{
closed = 1;
nodes = (
"175 709 LINE",
"244 709 LINE",
"93 0 LINE",
"24 0 LINE"
);
},
{
closed = 1;
nodes = (
"288 -11 OFFCURVE",
"243 4 OFFCURVE",
"208 33 CURVE",
"239 89 LINE",
"262 69 OFFCURVE",
"303 52 OFFCURVE",
"358 52 CURVE SMOOTH",
"426 52 OFFCURVE",
"470 78 OFFCURVE",
"502 129 CURVE SMOOTH",
"534 180 OFFCURVE",
"554 254 OFFCURVE",
"574 349 CURVE SMOOTH",
"651 709 LINE",
"721 709 LINE",
"644 349 LINE SMOOTH",
"621 241 OFFCURVE",
"596 151 OFFCURVE",
"552 88 CURVE SMOOTH",
"507 25 OFFCURVE",
"444 -11 OFFCURVE",
"345 -11 CURVE SMOOTH"
);
}
);
width = 713;
}
);
leftKerningGroup = B;
note = IJ;
rightKerningGroup = IJ;
unicode = 0132;
},
{
glyphname = J;
layers = (
{
layerId = "DC6C2CDD-F679-463F-ABCE-FDFA3FC576E2";
name = "Regular Italic";
paths = (
{
closed = 1;
nodes = (
"43 -11 OFFCURVE",
"-2 4 OFFCURVE",
"-37 33 CURVE",
"-6 89 LINE",
"17 69 OFFCURVE",
"58 52 OFFCURVE",
"113 52 CURVE SMOOTH",
"181 52 OFFCURVE",
"225 78 OFFCURVE",
"257 129 CURVE SMOOTH",
"289 180 OFFCURVE",
"309 254 OFFCURVE",
"329 349 CURVE SMOOTH",
"406 709 LINE",
"476 709 LINE",
"399 349 LINE SMOOTH",
"376 241 OFFCURVE",
"351 151 OFFCURVE",
"307 88 CURVE SMOOTH",
"262 25 OFFCURVE",
"199 -11 OFFCURVE",
"100 -11 CURVE SMOOTH"
);
}
);
width = 468;
}
);
leftKerningGroup = J;
note = J;
rightKerningGroup = IJ;
unicode = 004A;
},
{
glyphname = Iacute;
layers = (
{
layerId = "DC6C2CDD-F679-463F-ABCE-FDFA3FC576E2";
name = "Regular Italic";
paths = (
{
closed = 1;
nodes = (
"175 709 LINE",
"244 709 LINE",
"93 0 LINE",
"24 0 LINE"
);
},
{
closed = 1;
nodes = (
"223 807 LINE",
"181 824 LINE",
"257 917 LINE",
"328 917 LINE"
);
}
);
width = 245;
}
);
leftKerningGroup = B;
note = Iacute;
rightKerningGroup = Eng;
unicode = 00CD;
},
{
glyphname = Ibreve;
layers = (
{
layerId = "DC6C2CDD-F679-463F-ABCE-FDFA3FC576E2";
name = "Regular Italic";
paths = (
{
closed = 1;
nodes = (
"175 709 LINE",
"244 709 LINE",
"93 0 LINE",
"24 0 LINE"
);
},
{
closed = 1;
nodes = (
"254 851 OFFCURVE",
"284 880 OFFCURVE",
"296 917 CURVE",
"336 917 LINE",
"329 889 OFFCURVE",
"314 864 OFFCURVE",
"294 846 CURVE SMOOTH",
"273 828 OFFCURVE",
"247 816 OFFCURVE",
"220 816 CURVE SMOOTH",
"173 816 OFFCURVE",
"143 849 OFFCURVE",
"143 894 CURVE SMOOTH",
"143 901 OFFCURVE",
"144 909 OFFCURVE",
"146 917 CURVE",
"188 917 LINE",
"187 910 OFFCURVE",
"186 905 OFFCURVE",
"186 902 CURVE SMOOTH",
"186 874 OFFCURVE",
"203 851 OFFCURVE",
"227 851 CURVE SMOOTH"
);
}
);
width = 245;
}
);
leftKerningGroup = B;
note = Ibreve;
rightKerningGroup = Eng;
unicode = 012C;
},
{
glyphname = Icircumflex;
layers = (
{
layerId = "DC6C2CDD-F679-463F-ABCE-FDFA3FC576E2";
name = "Regular Italic";
paths = (
{
closed = 1;
nodes = (
"175 709 LINE",
"244 709 LINE",
"93 0 LINE",
"24 0 LINE"
);
},
{
closed = 1;
nodes = (
"115 832 LINE",
"228 917 LINE",
"278 917 LINE",
"353 832 LINE",
"311 811 LINE",
"243 874 LINE",
"149 811 LINE"
);
}
);
width = 245;
}
);
leftKerningGroup = B;
note = Icircumflex;
rightKerningGroup = Eng;
unicode = 00CE;
},
{
glyphname = Idieresis;
layers = (
{
layerId = "DC6C2CDD-F679-463F-ABCE-FDFA3FC576E2";
name = "Regular Italic";
paths = (
{
closed = 1;
nodes = (
"175 709 LINE",
"244 709 LINE",
"93 0 LINE",
"24 0 LINE"
);
},
{
closed = 1;
nodes = (
"130 820 LINE",
"151 914 LINE",
"209 914 LINE",
"188 820 LINE"
);
},
{
closed = 1;
nodes = (
"274 820 LINE",
"294 914 LINE",
"351 914 LINE",
"332 820 LINE"
);
}
);
width = 245;
}
);
leftKerningGroup = B;
note = Idieresis;
rightKerningGroup = Eng;
unicode = 00CF;
},
{
glyphname = Idotaccent;
layers = (
{
layerId = "DC6C2CDD-F679-463F-ABCE-FDFA3FC576E2";
name = "Regular Italic";
paths = (
{
closed = 1;
nodes = (
"175 709 LINE",
"244 709 LINE",
"93 0 LINE",
"24 0 LINE"
);
},
{
closed = 1;
nodes = (
"200 820 LINE",
"221 917 LINE",
"283 917 LINE",
"262 820 LINE"
);
}
);
width = 245;
}
);
leftKerningGroup = B;
note = Idotaccent;
rightKerningGroup = Eng;
unicode = 0130;
},
{
glyphname = Igrave;
layers = (
{
layerId = "DC6C2CDD-F679-463F-ABCE-FDFA3FC576E2";
name = "Regular Italic";
paths = (
{
closed = 1;
nodes = (
"175 709 LINE",
"244 709 LINE",
"93 0 LINE",
"24 0 LINE"
);
},
{
closed = 1;
nodes = (
"163 917 LINE",
"233 917 LINE",
"271 824 LINE",
"222 807 LINE"
);
}
);
width = 245;
}
);
leftKerningGroup = B;
note = Igrave;
rightKerningGroup = Eng;
unicode = 00CC;
},
{
glyphname = Imacron;
layers = (
{
layerId = "DC6C2CDD-F679-463F-ABCE-FDFA3FC576E2";
name = "Regular Italic";
paths = (
{
closed = 1;
nodes = (
"175 709 LINE",
"244 709 LINE",
"93 0 LINE",
"24 0 LINE"
);
},
{
closed = 1;
nodes = (
"101 849 LINE",
"111 896 LINE",
"386 896 LINE",
"376 849 LINE"
);
}
);
width = 245;
}
);
leftKerningGroup = B;
note = Imacron;
rightKerningGroup = Eng;
unicode = 012A;
},
{
glyphname = Iogonek;
layers = (
{
layerId = "DC6C2CDD-F679-463F-ABCE-FDFA3FC576E2";
name = "Regular Italic";
paths = (
{
closed = 1;
nodes = (
"175 709 LINE",
"244 709 LINE",
"93 0 LINE",
"56 -21 OFFCURVE",
"31 -40 OFFCURVE",
"16 -55 CURVE SMOOTH",
"1 -70 OFFCURVE",
"-6 -86 OFFCURVE",
"-6 -101 CURVE SMOOTH",
"-6 -121 OFFCURVE",
"8 -133 OFFCURVE",
"36 -137 CURVE",
"10 -175 LINE",
"-30 -166 OFFCURVE",
"-50 -143 OFFCURVE",
"-50 -114 CURVE SMOOTH",
"-50 -77 OFFCURVE",
"-22 -43 OFFCURVE",
"45 0 CURVE",
"24 0 LINE"
);
}
);
width = 245;
}
);
leftKerningGroup = B;
note = Iogonek;
rightKerningGroup = Eng;
unicode = 012E;
},
{
glyphname = Itilde;
layers = (
{
layerId = "DC6C2CDD-F679-463F-ABCE-FDFA3FC576E2";
name = "Regular Italic";
paths = (
{
closed = 1;
nodes = (
"175 709 LINE",
"244 709 LINE",
"93 0 LINE",
"24 0 LINE"
);
},
{
closed = 1;
nodes = (
"263 825 OFFCURVE",
"245 835 OFFCURVE",
"229 845 CURVE SMOOTH",
"213 855 OFFCURVE",
"198 865 OFFCURVE",
"178 865 CURVE SMOOTH",
"158 865 OFFCURVE",
"143 854 OFFCURVE",
"135 843 CURVE",
"130 837 OFFCURVE",
"127 832 OFFCURVE",
"125 827 CURVE",
"122 822 OFFCURVE",
"121 818 OFFCURVE",
"121 817 CURVE",
"79 817 LINE",
"80 824 OFFCURVE",
"90 848 OFFCURVE",
"107 869 CURVE SMOOTH",
"124 890 OFFCURVE",
"151 910 OFFCURVE",
"187 910 CURVE SMOOTH",
"214 910 OFFCURVE",
"230 900 OFFCURVE",
"246 889 CURVE SMOOTH",
"262 878 OFFCURVE",
"276 868 OFFCURVE",
"300 868 CURVE SMOOTH",
"324 868 OFFCURVE",
"341 879 OFFCURVE",
"350 891 CURVE",
"355 897 OFFCURVE",
"358 903 OFFCURVE",
"361 908 CURVE",
"363 913 OFFCURVE",
"364 916 OFFCURVE",
"364 917 CURVE",
"406 917 LINE",
"405 914 OFFCURVE",
"403 907 OFFCURVE",
"398 897 CURVE",
"389 877 OFFCURVE",
"370 854 OFFCURVE",
"342 838 CURVE",
"328 829 OFFCURVE",
"311 825 OFFCURVE",
"291 825 CURVE SMOOTH"
);
}
);
width = 245;
}
);
leftKerningGroup = B;
note = Itilde;
rightKerningGroup = Eng;
unicode = 0128;
},
{
glyphname = J.sc;
layers = (
{
layerId = "DC6C2CDD-F679-463F-ABCE-FDFA3FC576E2";
name = "Regular Italic";
paths = (
{
closed = 1;
nodes = (
"34 -8 OFFCURVE",
"-5 3 OFFCURVE",
"-34 25 CURVE",
"-6 76 LINE",
"13 61 OFFCURVE",
"48 48 OFFCURVE",
"95 48 CURVE SMOOTH",
"151 48 OFFCURVE",
"188 68 OFFCURVE",
"213 105 CURVE SMOOTH",
"238 142 OFFCURVE",
"253 197 OFFCURVE",
"269 269 CURVE SMOOTH",
"328 547 LINE",
"391 547 LINE",
"331 269 LINE SMOOTH",
"312 185 OFFCURVE",
"293 116 OFFCURVE",
"257 68 CURVE SMOOTH",
"220 20 OFFCURVE",
"167 -8 OFFCURVE",
"83 -8 CURVE SMOOTH"
);
}
);
width = 413;
}
);
leftKerningGroup = J.sc;
note = J.sc;
rightKerningGroup = J.sc;
},
{
glyphname = Jcircumflex;
layers = (
{
layerId = "DC6C2CDD-F679-463F-ABCE-FDFA3FC576E2";
name = "Regular Italic";
paths = (
{
closed = 1;
nodes = (
"345 832 LINE",
"458 917 LINE",
"508 917 LINE",
"583 832 LINE",
"541 811 LINE",
"473 874 LINE",
"379 811 LINE"
);
},
{
closed = 1;
nodes = (
"43 -11 OFFCURVE",
"-2 4 OFFCURVE",
"-37 33 CURVE",
"-6 89 LINE",
"17 69 OFFCURVE",
"58 52 OFFCURVE",
"113 52 CURVE SMOOTH",
"181 52 OFFCURVE",
"225 78 OFFCURVE",
"257 129 CURVE SMOOTH",
"289 180 OFFCURVE",
"309 254 OFFCURVE",
"329 349 CURVE SMOOTH",
"406 709 LINE",
"476 709 LINE",
"399 349 LINE SMOOTH",
"376 241 OFFCURVE",
"351 151 OFFCURVE",
"307 88 CURVE SMOOTH",
"262 25 OFFCURVE",
"199 -11 OFFCURVE",
"100 -11 CURVE SMOOTH"
);
}
);
width = 468;
}
);
leftKerningGroup = J;
note = Jcircumflex;
rightKerningGroup = IJ;
unicode = 0134;
},
{
glyphname = K;
layers = (
{
layerId = "DC6C2CDD-F679-463F-ABCE-FDFA3FC576E2";
name = "Regular Italic";
paths = (
{
closed = 1;
nodes = (
"175 709 LINE",
"244 709 LINE",
"156 297 LINE",
"611 710 LINE",
"689 710 LINE",
"347 398 LINE",
"552 0 LINE",
"474 0 LINE",
"295 357 LINE",
"140 218 LINE",
"93 0 LINE",
"24 0 LINE"
);
}
);
width = 615;
}
);
leftKerningGroup = B;
note = K;
rightKerningGroup = K;
unicode = 004B;
},
{
glyphname = K.sc;
layers = (
{
layerId = "DC6C2CDD-F679-463F-ABCE-FDFA3FC576E2";
name = "Regular Italic";
paths = (
{
closed = 1;
nodes = (
"135 547 LINE",
"197 547 LINE",
"131 238 LINE",
"502 548 LINE",
"571 548 LINE",
"289 307 LINE",
"467 0 LINE",
"399 0 LINE",
"242 270 LINE",
"117 168 LINE",
"81 0 LINE",
"18 0 LINE"
);
}
);
width = 539;
}
);
leftKerningGroup = B.sc;
note = K.sc;
rightKerningGroup = K.sc;
},
{
glyphname = Kcommaaccent;
layers = (
{
layerId = "DC6C2CDD-F679-463F-ABCE-FDFA3FC576E2";
name = "Regular Italic";
paths = (
{
closed = 1;
nodes = (
"195 -199 LINE",
"227 -125 LINE",
"207 -125 LINE",
"224 -49 LINE",
"285 -49 LINE",
"269 -125 LINE",
"229 -199 LINE"
);
},
{
closed = 1;
nodes = (
"175 709 LINE",
"244 709 LINE",
"156 297 LINE",
"611 710 LINE",
"689 710 LINE",
"347 398 LINE",
"552 0 LINE",
"474 0 LINE",
"295 357 LINE",
"140 218 LINE",
"93 0 LINE",
"24 0 LINE"
);
}
);
width = 615;
}
);
leftKerningGroup = B;
note = Kcommaaccent;
rightKerningGroup = K;
unicode = 0136;
},
{
glyphname = L;
layers = (
{
layerId = "DC6C2CDD-F679-463F-ABCE-FDFA3FC576E2";
name = "Regular Italic";
paths = (
{
closed = 1;
nodes = (
"175 710 LINE",
"244 710 LINE",
"106 62 LINE",
"494 62 LINE",
"481 0 LINE",
"24 0 LINE"
);
}
);
width = 557;
}
);
leftKerningGroup = B;
note = L;
rightKerningGroup = L;
unicode = 004C;
},
{
glyphname = L.sc;
layers = (
{
layerId = "DC6C2CDD-F679-463F-ABCE-FDFA3FC576E2";
name = "Regular Italic";
paths = (
{
closed = 1;
nodes = (
"135 548 LINE",
"197 548 LINE",
"93 56 LINE",
"404 56 LINE",
"392 0 LINE",
"18 0 LINE"
);
}
);
width = 469;
}
);
leftKerningGroup = B.sc;
note = L.sc;
rightKerningGroup = L.sc;
},
{
glyphname = Lacute;
layers = (
{
layerId = "DC6C2CDD-F679-463F-ABCE-FDFA3FC576E2";
name = "Regular Italic";
paths = (
{
closed = 1;
nodes = (
"235 807 LINE",
"193 824 LINE",
"269 917 LINE",
"340 917 LINE"
);
},
{
closed = 1;
nodes = (
"175 710 LINE",
"244 710 LINE",
"106 62 LINE",
"494 62 LINE",
"481 0 LINE",
"24 0 LINE"
);
}
);
width = 557;
}
);
leftKerningGroup = B;
note = Lacute;
rightKerningGroup = L;
unicode = 0139;
},
{
glyphname = Lcaron;
layers = (
{
layerId = "DC6C2CDD-F679-463F-ABCE-FDFA3FC576E2";
name = "Regular Italic";
paths = (
{
closed = 1;
nodes = (
"298 637 LINE",
"374 730 LINE",
"446 730 LINE",
"340 620 LINE"
);
},
{
closed = 1;
nodes = (
"175 710 LINE",
"244 710 LINE",
"106 62 LINE",
"494 62 LINE",
"481 0 LINE",
"24 0 LINE"
);
}
);
width = 557;
}
);
leftKerningGroup = B;
note = Lcaron;
rightKerningGroup = L;
unicode = 013D;
},
{
glyphname = caron.alt;
layers = (
{
layerId = "DC6C2CDD-F679-463F-ABCE-FDFA3FC576E2";
name = "Regular Italic";
paths = (
{
closed = 1;
nodes = (
"53 637 LINE",
"129 730 LINE",
"201 730 LINE",
"95 620 LINE"
);
}
);
width = 212;
}
);
note = caron.alt;
rightKerningGroup = acute;
},
{
glyphname = Lcommaaccent;
layers = (
{
layerId = "DC6C2CDD-F679-463F-ABCE-FDFA3FC576E2";
name = "Regular Italic";
paths = (
{
closed = 1;
nodes = (
"185 -199 LINE",
"217 -125 LINE",
"197 -125 LINE",
"214 -49 LINE",
"275 -49 LINE",
"259 -125 LINE",
"219 -199 LINE"
);
},
{
closed = 1;
nodes = (
"175 710 LINE",
"244 710 LINE",
"106 62 LINE",
"494 62 LINE",
"481 0 LINE",
"24 0 LINE"
);
}
);
width = 557;
}
);
leftKerningGroup = B;
note = Lcommaaccent;
rightKerningGroup = L;
unicode = 013B;
},
{
glyphname = Ldot;
layers = (
{
layerId = "DC6C2CDD-F679-463F-ABCE-FDFA3FC576E2";
name = "Regular Italic";
paths = (
{
closed = 1;
nodes = (
"175 710 LINE",
"244 710 LINE",
"106 62 LINE",
"494 62 LINE",
"481 0 LINE",
"24 0 LINE"
);
},
{
closed = 1;
nodes = (
"329 348 LINE",
"352 460 LINE",
"410 460 LINE",
"387 348 LINE"
);
}
);
width = 557;
}
);
note = Ldot;
rightKerningGroup = L;
unicode = 013F;
},
{
glyphname = periodcentered;
layers = (
{
layerId = "DC6C2CDD-F679-463F-ABCE-FDFA3FC576E2";
name = "Regular Italic";
paths = (
{
closed = 1;
nodes = (
"52 246 LINE",
"75 358 LINE",
"133 358 LINE",
"110 246 LINE"
);
}
);
width = 186;
}
);
leftKerningGroup = periodcentered;
note = periodcentered;
rightKerningGroup = periodcentered;
unicode = 00B7;
},
{
glyphname = Lslash;
layers = (
{
layerId = "DC6C2CDD-F679-463F-ABCE-FDFA3FC576E2";
name = "Regular Italic";
paths = (
{
closed = 1;
nodes = (
"12 269 LINE",
"102 335 LINE",
"182 710 LINE",
"252 710 LINE",
"185 396 LINE",
"357 522 LINE",
"370 483 LINE",
"173 338 LINE",
"114 62 LINE",
"501 62 LINE",
"488 0 LINE",
"31 0 LINE",
"90 277 LINE",
"25 229 LINE"
);
}
);
width = 564;
}
);
leftKerningGroup = B;
note = Lslash;
rightKerningGroup = L;
unicode = 0141;
},
{
glyphname = M;
layers = (
{
layerId = "DC6C2CDD-F679-463F-ABCE-FDFA3FC576E2";
name = "Regular Italic";
paths = (
{
closed = 1;
nodes = (
"175 710 LINE",
"247 710 LINE",
"404 224 LINE",
"768 710 LINE",
"840 710 LINE",
"689 0 LINE",
"619 0 LINE",
"743 583 LINE",
"405 132 LINE",
"364 132 LINE",
"218 583 LINE",
"93 0 LINE",
"24 0 LINE"
);
}
);
width = 840;
}
);
leftKerningGroup = B;
note = M;
rightKerningGroup = Eng;
unicode = 004D;
},
{
glyphname = M.sc;
layers = (
{
layerId = "DC6C2CDD-F679-463F-ABCE-FDFA3FC576E2";
name = "Regular Italic";
paths = (
{
closed = 1;
nodes = (
"135 548 LINE",
"200 548 LINE",
"339 184 LINE",
"632 548 LINE",
"697 548 LINE",
"580 0 LINE",
"518 0 LINE",
"610 435 LINE",
"339 100 LINE",
"303 100 LINE",
"173 435 LINE",
"81 0 LINE",
"18 0 LINE"
);
}
);
width = 726;
}
);
leftKerningGroup = B.sc;
note = M.sc;
rightKerningGroup = H.sc;
},
{
glyphname = N;
layers = (
{
layerId = "DC6C2CDD-F679-463F-ABCE-FDFA3FC576E2";
name = "Regular Italic";
paths = (
{
closed = 1;
nodes = (
"175 710 LINE",
"229 710 LINE",
"545 119 LINE",
"670 709 LINE",
"739 709 LINE",
"588 0 LINE",
"529 0 LINE",
"216 580 LINE",
"93 0 LINE",
"24 0 LINE"
);
}
);
width = 740;
}
);
leftKerningGroup = B;
note = N;
rightKerningGroup = Eng;
unicode = 004E;
},
{
glyphname = N.sc;
layers = (
{
layerId = "DC6C2CDD-F679-463F-ABCE-FDFA3FC576E2";
name = "Regular Italic";
paths = (
{
closed = 1;
nodes = (
"135 548 LINE",
"183 548 LINE",
"457 109 LINE",
"550 547 LINE",
"613 547 LINE",
"497 0 LINE",
"443 0 LINE",
"172 431 LINE",
"81 0 LINE",
"18 0 LINE"
);
}
);
width = 642;
}
);
leftKerningGroup = B.sc;
note = N.sc;
rightKerningGroup = H.sc;
},
{
glyphname = Nacute;
layers = (
{
layerId = "DC6C2CDD-F679-463F-ABCE-FDFA3FC576E2";
name = "Regular Italic";
paths = (
{
closed = 1;
nodes = (
"480 807 LINE",
"438 824 LINE",
"514 917 LINE",
"585 917 LINE"
);
},
{
closed = 1;
nodes = (
"175 710 LINE",
"229 710 LINE",
"545 119 LINE",
"670 709 LINE",
"739 709 LINE",
"588 0 LINE",
"529 0 LINE",
"216 580 LINE",
"93 0 LINE",
"24 0 LINE"
);
}
);
width = 740;
}
);
leftKerningGroup = B;
note = Nacute;
rightKerningGroup = Eng;
unicode = 0143;
},
{
glyphname = Ncaron;
layers = (
{
layerId = "DC6C2CDD-F679-463F-ABCE-FDFA3FC576E2";
name = "Regular Italic";
paths = (
{
closed = 1;
nodes = (
"372 897 LINE",
"415 917 LINE",
"482 854 LINE",
"576 917 LINE",
"610 897 LINE",
"498 811 LINE",
"448 811 LINE"
);
},
{
closed = 1;
nodes = (
"175 710 LINE",
"229 710 LINE",
"545 119 LINE",
"670 709 LINE",
"739 709 LINE",
"588 0 LINE",
"529 0 LINE",
"216 580 LINE",
"93 0 LINE",
"24 0 LINE"
);
}
);
width = 740;
}
);
leftKerningGroup = B;
note = Ncaron;
rightKerningGroup = Eng;
unicode = 0147;
},
{
glyphname = Ncommaaccent;
layers = (
{
layerId = "DC6C2CDD-F679-463F-ABCE-FDFA3FC576E2";
name = "Regular Italic";
paths = (
{
closed = 1;
nodes = (
"239 -199 LINE",
"271 -125 LINE",
"251 -125 LINE",
"268 -49 LINE",
"329 -49 LINE",
"313 -125 LINE",
"273 -199 LINE"
);
},
{
closed = 1;
nodes = (
"175 710 LINE",
"229 710 LINE",
"545 119 LINE",
"670 709 LINE",
"739 709 LINE",
"588 0 LINE",
"529 0 LINE",
"216 580 LINE",
"93 0 LINE",
"24 0 LINE"
);
}
);
width = 740;
}
);
leftKerningGroup = B;
note = Ncommaaccent;
rightKerningGroup = Eng;
unicode = 0145;
},
{
glyphname = Ndotaccent;
layers = (
{
layerId = "DC6C2CDD-F679-463F-ABCE-FDFA3FC576E2";
name = "Regular Italic";
paths = (
{
closed = 1;
nodes = (
"450 820 LINE",
"471 917 LINE",
"533 917 LINE",
"512 820 LINE"
);
},
{
closed = 1;
nodes = (
"175 710 LINE",
"229 710 LINE",
"545 119 LINE",
"670 709 LINE",
"739 709 LINE",
"588 0 LINE",
"529 0 LINE",
"216 580 LINE",
"93 0 LINE",
"24 0 LINE"
);
}
);
width = 740;
}
);
leftKerningGroup = B;
note = Ndotaccent;
rightKerningGroup = Eng;
unicode = 1E44;
},
{
glyphname = Ntilde;
layers = (
{
layerId = "DC6C2CDD-F679-463F-ABCE-FDFA3FC576E2";
name = "Regular Italic";
paths = (
{
closed = 1;
nodes = (
"175 710 LINE",
"229 710 LINE",
"545 119 LINE",
"670 709 LINE",
"739 709 LINE",
"588 0 LINE",
"529 0 LINE",
"216 580 LINE",
"93 0 LINE",
"24 0 LINE"
);
},
{
closed = 1;
nodes = (
"514 825 OFFCURVE",
"496 835 OFFCURVE",
"480 845 CURVE SMOOTH",
"464 855 OFFCURVE",
"449 865 OFFCURVE",
"429 865 CURVE SMOOTH",
"409 865 OFFCURVE",
"394 854 OFFCURVE",
"386 843 CURVE",
"381 837 OFFCURVE",
"378 832 OFFCURVE",
"376 827 CURVE",
"373 822 OFFCURVE",
"372 818 OFFCURVE",
"372 817 CURVE",
"330 817 LINE",
"331 824 OFFCURVE",
"341 848 OFFCURVE",
"358 869 CURVE SMOOTH",
"375 890 OFFCURVE",
"402 910 OFFCURVE",
"438 910 CURVE SMOOTH",
"465 910 OFFCURVE",
"481 900 OFFCURVE",
"497 889 CURVE SMOOTH",
"513 878 OFFCURVE",
"527 868 OFFCURVE",
"551 868 CURVE SMOOTH",
"575 868 OFFCURVE",
"592 879 OFFCURVE",
"601 891 CURVE",
"606 897 OFFCURVE",
"609 903 OFFCURVE",
"612 908 CURVE",
"614 913 OFFCURVE",
"615 916 OFFCURVE",
"615 917 CURVE",
"657 917 LINE",
"656 914 OFFCURVE",
"654 907 OFFCURVE",
"649 897 CURVE",
"640 877 OFFCURVE",
"621 854 OFFCURVE",
"593 838 CURVE",
"579 829 OFFCURVE",
"562 825 OFFCURVE",
"542 825 CURVE SMOOTH"
);
}
);
width = 740;
}
);
leftKerningGroup = B;
note = Ntilde;
rightKerningGroup = Eng;
unicode = 00D1;
},
{
glyphname = O;
layers = (
{
layerId = "DC6C2CDD-F679-463F-ABCE-FDFA3FC576E2";
name = "Regular Italic";
paths = (
{
closed = 1;
nodes = (
"216 -5 OFFCURVE",
"154 31 OFFCURVE",
"111 85 CURVE SMOOTH",
"68 139 OFFCURVE",
"46 212 OFFCURVE",
"46 288 CURVE SMOOTH",
"46 396 OFFCURVE",
"95 503 OFFCURVE",
"171 583 CURVE SMOOTH",
"246 663 OFFCURVE",
"346 715 OFFCURVE",
"450 715 CURVE SMOOTH",
"530 715 OFFCURVE",
"592 679 OFFCURVE",
"634 624 CURVE SMOOTH",
"676 569 OFFCURVE",
"698 496 OFFCURVE",
"698 420 CURVE SMOOTH",
"698 312 OFFCURVE",
"650 206 OFFCURVE",
"575 127 CURVE SMOOTH",
"500 47 OFFCURVE",
"400 -5 OFFCURVE",
"296 -5 CURVE SMOOTH"
);
},
{
closed = 1;
nodes = (
"398 58 OFFCURVE",
"477 105 OFFCURVE",
"535 174 CURVE SMOOTH",
"593 242 OFFCURVE",
"628 331 OFFCURVE",
"628 415 CURVE SMOOTH",
"628 478 OFFCURVE",
"610 537 OFFCURVE",
"578 581 CURVE SMOOTH",
"545 624 OFFCURVE",
"496 651 OFFCURVE",
"436 651 CURVE SMOOTH",
"348 651 OFFCURVE",
"269 604 OFFCURVE",
"211 536 CURVE SMOOTH",
"153 468 OFFCURVE",
"117 379 OFFCURVE",
"117 294 CURVE SMOOTH",
"117 231 OFFCURVE",
"134 172 OFFCURVE",
"167 129 CURVE SMOOTH",
"200 85 OFFCURVE",
"247 58 OFFCURVE",
"310 58 CURVE SMOOTH"
);
}
);
width = 722;
}
);
leftKerningGroup = C;
note = O;
rightKerningGroup = O;
unicode = 004F;
},
{
glyphname = O.sc;
layers = (
{
layerId = "DC6C2CDD-F679-463F-ABCE-FDFA3FC576E2";
name = "Regular Italic";
paths = (
{
closed = 1;
nodes = (
"179 -4 OFFCURVE",
"125 23 OFFCURVE",
"89 66 CURVE SMOOTH",
"52 109 OFFCURVE",
"32 166 OFFCURVE",
"32 226 CURVE SMOOTH",
"32 309 OFFCURVE",
"72 390 OFFCURVE",
"134 451 CURVE SMOOTH",
"196 511 OFFCURVE",
"279 551 OFFCURVE",
"366 551 CURVE SMOOTH",
"434 551 OFFCURVE",
"488 523 OFFCURVE",
"524 480 CURVE SMOOTH",
"560 436 OFFCURVE",
"579 379 OFFCURVE",
"579 320 CURVE SMOOTH",
"579 237 OFFCURVE",
"539 156 OFFCURVE",
"478 96 CURVE SMOOTH",
"417 36 OFFCURVE",
"334 -4 OFFCURVE",
"247 -4 CURVE SMOOTH"
);
},
{
closed = 1;
nodes = (
"332 53 OFFCURVE",
"396 88 OFFCURVE",
"442 138 CURVE SMOOTH",
"488 188 OFFCURVE",
"516 253 OFFCURVE",
"516 314 CURVE SMOOTH",
"516 362 OFFCURVE",
"501 407 OFFCURVE",
"473 440 CURVE SMOOTH",
"445 473 OFFCURVE",
"404 494 OFFCURVE",
"353 494 CURVE SMOOTH",
"282 494 OFFCURVE",
"218 459 OFFCURVE",
"171 410 CURVE SMOOTH",
"124 361 OFFCURVE",
"96 294 OFFCURVE",
"96 233 CURVE SMOOTH",
"96 185 OFFCURVE",
"111 140 OFFCURVE",
"139 107 CURVE SMOOTH",
"167 74 OFFCURVE",
"208 53 OFFCURVE",
"260 53 CURVE SMOOTH"
);
}
);
width = 624;
}
);
leftKerningGroup = C.sc;
note = O.sc;
rightKerningGroup = O.sc;
},
{
glyphname = OE;
layers = (
{
layerId = "DC6C2CDD-F679-463F-ABCE-FDFA3FC576E2";
name = "Regular Italic";
paths = (
{
closed = 1;
nodes = (
"217 -5 OFFCURVE",
"154 31 OFFCURVE",
"111 85 CURVE SMOOTH",
"68 139 OFFCURVE",
"46 212 OFFCURVE",
"46 288 CURVE SMOOTH",
"46 396 OFFCURVE",
"95 503 OFFCURVE",
"171 583 CURVE SMOOTH",
"246 663 OFFCURVE",
"346 715 OFFCURVE",
"450 715 CURVE SMOOTH",
"507 715 OFFCURVE",
"554 694 OFFCURVE",
"590 661 CURVE SMOOTH",
"625 628 OFFCURVE",
"647 581 OFFCURVE",
"658 530 CURVE",
"696 710 LINE",
"1137 710 LINE",
"1123 648 LINE",
"752 648 LINE",
"699 393 LINE",
"1018 393 LINE",
"1004 331 LINE",
"685 331 LINE",
"628 62 LINE",
"1007 62 LINE",
"994 0 LINE",
"545 0 LINE",
"584 180 LINE",
"551 128 OFFCURVE",
"508 81 OFFCURVE",
"458 48 CURVE SMOOTH",
"408 15 OFFCURVE",
"353 -5 OFFCURVE",
"297 -5 CURVE SMOOTH"
);
},
{
closed = 1;
nodes = (
"397 58 OFFCURVE",
"476 105 OFFCURVE",
"534 174 CURVE SMOOTH",
"592 242 OFFCURVE",
"627 331 OFFCURVE",
"627 415 CURVE SMOOTH",
"627 478 OFFCURVE",
"609 537 OFFCURVE",
"577 581 CURVE SMOOTH",
"544 624 OFFCURVE",
"496 652 OFFCURVE",
"436 652 CURVE SMOOTH",
"348 652 OFFCURVE",
"269 605 OFFCURVE",
"211 537 CURVE SMOOTH",
"153 469 OFFCURVE",
"117 379 OFFCURVE",
"117 294 CURVE SMOOTH",
"117 231 OFFCURVE",
"134 172 OFFCURVE",
"167 129 CURVE SMOOTH",
"199 85 OFFCURVE",
"248 58 OFFCURVE",
"309 58 CURVE SMOOTH"
);
}
);
width = 1098;
}
);
leftKerningGroup = C;
note = OE;
rightKerningGroup = AE;
unicode = 0152;
},
{
glyphname = Oacute;
layers = (
{
layerId = "DC6C2CDD-F679-463F-ABCE-FDFA3FC576E2";
name = "Regular Italic";
paths = (
{
closed = 1;
nodes = (
"471 807 LINE",
"429 824 LINE",
"505 917 LINE",
"576 917 LINE"
);
},
{
closed = 1;
nodes = (
"216 -5 OFFCURVE",
"154 31 OFFCURVE",
"111 85 CURVE SMOOTH",
"68 139 OFFCURVE",
"46 212 OFFCURVE",
"46 288 CURVE SMOOTH",
"46 396 OFFCURVE",
"95 503 OFFCURVE",
"171 583 CURVE SMOOTH",
"246 663 OFFCURVE",
"346 715 OFFCURVE",
"450 715 CURVE SMOOTH",
"530 715 OFFCURVE",
"592 679 OFFCURVE",
"634 624 CURVE SMOOTH",
"676 569 OFFCURVE",
"698 496 OFFCURVE",
"698 420 CURVE SMOOTH",
"698 312 OFFCURVE",
"650 206 OFFCURVE",
"575 127 CURVE SMOOTH",
"500 47 OFFCURVE",
"400 -5 OFFCURVE",
"296 -5 CURVE SMOOTH"
);
},
{
closed = 1;
nodes = (
"398 58 OFFCURVE",
"477 105 OFFCURVE",
"535 174 CURVE SMOOTH",
"593 242 OFFCURVE",
"628 331 OFFCURVE",
"628 415 CURVE SMOOTH",
"628 478 OFFCURVE",
"610 537 OFFCURVE",
"578 581 CURVE SMOOTH",
"545 624 OFFCURVE",
"496 651 OFFCURVE",
"436 651 CURVE SMOOTH",
"348 651 OFFCURVE",
"269 604 OFFCURVE",
"211 536 CURVE SMOOTH",
"153 468 OFFCURVE",
"117 379 OFFCURVE",
"117 294 CURVE SMOOTH",
"117 231 OFFCURVE",
"134 172 OFFCURVE",
"167 129 CURVE SMOOTH",
"200 85 OFFCURVE",
"247 58 OFFCURVE",
"310 58 CURVE SMOOTH"
);
}
);
width = 722;
}
);
leftKerningGroup = C;
note = Oacute;
rightKerningGroup = O;
unicode = 00D3;
},
{
glyphname = Obreve;
layers = (
{
layerId = "DC6C2CDD-F679-463F-ABCE-FDFA3FC576E2";
name = "Regular Italic";
paths = (
{
closed = 1;
nodes = (
"216 -5 OFFCURVE",
"154 31 OFFCURVE",
"111 85 CURVE SMOOTH",
"68 139 OFFCURVE",
"46 212 OFFCURVE",
"46 288 CURVE SMOOTH",
"46 396 OFFCURVE",
"95 503 OFFCURVE",
"171 583 CURVE SMOOTH",
"246 663 OFFCURVE",
"346 715 OFFCURVE",
"450 715 CURVE SMOOTH",
"530 715 OFFCURVE",
"592 679 OFFCURVE",
"634 624 CURVE SMOOTH",
"676 569 OFFCURVE",
"698 496 OFFCURVE",
"698 420 CURVE SMOOTH",
"698 312 OFFCURVE",
"650 206 OFFCURVE",
"575 127 CURVE SMOOTH",
"500 47 OFFCURVE",
"400 -5 OFFCURVE",
"296 -5 CURVE SMOOTH"
);
},
{
closed = 1;
nodes = (
"398 58 OFFCURVE",
"477 105 OFFCURVE",
"535 174 CURVE SMOOTH",
"593 242 OFFCURVE",
"628 331 OFFCURVE",
"628 415 CURVE SMOOTH",
"628 478 OFFCURVE",
"610 537 OFFCURVE",
"578 581 CURVE SMOOTH",
"545 624 OFFCURVE",
"496 651 OFFCURVE",
"436 651 CURVE SMOOTH",
"348 651 OFFCURVE",
"269 604 OFFCURVE",
"211 536 CURVE SMOOTH",
"153 468 OFFCURVE",
"117 379 OFFCURVE",
"117 294 CURVE SMOOTH",
"117 231 OFFCURVE",
"134 172 OFFCURVE",
"167 129 CURVE SMOOTH",
"200 85 OFFCURVE",
"247 58 OFFCURVE",
"310 58 CURVE SMOOTH"
);
},
{
closed = 1;
nodes = (
"499 851 OFFCURVE",
"529 880 OFFCURVE",
"541 917 CURVE",
"581 917 LINE",
"574 889 OFFCURVE",
"559 864 OFFCURVE",
"539 846 CURVE SMOOTH",
"518 828 OFFCURVE",
"492 816 OFFCURVE",
"465 816 CURVE SMOOTH",
"418 816 OFFCURVE",
"388 849 OFFCURVE",
"388 894 CURVE SMOOTH",
"388 901 OFFCURVE",
"389 909 OFFCURVE",
"391 917 CURVE",
"433 917 LINE",
"432 910 OFFCURVE",
"431 905 OFFCURVE",
"431 902 CURVE SMOOTH",
"431 874 OFFCURVE",
"448 851 OFFCURVE",
"472 851 CURVE SMOOTH"
);
}
);
width = 722;
}
);
leftKerningGroup = C;
note = Obreve;
rightKerningGroup = O;
unicode = 014E;
},
{
glyphname = Ocircumflex;
layers = (
{
layerId = "DC6C2CDD-F679-463F-ABCE-FDFA3FC576E2";
name = "Regular Italic";
paths = (
{
closed = 1;
nodes = (
"362 832 LINE",
"475 917 LINE",
"525 917 LINE",
"600 832 LINE",
"558 811 LINE",
"490 874 LINE",
"396 811 LINE"
);
},
{
closed = 1;
nodes = (
"216 -5 OFFCURVE",
"154 31 OFFCURVE",
"111 85 CURVE SMOOTH",
"68 139 OFFCURVE",
"46 212 OFFCURVE",
"46 288 CURVE SMOOTH",
"46 396 OFFCURVE",
"95 503 OFFCURVE",
"171 583 CURVE SMOOTH",
"246 663 OFFCURVE",
"346 715 OFFCURVE",
"450 715 CURVE SMOOTH",
"530 715 OFFCURVE",
"592 679 OFFCURVE",
"634 624 CURVE SMOOTH",
"676 569 OFFCURVE",
"698 496 OFFCURVE",
"698 420 CURVE SMOOTH",
"698 312 OFFCURVE",
"650 206 OFFCURVE",
"575 127 CURVE SMOOTH",
"500 47 OFFCURVE",
"400 -5 OFFCURVE",
"296 -5 CURVE SMOOTH"
);
},
{
closed = 1;
nodes = (
"398 58 OFFCURVE",
"477 105 OFFCURVE",
"535 174 CURVE SMOOTH",
"593 242 OFFCURVE",
"628 331 OFFCURVE",
"628 415 CURVE SMOOTH",
"628 478 OFFCURVE",
"610 537 OFFCURVE",
"578 581 CURVE SMOOTH",
"545 624 OFFCURVE",
"496 651 OFFCURVE",
"436 651 CURVE SMOOTH",
"348 651 OFFCURVE",
"269 604 OFFCURVE",
"211 536 CURVE SMOOTH",
"153 468 OFFCURVE",
"117 379 OFFCURVE",
"117 294 CURVE SMOOTH",
"117 231 OFFCURVE",
"134 172 OFFCURVE",
"167 129 CURVE SMOOTH",
"200 85 OFFCURVE",
"247 58 OFFCURVE",
"310 58 CURVE SMOOTH"
);
}
);
width = 722;
}
);
leftKerningGroup = C;
note = Ocircumflex;
rightKerningGroup = O;
unicode = 00D4;
},
{
glyphname = Odieresis;
layers = (
{
layerId = "DC6C2CDD-F679-463F-ABCE-FDFA3FC576E2";
name = "Regular Italic";
paths = (
{
closed = 1;
nodes = (
"372 820 LINE",
"393 914 LINE",
"451 914 LINE",
"430 820 LINE"
);
},
{
closed = 1;
nodes = (
"516 820 LINE",
"536 914 LINE",
"593 914 LINE",
"574 820 LINE"
);
},
{
closed = 1;
nodes = (
"216 -5 OFFCURVE",
"154 31 OFFCURVE",
"111 85 CURVE SMOOTH",
"68 139 OFFCURVE",
"46 212 OFFCURVE",
"46 288 CURVE SMOOTH",
"46 396 OFFCURVE",
"95 503 OFFCURVE",
"171 583 CURVE SMOOTH",
"246 663 OFFCURVE",
"346 715 OFFCURVE",
"450 715 CURVE SMOOTH",
"530 715 OFFCURVE",
"592 679 OFFCURVE",
"634 624 CURVE SMOOTH",
"676 569 OFFCURVE",
"698 496 OFFCURVE",
"698 420 CURVE SMOOTH",
"698 312 OFFCURVE",
"650 206 OFFCURVE",
"575 127 CURVE SMOOTH",
"500 47 OFFCURVE",
"400 -5 OFFCURVE",
"296 -5 CURVE SMOOTH"
);
},
{
closed = 1;
nodes = (
"398 58 OFFCURVE",
"477 105 OFFCURVE",
"535 174 CURVE SMOOTH",
"593 242 OFFCURVE",
"628 331 OFFCURVE",
"628 415 CURVE SMOOTH",
"628 478 OFFCURVE",
"610 537 OFFCURVE",
"578 581 CURVE SMOOTH",
"545 624 OFFCURVE",
"496 651 OFFCURVE",
"436 651 CURVE SMOOTH",
"348 651 OFFCURVE",
"269 604 OFFCURVE",
"211 536 CURVE SMOOTH",
"153 468 OFFCURVE",
"117 379 OFFCURVE",
"117 294 CURVE SMOOTH",
"117 231 OFFCURVE",
"134 172 OFFCURVE",
"167 129 CURVE SMOOTH",
"200 85 OFFCURVE",
"247 58 OFFCURVE",
"310 58 CURVE SMOOTH"
);
}
);
width = 722;
}
);
leftKerningGroup = C;
note = Odieresis;
rightKerningGroup = O;
unicode = 00D6;
},
{
glyphname = Ograve;
layers = (
{
layerId = "DC6C2CDD-F679-463F-ABCE-FDFA3FC576E2";
name = "Regular Italic";
paths = (
{
closed = 1;
nodes = (
"216 -5 OFFCURVE",
"154 31 OFFCURVE",
"111 85 CURVE SMOOTH",
"68 139 OFFCURVE",
"46 212 OFFCURVE",
"46 288 CURVE SMOOTH",
"46 396 OFFCURVE",
"95 503 OFFCURVE",
"171 583 CURVE SMOOTH",
"246 663 OFFCURVE",
"346 715 OFFCURVE",
"450 715 CURVE SMOOTH",
"530 715 OFFCURVE",
"592 679 OFFCURVE",
"634 624 CURVE SMOOTH",
"676 569 OFFCURVE",
"698 496 OFFCURVE",
"698 420 CURVE SMOOTH",
"698 312 OFFCURVE",
"650 206 OFFCURVE",
"575 127 CURVE SMOOTH",
"500 47 OFFCURVE",
"400 -5 OFFCURVE",
"296 -5 CURVE SMOOTH"
);
},
{
closed = 1;
nodes = (
"398 58 OFFCURVE",
"477 105 OFFCURVE",
"535 174 CURVE SMOOTH",
"593 242 OFFCURVE",
"628 331 OFFCURVE",
"628 415 CURVE SMOOTH",
"628 478 OFFCURVE",
"610 537 OFFCURVE",
"578 581 CURVE SMOOTH",
"545 624 OFFCURVE",
"496 651 OFFCURVE",
"436 651 CURVE SMOOTH",
"348 651 OFFCURVE",
"269 604 OFFCURVE",
"211 536 CURVE SMOOTH",
"153 468 OFFCURVE",
"117 379 OFFCURVE",
"117 294 CURVE SMOOTH",
"117 231 OFFCURVE",
"134 172 OFFCURVE",
"167 129 CURVE SMOOTH",
"200 85 OFFCURVE",
"247 58 OFFCURVE",
"310 58 CURVE SMOOTH"
);
},
{
closed = 1;
nodes = (
"422 917 LINE",
"492 917 LINE",
"530 824 LINE",
"481 807 LINE"
);
}
);
width = 722;
}
);
leftKerningGroup = C;
note = Ograve;
rightKerningGroup = O;
unicode = 00D2;
},
{
glyphname = Ohungarumlaut;
layers = (
{
layerId = "DC6C2CDD-F679-463F-ABCE-FDFA3FC576E2";
name = "Regular Italic";
paths = (
{
closed = 1;
nodes = (
"405 807 LINE",
"372 824 LINE",
"445 917 LINE",
"508 917 LINE"
);
},
{
closed = 1;
nodes = (
"526 807 LINE",
"494 824 LINE",
"567 917 LINE",
"629 917 LINE"
);
},
{
closed = 1;
nodes = (
"216 -5 OFFCURVE",
"154 31 OFFCURVE",
"111 85 CURVE SMOOTH",
"68 139 OFFCURVE",
"46 212 OFFCURVE",
"46 288 CURVE SMOOTH",
"46 396 OFFCURVE",
"95 503 OFFCURVE",
"171 583 CURVE SMOOTH",
"246 663 OFFCURVE",
"346 715 OFFCURVE",
"450 715 CURVE SMOOTH",
"530 715 OFFCURVE",
"592 679 OFFCURVE",
"634 624 CURVE SMOOTH",
"676 569 OFFCURVE",
"698 496 OFFCURVE",
"698 420 CURVE SMOOTH",
"698 312 OFFCURVE",
"650 206 OFFCURVE",
"575 127 CURVE SMOOTH",
"500 47 OFFCURVE",
"400 -5 OFFCURVE",
"296 -5 CURVE SMOOTH"
);
},
{
closed = 1;
nodes = (
"398 58 OFFCURVE",
"477 105 OFFCURVE",
"535 174 CURVE SMOOTH",
"593 242 OFFCURVE",
"628 331 OFFCURVE",
"628 415 CURVE SMOOTH",
"628 478 OFFCURVE",
"610 537 OFFCURVE",
"578 581 CURVE SMOOTH",
"545 624 OFFCURVE",
"496 651 OFFCURVE",
"436 651 CURVE SMOOTH",
"348 651 OFFCURVE",
"269 604 OFFCURVE",
"211 536 CURVE SMOOTH",
"153 468 OFFCURVE",
"117 379 OFFCURVE",
"117 294 CURVE SMOOTH",
"117 231 OFFCURVE",
"134 172 OFFCURVE",
"167 129 CURVE SMOOTH",
"200 85 OFFCURVE",
"247 58 OFFCURVE",
"310 58 CURVE SMOOTH"
);
}
);
width = 722;
}
);
leftKerningGroup = C;
note = Ohungarumlaut;
rightKerningGroup = O;
unicode = 0150;
},
{
glyphname = hungarumlaut;
layers = (
{
layerId = "DC6C2CDD-F679-463F-ABCE-FDFA3FC576E2";
name = "Regular Italic";
paths = (
{
closed = 1;
nodes = (
"75 620 LINE",
"42 637 LINE",
"115 730 LINE",
"178 730 LINE"
);
},
{
closed = 1;
nodes = (
"196 620 LINE",
"164 637 LINE",
"237 730 LINE",
"299 730 LINE"
);
}
);
width = 312;
}
);
note = hungarumlaut;
rightKerningGroup = acute;
unicode = 02DD;
},
{
glyphname = Omacron;
layers = (
{
layerId = "DC6C2CDD-F679-463F-ABCE-FDFA3FC576E2";
name = "Regular Italic";
paths = (
{
closed = 1;
nodes = (
"343 849 LINE",
"353 896 LINE",
"628 896 LINE",
"618 849 LINE"
);
},
{
closed = 1;
nodes = (
"216 -5 OFFCURVE",
"154 31 OFFCURVE",
"111 85 CURVE SMOOTH",
"68 139 OFFCURVE",
"46 212 OFFCURVE",
"46 288 CURVE SMOOTH",
"46 396 OFFCURVE",
"95 503 OFFCURVE",
"171 583 CURVE SMOOTH",
"246 663 OFFCURVE",
"346 715 OFFCURVE",
"450 715 CURVE SMOOTH",
"530 715 OFFCURVE",
"592 679 OFFCURVE",
"634 624 CURVE SMOOTH",
"676 569 OFFCURVE",
"698 496 OFFCURVE",
"698 420 CURVE SMOOTH",
"698 312 OFFCURVE",
"650 206 OFFCURVE",
"575 127 CURVE SMOOTH",
"500 47 OFFCURVE",
"400 -5 OFFCURVE",
"296 -5 CURVE SMOOTH"
);
},
{
closed = 1;
nodes = (
"398 58 OFFCURVE",
"477 105 OFFCURVE",
"535 174 CURVE SMOOTH",
"593 242 OFFCURVE",
"628 331 OFFCURVE",
"628 415 CURVE SMOOTH",
"628 478 OFFCURVE",
"610 537 OFFCURVE",
"578 581 CURVE SMOOTH",
"545 624 OFFCURVE",
"496 651 OFFCURVE",
"436 651 CURVE SMOOTH",
"348 651 OFFCURVE",
"269 604 OFFCURVE",
"211 536 CURVE SMOOTH",
"153 468 OFFCURVE",
"117 379 OFFCURVE",
"117 294 CURVE SMOOTH",
"117 231 OFFCURVE",
"134 172 OFFCURVE",
"167 129 CURVE SMOOTH",
"200 85 OFFCURVE",
"247 58 OFFCURVE",
"310 58 CURVE SMOOTH"
);
}
);
width = 722;
}
);
leftKerningGroup = C;
note = Omacron;
rightKerningGroup = O;
unicode = 014C;
},
{
glyphname = Oogonek;
layers = (
{
layerId = "DC6C2CDD-F679-463F-ABCE-FDFA3FC576E2";
name = "Regular Italic";
paths = (
{
closed = 1;
nodes = (
"236 -176 LINE",
"196 -167 OFFCURVE",
"176 -144 OFFCURVE",
"176 -115 CURVE SMOOTH",
"176 -78 OFFCURVE",
"204 -44 OFFCURVE",
"268 -3 CURVE",
"196 5 OFFCURVE",
"142 41 OFFCURVE",
"104 94 CURVE SMOOTH",
"66 147 OFFCURVE",
"46 216 OFFCURVE",
"46 288 CURVE SMOOTH",
"46 396 OFFCURVE",
"95 503 OFFCURVE",
"171 583 CURVE SMOOTH",
"246 663 OFFCURVE",
"346 715 OFFCURVE",
"450 715 CURVE SMOOTH",
"530 715 OFFCURVE",
"592 679 OFFCURVE",
"634 624 CURVE SMOOTH",
"676 569 OFFCURVE",
"698 496 OFFCURVE",
"698 420 CURVE SMOOTH",
"698 316 OFFCURVE",
"652 212 OFFCURVE",
"581 133 CURVE SMOOTH",
"509 54 OFFCURVE",
"413 1 OFFCURVE",
"313 -4 CURVE",
"278 -25 OFFCURVE",
"254 -42 OFFCURVE",
"241 -57 CURVE",
"227 -72 OFFCURVE",
"220 -87 OFFCURVE",
"220 -102 CURVE SMOOTH",
"220 -122 OFFCURVE",
"234 -134 OFFCURVE",
"262 -138 CURVE"
);
},
{
closed = 1;
nodes = (
"398 58 OFFCURVE",
"477 105 OFFCURVE",
"535 174 CURVE SMOOTH",
"593 242 OFFCURVE",
"628 331 OFFCURVE",
"628 415 CURVE SMOOTH",
"628 478 OFFCURVE",
"610 537 OFFCURVE",
"578 581 CURVE SMOOTH",
"545 624 OFFCURVE",
"496 651 OFFCURVE",
"436 651 CURVE SMOOTH",
"348 651 OFFCURVE",
"269 604 OFFCURVE",
"211 536 CURVE SMOOTH",
"153 468 OFFCURVE",
"117 379 OFFCURVE",
"117 294 CURVE SMOOTH",
"117 231 OFFCURVE",
"134 172 OFFCURVE",
"167 129 CURVE SMOOTH",
"200 85 OFFCURVE",
"247 58 OFFCURVE",
"310 58 CURVE SMOOTH"
);
}
);
width = 722;
}
);
note = Oogonek;
rightKerningGroup = acute;
unicode = 01EA;
},
{
glyphname = Oslash;
layers = (
{
layerId = "DC6C2CDD-F679-463F-ABCE-FDFA3FC576E2";
name = "Regular Italic";
paths = (
{
closed = 1;
nodes = (
"713 710 LINE",
"637 620 LINE",
"677 564 OFFCURVE",
"698 493 OFFCURVE",
"698 420 CURVE SMOOTH",
"698 312 OFFCURVE",
"650 206 OFFCURVE",
"575 127 CURVE SMOOTH",
"500 47 OFFCURVE",
"400 -5 OFFCURVE",
"296 -5 CURVE SMOOTH",
"237 -5 OFFCURVE",
"189 13 OFFCURVE",
"150 44 CURVE",
"113 0 LINE",
"36 0 LINE",
"109 86 LINE",
"68 141 OFFCURVE",
"46 212 OFFCURVE",
"46 288 CURVE SMOOTH",
"46 396 OFFCURVE",
"95 503 OFFCURVE",
"171 583 CURVE SMOOTH",
"246 663 OFFCURVE",
"346 715 OFFCURVE",
"450 715 CURVE SMOOTH",
"510 715 OFFCURVE",
"558 695 OFFCURVE",
"597 663 CURVE",
"637 710 LINE"
);
},
{
closed = 1;
nodes = (
"117 237 OFFCURVE",
"130 184 OFFCURVE",
"157 143 CURVE",
"551 608 LINE",
"520 635 OFFCURVE",
"483 651 OFFCURVE",
"436 651 CURVE SMOOTH",
"348 651 OFFCURVE",
"269 604 OFFCURVE",
"211 536 CURVE SMOOTH",
"153 468 OFFCURVE",
"117 379 OFFCURVE",
"117 294 CURVE SMOOTH"
);
},
{
closed = 1;
nodes = (
"398 58 OFFCURVE",
"477 105 OFFCURVE",
"535 174 CURVE SMOOTH",
"593 242 OFFCURVE",
"628 331 OFFCURVE",
"628 415 CURVE SMOOTH",
"628 471 OFFCURVE",
"614 522 OFFCURVE",
"589 563 CURVE",
"196 98 LINE",
"227 73 OFFCURVE",
"263 58 OFFCURVE",
"310 58 CURVE SMOOTH"
);
}
);
width = 722;
}
);
leftKerningGroup = C;
note = Oslash;
rightKerningGroup = O;
unicode = 00D8;
},
{
glyphname = slash;
layers = (
{
layerId = "DC6C2CDD-F679-463F-ABCE-FDFA3FC576E2";
name = "Regular Italic";
paths = (
{
closed = 1;
nodes = (
"651 710 LINE",
"51 0 LINE",
"-26 0 LINE",
"575 710 LINE"
);
}
);
width = 599;
}
);
leftKerningGroup = slash;
note = slash;
rightKerningGroup = slash;
unicode = 002F;
},
{
glyphname = Oslashacute;
layers = (
{
layerId = "DC6C2CDD-F679-463F-ABCE-FDFA3FC576E2";
name = "Regular Italic";
paths = (
{
closed = 1;
nodes = (
"713 710 LINE",
"637 620 LINE",
"677 564 OFFCURVE",
"698 493 OFFCURVE",
"698 420 CURVE SMOOTH",
"698 312 OFFCURVE",
"650 206 OFFCURVE",
"575 127 CURVE SMOOTH",
"500 47 OFFCURVE",
"400 -5 OFFCURVE",
"296 -5 CURVE SMOOTH",
"237 -5 OFFCURVE",
"189 13 OFFCURVE",
"150 44 CURVE",
"113 0 LINE",
"36 0 LINE",
"109 86 LINE",
"68 141 OFFCURVE",
"46 212 OFFCURVE",
"46 288 CURVE SMOOTH",
"46 396 OFFCURVE",
"95 503 OFFCURVE",
"171 583 CURVE SMOOTH",
"246 663 OFFCURVE",
"346 715 OFFCURVE",
"450 715 CURVE SMOOTH",
"510 715 OFFCURVE",
"558 695 OFFCURVE",
"597 663 CURVE",
"637 710 LINE"
);
},
{
closed = 1;
nodes = (
"117 237 OFFCURVE",
"130 184 OFFCURVE",
"157 143 CURVE",
"551 608 LINE",
"520 635 OFFCURVE",
"483 651 OFFCURVE",
"436 651 CURVE SMOOTH",
"348 651 OFFCURVE",
"269 604 OFFCURVE",
"211 536 CURVE SMOOTH",
"153 468 OFFCURVE",
"117 379 OFFCURVE",
"117 294 CURVE SMOOTH"
);
},
{
closed = 1;
nodes = (
"398 58 OFFCURVE",
"477 105 OFFCURVE",
"535 174 CURVE SMOOTH",
"593 242 OFFCURVE",
"628 331 OFFCURVE",
"628 415 CURVE SMOOTH",
"628 471 OFFCURVE",
"614 522 OFFCURVE",
"589 563 CURVE",
"196 98 LINE",
"227 73 OFFCURVE",
"263 58 OFFCURVE",
"310 58 CURVE SMOOTH"
);
},
{
closed = 1;
nodes = (
"472 807 LINE",
"430 824 LINE",
"506 917 LINE",
"577 917 LINE"
);
}
);
width = 722;
}
);
leftKerningGroup = C;
note = Oslashacute;
rightKerningGroup = O;
unicode = 01FE;
},
{
glyphname = Otilde;
layers = (
{
layerId = "DC6C2CDD-F679-463F-ABCE-FDFA3FC576E2";
name = "Regular Italic";
paths = (
{
closed = 1;
nodes = (
"216 -5 OFFCURVE",
"154 31 OFFCURVE",
"111 85 CURVE SMOOTH",
"68 139 OFFCURVE",
"46 212 OFFCURVE",
"46 288 CURVE SMOOTH",
"46 396 OFFCURVE",
"95 503 OFFCURVE",
"171 583 CURVE SMOOTH",
"246 663 OFFCURVE",
"346 715 OFFCURVE",
"450 715 CURVE SMOOTH",
"530 715 OFFCURVE",
"592 679 OFFCURVE",
"634 624 CURVE SMOOTH",
"676 569 OFFCURVE",
"698 496 OFFCURVE",
"698 420 CURVE SMOOTH",
"698 312 OFFCURVE",
"650 206 OFFCURVE",
"575 127 CURVE SMOOTH",
"500 47 OFFCURVE",
"400 -5 OFFCURVE",
"296 -5 CURVE SMOOTH"
);
},
{
closed = 1;
nodes = (
"398 58 OFFCURVE",
"477 105 OFFCURVE",
"535 174 CURVE SMOOTH",
"593 242 OFFCURVE",
"628 331 OFFCURVE",
"628 415 CURVE SMOOTH",
"628 478 OFFCURVE",
"610 537 OFFCURVE",
"578 581 CURVE SMOOTH",
"545 624 OFFCURVE",
"496 651 OFFCURVE",
"436 651 CURVE SMOOTH",
"348 651 OFFCURVE",
"269 604 OFFCURVE",
"211 536 CURVE SMOOTH",
"153 468 OFFCURVE",
"117 379 OFFCURVE",
"117 294 CURVE SMOOTH",
"117 231 OFFCURVE",
"134 172 OFFCURVE",
"167 129 CURVE SMOOTH",
"200 85 OFFCURVE",
"247 58 OFFCURVE",
"310 58 CURVE SMOOTH"
);
},
{
closed = 1;
nodes = (
"504 825 OFFCURVE",
"486 835 OFFCURVE",
"470 845 CURVE SMOOTH",
"454 855 OFFCURVE",
"439 865 OFFCURVE",
"419 865 CURVE SMOOTH",
"399 865 OFFCURVE",
"384 854 OFFCURVE",
"376 843 CURVE",
"371 837 OFFCURVE",
"368 832 OFFCURVE",
"366 827 CURVE",
"363 822 OFFCURVE",
"362 818 OFFCURVE",
"362 817 CURVE",
"320 817 LINE",
"321 824 OFFCURVE",
"331 848 OFFCURVE",
"348 869 CURVE SMOOTH",
"365 890 OFFCURVE",
"392 910 OFFCURVE",
"428 910 CURVE SMOOTH",
"455 910 OFFCURVE",
"471 900 OFFCURVE",
"487 889 CURVE SMOOTH",
"503 878 OFFCURVE",
"517 868 OFFCURVE",
"541 868 CURVE SMOOTH",
"565 868 OFFCURVE",
"582 879 OFFCURVE",
"591 891 CURVE",
"596 897 OFFCURVE",
"599 903 OFFCURVE",
"602 908 CURVE",
"604 913 OFFCURVE",
"605 916 OFFCURVE",
"605 917 CURVE",
"647 917 LINE",
"646 914 OFFCURVE",
"644 907 OFFCURVE",
"639 897 CURVE",
"630 877 OFFCURVE",
"611 854 OFFCURVE",
"583 838 CURVE",
"569 829 OFFCURVE",
"552 825 OFFCURVE",
"532 825 CURVE SMOOTH"
);
}
);
width = 722;
}
);
leftKerningGroup = C;
note = Otilde;
rightKerningGroup = O;
unicode = 00D5;
},
{
glyphname = P;
layers = (
{
layerId = "DC6C2CDD-F679-463F-ABCE-FDFA3FC576E2";
name = "Regular Italic";
paths = (
{
closed = 1;
nodes = (
"175 710 LINE",
"455 710 LINE SMOOTH",
"504 710 OFFCURVE",
"544 688 OFFCURVE",
"571 653 CURVE SMOOTH",
"598 618 OFFCURVE",
"613 572 OFFCURVE",
"613 525 CURVE SMOOTH",
"613 461 OFFCURVE",
"584 396 OFFCURVE",
"539 346 CURVE SMOOTH",
"494 296 OFFCURVE",
"432 262 OFFCURVE",
"365 262 CURVE SMOOTH",
"149 262 LINE",
"93 0 LINE",
"24 0 LINE"
);
},
{
closed = 1;
nodes = (
"374 324 LINE SMOOTH",
"419 324 OFFCURVE",
"463 349 OFFCURVE",
"493 386 CURVE SMOOTH",
"523 422 OFFCURVE",
"542 471 OFFCURVE",
"542 519 CURVE SMOOTH",
"542 555 OFFCURVE",
"532 587 OFFCURVE",
"513 611 CURVE SMOOTH",
"494 634 OFFCURVE",
"468 648 OFFCURVE",
"437 648 CURVE SMOOTH",
"231 648 LINE",
"162 324 LINE"
);
}
);
width = 599;
}
);
leftKerningGroup = B;
note = P;
rightKerningGroup = P;
unicode = 0050;
},
{
glyphname = P.sc;
layers = (
{
layerId = "DC6C2CDD-F679-463F-ABCE-FDFA3FC576E2";
name = "Regular Italic";
paths = (
{
closed = 1;
nodes = (
"135 548 LINE",
"371 548 LINE SMOOTH",
"414 548 OFFCURVE",
"448 530 OFFCURVE",
"472 503 CURVE",
"495 475 OFFCURVE",
"508 438 OFFCURVE",
"508 401 CURVE SMOOTH",
"508 352 OFFCURVE",
"484 302 OFFCURVE",
"447 264 CURVE SMOOTH",
"410 226 OFFCURVE",
"358 199 OFFCURVE",
"302 199 CURVE SMOOTH",
"123 199 LINE",
"81 0 LINE",
"18 0 LINE"
);
},
{
closed = 1;
nodes = (
"310 255 LINE SMOOTH",
"347 255 OFFCURVE",
"381 273 OFFCURVE",
"405 299 CURVE SMOOTH",
"429 325 OFFCURVE",
"444 359 OFFCURVE",
"444 395 CURVE SMOOTH",
"444 451 OFFCURVE",
"408 492 OFFCURVE",
"356 492 CURVE SMOOTH",
"185 492 LINE",
"135 255 LINE"
);
}
);
width = 523;
}
);
leftKerningGroup = B.sc;
note = P.sc;
rightKerningGroup = P.sc;
},
{
glyphname = Q;
layers = (
{
layerId = "DC6C2CDD-F679-463F-ABCE-FDFA3FC576E2";
name = "Regular Italic";
paths = (
{
closed = 1;
nodes = (
"495 59 LINE",
"434 19 OFFCURVE",
"367 -5 OFFCURVE",
"296 -5 CURVE SMOOTH",
"216 -5 OFFCURVE",
"154 31 OFFCURVE",
"111 85 CURVE SMOOTH",
"68 139 OFFCURVE",
"46 212 OFFCURVE",
"46 288 CURVE SMOOTH",
"46 396 OFFCURVE",
"95 503 OFFCURVE",
"171 583 CURVE SMOOTH",
"246 663 OFFCURVE",
"347 715 OFFCURVE",
"451 715 CURVE SMOOTH",
"531 715 OFFCURVE",
"593 679 OFFCURVE",
"635 624 CURVE SMOOTH",
"677 569 OFFCURVE",
"698 496 OFFCURVE",
"698 420 CURVE SMOOTH",
"698 359 OFFCURVE",
"682 298 OFFCURVE",
"655 243 CURVE SMOOTH",
"627 187 OFFCURVE",
"589 136 OFFCURVE",
"542 96 CURVE",
"601 0 LINE",
"531 0 LINE"
);
},
{
closed = 1;
nodes = (
"366 58 OFFCURVE",
"418 77 OFFCURVE",
"465 109 CURVE",
"400 218 LINE",
"469 218 LINE",
"511 148 LINE",
"583 219 OFFCURVE",
"628 319 OFFCURVE",
"628 415 CURVE SMOOTH",
"628 478 OFFCURVE",
"610 537 OFFCURVE",
"578 581 CURVE SMOOTH",
"545 624 OFFCURVE",
"496 652 OFFCURVE",
"436 652 CURVE SMOOTH",
"348 652 OFFCURVE",
"269 605 OFFCURVE",
"211 537 CURVE SMOOTH",
"153 469 OFFCURVE",
"117 379 OFFCURVE",
"117 294 CURVE SMOOTH",
"117 231 OFFCURVE",
"134 172 OFFCURVE",
"167 129 CURVE SMOOTH",
"200 85 OFFCURVE",
"247 58 OFFCURVE",
"310 58 CURVE SMOOTH"
);
}
);
width = 721;
}
);
leftKerningGroup = C;
note = Q;
rightKerningGroup = O;
unicode = 0051;
},
{
glyphname = Q.sc;
layers = (
{
layerId = "DC6C2CDD-F679-463F-ABCE-FDFA3FC576E2";
name = "Regular Italic";
paths = (
{
closed = 1;
nodes = (
"414 45 LINE",
"363 14 OFFCURVE",
"307 -4 OFFCURVE",
"247 -4 CURVE SMOOTH",
"179 -4 OFFCURVE",
"125 23 OFFCURVE",
"89 66 CURVE SMOOTH",
"52 109 OFFCURVE",
"32 166 OFFCURVE",
"32 226 CURVE SMOOTH",
"32 309 OFFCURVE",
"73 390 OFFCURVE",
"135 451 CURVE SMOOTH",
"197 511 OFFCURVE",
"279 551 OFFCURVE",
"366 551 CURVE SMOOTH",
"434 551 OFFCURVE",
"488 523 OFFCURVE",
"524 480 CURVE SMOOTH",
"560 436 OFFCURVE",
"579 379 OFFCURVE",
"579 320 CURVE SMOOTH",
"579 228 OFFCURVE",
"529 137 OFFCURVE",
"456 76 CURVE",
"506 0 LINE",
"444 0 LINE"
);
},
{
closed = 1;
nodes = (
"305 53 OFFCURVE",
"348 67 OFFCURVE",
"384 90 CURVE",
"328 175 LINE",
"391 175 LINE",
"426 122 LINE",
"482 173 OFFCURVE",
"515 246 OFFCURVE",
"515 315 CURVE SMOOTH",
"515 363 OFFCURVE",
"500 408 OFFCURVE",
"473 441 CURVE SMOOTH",
"445 473 OFFCURVE",
"405 495 OFFCURVE",
"353 495 CURVE SMOOTH",
"282 495 OFFCURVE",
"218 461 OFFCURVE",
"171 411 CURVE SMOOTH",
"124 361 OFFCURVE",
"96 294 OFFCURVE",
"96 233 CURVE SMOOTH",
"96 185 OFFCURVE",
"111 140 OFFCURVE",
"139 107 CURVE SMOOTH",
"167 74 OFFCURVE",
"208 53 OFFCURVE",
"260 53 CURVE SMOOTH"
);
}
);
width = 623;
}
);
leftKerningGroup = C.sc;
note = Q.sc;
rightKerningGroup = O.sc;
},
{
glyphname = R;
layers = (
{
layerId = "DC6C2CDD-F679-463F-ABCE-FDFA3FC576E2";
name = "Regular Italic";
paths = (
{
closed = 1;
nodes = (
"24 0 LINE",
"175 710 LINE",
"460 710 LINE SMOOTH",
"509 710 OFFCURVE",
"550 688 OFFCURVE",
"577 653 CURVE SMOOTH",
"604 618 OFFCURVE",
"619 572 OFFCURVE",
"619 525 CURVE SMOOTH",
"619 468 OFFCURVE",
"596 410 OFFCURVE",
"560 365 CURVE SMOOTH",
"524 320 OFFCURVE",
"474 285 OFFCURVE",
"419 274 CURVE",
"526 0 LINE",
"447 0 LINE",
"345 262 LINE",
"149 262 LINE",
"93 0 LINE"
);
},
{
closed = 1;
nodes = (
"381 324 LINE SMOOTH",
"426 324 OFFCURVE",
"469 349 OFFCURVE",
"499 386 CURVE SMOOTH",
"529 422 OFFCURVE",
"547 470 OFFCURVE",
"547 517 CURVE SMOOTH",
"547 553 OFFCURVE",
"537 585 OFFCURVE",
"519 609 CURVE SMOOTH",
"501 633 OFFCURVE",
"474 648 OFFCURVE",
"443 648 CURVE SMOOTH",
"231 648 LINE",
"162 324 LINE"
);
}
);
width = 628;
}
);
leftKerningGroup = B;
note = R;
rightKerningGroup = R;
unicode = 0052;
},
{
glyphname = R.sc;
layers = (
{
layerId = "DC6C2CDD-F679-463F-ABCE-FDFA3FC576E2";
name = "Regular Italic";
paths = (
{
closed = 1;
nodes = (
"135 548 LINE",
"376 548 LINE SMOOTH",
"420 548 OFFCURVE",
"454 530 OFFCURVE",
"478 503 CURVE",
"501 475 OFFCURVE",
"514 438 OFFCURVE",
"514 401 CURVE SMOOTH",
"514 358 OFFCURVE",
"496 315 OFFCURVE",
"467 281 CURVE SMOOTH",
"438 247 OFFCURVE",
"397 220 OFFCURVE",
"352 211 CURVE",
"446 0 LINE",
"374 0 LINE",
"285 199 LINE",
"123 199 LINE",
"81 0 LINE",
"18 0 LINE"
);
},
{
closed = 1;
nodes = (
"315 255 LINE SMOOTH",
"351 255 OFFCURVE",
"385 273 OFFCURVE",
"410 299 CURVE SMOOTH",
"434 325 OFFCURVE",
"450 359 OFFCURVE",
"450 394 CURVE SMOOTH",
"450 447 OFFCURVE",
"414 492 OFFCURVE",
"361 492 CURVE SMOOTH",
"185 492 LINE",
"135 255 LINE"
);
}
);
width = 550;
}
);
leftKerningGroup = B.sc;
note = R.sc;
rightKerningGroup = R.sc;
},
{
glyphname = Racute;
layers = (
{
layerId = "DC6C2CDD-F679-463F-ABCE-FDFA3FC576E2";
name = "Regular Italic";
paths = (
{
closed = 1;
nodes = (
"404 809 LINE",
"362 826 LINE",
"438 919 LINE",
"509 919 LINE"
);
},
{
closed = 1;
nodes = (
"24 0 LINE",
"175 710 LINE",
"460 710 LINE SMOOTH",
"509 710 OFFCURVE",
"550 688 OFFCURVE",
"577 653 CURVE SMOOTH",
"604 618 OFFCURVE",
"619 572 OFFCURVE",
"619 525 CURVE SMOOTH",
"619 468 OFFCURVE",
"596 410 OFFCURVE",
"560 365 CURVE SMOOTH",
"524 320 OFFCURVE",
"474 285 OFFCURVE",
"419 274 CURVE",
"526 0 LINE",
"447 0 LINE",
"345 262 LINE",
"149 262 LINE",
"93 0 LINE"
);
},
{
closed = 1;
nodes = (
"381 324 LINE SMOOTH",
"426 324 OFFCURVE",
"469 349 OFFCURVE",
"499 386 CURVE SMOOTH",
"529 422 OFFCURVE",
"547 470 OFFCURVE",
"547 517 CURVE SMOOTH",
"547 553 OFFCURVE",
"537 585 OFFCURVE",
"519 609 CURVE SMOOTH",
"501 633 OFFCURVE",
"474 648 OFFCURVE",
"443 648 CURVE SMOOTH",
"231 648 LINE",
"162 324 LINE"
);
}
);
width = 628;
}
);
leftKerningGroup = B;
note = Racute;
rightKerningGroup = R;
unicode = 0154;
},
{
glyphname = Rcaron;
layers = (
{
layerId = "DC6C2CDD-F679-463F-ABCE-FDFA3FC576E2";
name = "Regular Italic";
paths = (
{
closed = 1;
nodes = (
"318 899 LINE",
"361 919 LINE",
"428 856 LINE",
"522 919 LINE",
"556 899 LINE",
"444 813 LINE",
"394 813 LINE"
);
},
{
closed = 1;
nodes = (
"24 0 LINE",
"175 710 LINE",
"460 710 LINE SMOOTH",
"509 710 OFFCURVE",
"550 688 OFFCURVE",
"577 653 CURVE SMOOTH",
"604 618 OFFCURVE",
"619 572 OFFCURVE",
"619 525 CURVE SMOOTH",
"619 468 OFFCURVE",
"596 410 OFFCURVE",
"560 365 CURVE SMOOTH",
"524 320 OFFCURVE",
"474 285 OFFCURVE",
"419 274 CURVE",
"526 0 LINE",
"447 0 LINE",
"345 262 LINE",
"149 262 LINE",
"93 0 LINE"
);
},
{
closed = 1;
nodes = (
"381 324 LINE SMOOTH",
"426 324 OFFCURVE",
"469 349 OFFCURVE",
"499 386 CURVE SMOOTH",
"529 422 OFFCURVE",
"547 470 OFFCURVE",
"547 517 CURVE SMOOTH",
"547 553 OFFCURVE",
"537 585 OFFCURVE",
"519 609 CURVE SMOOTH",
"501 633 OFFCURVE",
"474 648 OFFCURVE",
"443 648 CURVE SMOOTH",
"231 648 LINE",
"162 324 LINE"
);
}
);
width = 628;
}
);
leftKerningGroup = B;
note = Rcaron;
rightKerningGroup = R;
unicode = 0158;
},
{
glyphname = Rcommaaccent;
layers = (
{
layerId = "DC6C2CDD-F679-463F-ABCE-FDFA3FC576E2";
name = "Regular Italic";
paths = (
{
closed = 1;
nodes = (
"183 -199 LINE",
"215 -125 LINE",
"195 -125 LINE",
"212 -49 LINE",
"273 -49 LINE",
"257 -125 LINE",
"217 -199 LINE"
);
},
{
closed = 1;
nodes = (
"24 0 LINE",
"175 710 LINE",
"460 710 LINE SMOOTH",
"509 710 OFFCURVE",
"550 688 OFFCURVE",
"577 653 CURVE SMOOTH",
"604 618 OFFCURVE",
"619 572 OFFCURVE",
"619 525 CURVE SMOOTH",
"619 468 OFFCURVE",
"596 410 OFFCURVE",
"560 365 CURVE SMOOTH",
"524 320 OFFCURVE",
"474 285 OFFCURVE",
"419 274 CURVE",
"526 0 LINE",
"447 0 LINE",
"345 262 LINE",
"149 262 LINE",
"93 0 LINE"
);
},
{
closed = 1;
nodes = (
"381 324 LINE SMOOTH",
"426 324 OFFCURVE",
"469 349 OFFCURVE",
"499 386 CURVE SMOOTH",
"529 422 OFFCURVE",
"547 470 OFFCURVE",
"547 517 CURVE SMOOTH",
"547 553 OFFCURVE",
"537 585 OFFCURVE",
"519 609 CURVE SMOOTH",
"501 633 OFFCURVE",
"474 648 OFFCURVE",
"443 648 CURVE SMOOTH",
"231 648 LINE",
"162 324 LINE"
);
}
);
width = 628;
}
);
leftKerningGroup = B;
note = Rcommaaccent;
rightKerningGroup = R;
unicode = 0156;
},
{
glyphname = S;
layers = (
{
layerId = "DC6C2CDD-F679-463F-ABCE-FDFA3FC576E2";
name = "Regular Italic";
paths = (
{
closed = 1;
nodes = (
"135 -6 OFFCURVE",
"52 28 OFFCURVE",
"-9 97 CURVE",
"38 154 LINE",
"74 99 OFFCURVE",
"152 56 OFFCURVE",
"256 56 CURVE SMOOTH",
"377 56 OFFCURVE",
"453 107 OFFCURVE",
"453 202 CURVE SMOOTH",
"453 237 OFFCURVE",
"438 260 OFFCURVE",
"408 280 CURVE SMOOTH",
"378 299 OFFCURVE",
"335 311 OFFCURVE",
"279 326 CURVE SMOOTH",
"222 341 OFFCURVE",
"177 356 OFFCURVE",
"146 379 CURVE SMOOTH",
"115 402 OFFCURVE",
"99 432 OFFCURVE",
"99 475 CURVE SMOOTH",
"99 550 OFFCURVE",
"131 610 OFFCURVE",
"183 651 CURVE SMOOTH",
"235 692 OFFCURVE",
"307 715 OFFCURVE",
"388 715 CURVE SMOOTH",
"477 715 OFFCURVE",
"543 685 OFFCURVE",
"587 633 CURVE",
"542 577 LINE",
"515 622 OFFCURVE",
"454 653 OFFCURVE",
"374 653 CURVE SMOOTH",
"305 653 OFFCURVE",
"255 636 OFFCURVE",
"223 608 CURVE SMOOTH",
"190 580 OFFCURVE",
"175 541 OFFCURVE",
"175 497 CURVE SMOOTH",
"175 465 OFFCURVE",
"188 443 OFFCURVE",
"215 427 CURVE SMOOTH",
"242 410 OFFCURVE",
"282 398 OFFCURVE",
"335 385 CURVE SMOOTH",
"394 370 OFFCURVE",
"443 355 OFFCURVE",
"477 331 CURVE SMOOTH",
"511 306 OFFCURVE",
"530 272 OFFCURVE",
"530 223 CURVE SMOOTH",
"530 147 OFFCURVE",
"498 90 OFFCURVE",
"446 52 CURVE SMOOTH",
"394 14 OFFCURVE",
"322 -6 OFFCURVE",
"241 -6 CURVE SMOOTH"
);
}
);
width = 585;
}
);
leftKerningGroup = S;
note = S;
rightKerningGroup = S;
unicode = 0053;
},
{
glyphname = S.sc;
layers = (
{
layerId = "DC6C2CDD-F679-463F-ABCE-FDFA3FC576E2";
name = "Regular Italic";
paths = (
{
closed = 1;
nodes = (
"113 -5 OFFCURVE",
"42 21 OFFCURVE",
"-11 73 CURVE",
"31 125 LINE",
"63 82 OFFCURVE",
"126 50 OFFCURVE",
"214 50 CURVE SMOOTH",
"309 50 OFFCURVE",
"370 87 OFFCURVE",
"370 155 CURVE SMOOTH",
"370 207 OFFCURVE",
"319 227 OFFCURVE",
"224 248 CURVE SMOOTH",
"176 259 OFFCURVE",
"139 271 OFFCURVE",
"114 290 CURVE SMOOTH",
"89 309 OFFCURVE",
"76 332 OFFCURVE",
"76 367 CURVE SMOOTH",
"76 426 OFFCURVE",
"102 471 OFFCURVE",
"145 503 CURVE SMOOTH",
"188 534 OFFCURVE",
"246 551 OFFCURVE",
"313 551 CURVE SMOOTH",
"386 551 OFFCURVE",
"442 530 OFFCURVE",
"481 488 CURVE",
"442 438 LINE",
"417 473 OFFCURVE",
"369 496 OFFCURVE",
"301 496 CURVE SMOOTH",
"189 496 OFFCURVE",
"142 449 OFFCURVE",
"142 385 CURVE SMOOTH",
"142 338 OFFCURVE",
"187 321 OFFCURVE",
"276 300 CURVE SMOOTH",
"325 288 OFFCURVE",
"366 276 OFFCURVE",
"395 257 CURVE",
"423 237 OFFCURVE",
"439 212 OFFCURVE",
"439 173 CURVE SMOOTH",
"439 113 OFFCURVE",
"413 68 OFFCURVE",
"370 39 CURVE SMOOTH",
"326 10 OFFCURVE",
"267 -5 OFFCURVE",
"200 -5 CURVE SMOOTH"
);
}
);
width = 508;
}
);
leftKerningGroup = S.sc;
note = S.sc;
rightKerningGroup = S.sc;
},
{
glyphname = Sacute;
layers = (
{
layerId = "DC6C2CDD-F679-463F-ABCE-FDFA3FC576E2";
name = "Regular Italic";
paths = (
{
closed = 1;
nodes = (
"407 823 LINE",
"365 840 LINE",
"441 933 LINE",
"512 933 LINE"
);
},
{
closed = 1;
nodes = (
"135 -6 OFFCURVE",
"52 28 OFFCURVE",
"-9 97 CURVE",
"38 154 LINE",
"74 99 OFFCURVE",
"152 56 OFFCURVE",
"256 56 CURVE SMOOTH",
"377 56 OFFCURVE",
"453 107 OFFCURVE",
"453 202 CURVE SMOOTH",
"453 237 OFFCURVE",
"438 260 OFFCURVE",
"408 280 CURVE SMOOTH",
"378 299 OFFCURVE",
"335 311 OFFCURVE",
"279 326 CURVE SMOOTH",
"222 341 OFFCURVE",
"177 356 OFFCURVE",
"146 379 CURVE SMOOTH",
"115 402 OFFCURVE",
"99 432 OFFCURVE",
"99 475 CURVE SMOOTH",
"99 550 OFFCURVE",
"131 610 OFFCURVE",
"183 651 CURVE SMOOTH",
"235 692 OFFCURVE",
"307 715 OFFCURVE",
"388 715 CURVE SMOOTH",
"477 715 OFFCURVE",
"543 685 OFFCURVE",
"587 633 CURVE",
"542 577 LINE",
"515 622 OFFCURVE",
"454 653 OFFCURVE",
"374 653 CURVE SMOOTH",
"305 653 OFFCURVE",
"255 636 OFFCURVE",
"223 608 CURVE SMOOTH",
"190 580 OFFCURVE",
"175 541 OFFCURVE",
"175 497 CURVE SMOOTH",
"175 465 OFFCURVE",
"188 443 OFFCURVE",
"215 427 CURVE SMOOTH",
"242 410 OFFCURVE",
"282 398 OFFCURVE",
"335 385 CURVE SMOOTH",
"394 370 OFFCURVE",
"443 355 OFFCURVE",
"477 331 CURVE SMOOTH",
"511 306 OFFCURVE",
"530 272 OFFCURVE",
"530 223 CURVE SMOOTH",
"530 147 OFFCURVE",
"498 90 OFFCURVE",
"446 52 CURVE SMOOTH",
"394 14 OFFCURVE",
"322 -6 OFFCURVE",
"241 -6 CURVE SMOOTH"
);
}
);
width = 585;
}
);
leftKerningGroup = S;
note = Sacute;
rightKerningGroup = S;
unicode = 015A;
},
{
glyphname = Scaron;
layers = (
{
layerId = "DC6C2CDD-F679-463F-ABCE-FDFA3FC576E2";
name = "Regular Italic";
paths = (
{
closed = 1;
nodes = (
"305 913 LINE",
"348 933 LINE",
"415 870 LINE",
"509 933 LINE",
"543 913 LINE",
"431 827 LINE",
"381 827 LINE"
);
},
{
closed = 1;
nodes = (
"135 -6 OFFCURVE",
"52 28 OFFCURVE",
"-9 97 CURVE",
"38 154 LINE",
"74 99 OFFCURVE",
"152 56 OFFCURVE",
"256 56 CURVE SMOOTH",
"377 56 OFFCURVE",
"453 107 OFFCURVE",
"453 202 CURVE SMOOTH",
"453 237 OFFCURVE",
"438 260 OFFCURVE",
"408 280 CURVE SMOOTH",
"378 299 OFFCURVE",
"335 311 OFFCURVE",
"279 326 CURVE SMOOTH",
"222 341 OFFCURVE",
"177 356 OFFCURVE",
"146 379 CURVE SMOOTH",
"115 402 OFFCURVE",
"99 432 OFFCURVE",
"99 475 CURVE SMOOTH",
"99 550 OFFCURVE",
"131 610 OFFCURVE",
"183 651 CURVE SMOOTH",
"235 692 OFFCURVE",
"307 715 OFFCURVE",
"388 715 CURVE SMOOTH",
"477 715 OFFCURVE",
"543 685 OFFCURVE",
"587 633 CURVE",
"542 577 LINE",
"515 622 OFFCURVE",
"454 653 OFFCURVE",
"374 653 CURVE SMOOTH",
"305 653 OFFCURVE",
"255 636 OFFCURVE",
"223 608 CURVE SMOOTH",
"190 580 OFFCURVE",
"175 541 OFFCURVE",
"175 497 CURVE SMOOTH",
"175 465 OFFCURVE",
"188 443 OFFCURVE",
"215 427 CURVE SMOOTH",
"242 410 OFFCURVE",
"282 398 OFFCURVE",
"335 385 CURVE SMOOTH",
"394 370 OFFCURVE",
"443 355 OFFCURVE",
"477 331 CURVE SMOOTH",
"511 306 OFFCURVE",
"530 272 OFFCURVE",
"530 223 CURVE SMOOTH",
"530 147 OFFCURVE",
"498 90 OFFCURVE",
"446 52 CURVE SMOOTH",
"394 14 OFFCURVE",
"322 -6 OFFCURVE",
"241 -6 CURVE SMOOTH"
);
}
);
width = 585;
}
);
leftKerningGroup = S;
note = Scaron;
rightKerningGroup = S;
unicode = 0160;
},
{
glyphname = Scircumflex;
layers = (
{
layerId = "DC6C2CDD-F679-463F-ABCE-FDFA3FC576E2";
name = "Regular Italic";
paths = (
{
closed = 1;
nodes = (
"298 848 LINE",
"411 933 LINE",
"461 933 LINE",
"536 848 LINE",
"494 827 LINE",
"426 890 LINE",
"332 827 LINE"
);
},
{
closed = 1;
nodes = (
"135 -6 OFFCURVE",
"52 28 OFFCURVE",
"-9 97 CURVE",
"38 154 LINE",
"74 99 OFFCURVE",
"152 56 OFFCURVE",
"256 56 CURVE SMOOTH",
"377 56 OFFCURVE",
"453 107 OFFCURVE",
"453 202 CURVE SMOOTH",
"453 237 OFFCURVE",
"438 260 OFFCURVE",
"408 280 CURVE SMOOTH",
"378 299 OFFCURVE",
"335 311 OFFCURVE",
"279 326 CURVE SMOOTH",
"222 341 OFFCURVE",
"177 356 OFFCURVE",
"146 379 CURVE SMOOTH",
"115 402 OFFCURVE",
"99 432 OFFCURVE",
"99 475 CURVE SMOOTH",
"99 550 OFFCURVE",
"131 610 OFFCURVE",
"183 651 CURVE SMOOTH",
"235 692 OFFCURVE",
"307 715 OFFCURVE",
"388 715 CURVE SMOOTH",
"477 715 OFFCURVE",
"543 685 OFFCURVE",
"587 633 CURVE",
"542 577 LINE",
"515 622 OFFCURVE",
"454 653 OFFCURVE",
"374 653 CURVE SMOOTH",
"305 653 OFFCURVE",
"255 636 OFFCURVE",
"223 608 CURVE SMOOTH",
"190 580 OFFCURVE",
"175 541 OFFCURVE",
"175 497 CURVE SMOOTH",
"175 465 OFFCURVE",
"188 443 OFFCURVE",
"215 427 CURVE SMOOTH",
"242 410 OFFCURVE",
"282 398 OFFCURVE",
"335 385 CURVE SMOOTH",
"394 370 OFFCURVE",
"443 355 OFFCURVE",
"477 331 CURVE SMOOTH",
"511 306 OFFCURVE",
"530 272 OFFCURVE",
"530 223 CURVE SMOOTH",
"530 147 OFFCURVE",
"498 90 OFFCURVE",
"446 52 CURVE SMOOTH",
"394 14 OFFCURVE",
"322 -6 OFFCURVE",
"241 -6 CURVE SMOOTH"
);
}
);
width = 585;
}
);
leftKerningGroup = S;
note = Scircumflex;
rightKerningGroup = S;
unicode = 015C;
},
{
glyphname = T;
layers = (
{
layerId = "DC6C2CDD-F679-463F-ABCE-FDFA3FC576E2";
name = "Regular Italic";
paths = (
{
closed = 1;
nodes = (
"328 648 LINE",
"90 648 LINE",
"103 710 LINE",
"650 710 LINE",
"637 648 LINE",
"398 648 LINE",
"260 0 LINE",
"191 0 LINE"
);
}
);
width = 582;
}
);
leftKerningGroup = T;
note = T;
rightKerningGroup = T;
unicode = 0054;
},
{
glyphname = T.sc;
layers = (
{
layerId = "DC6C2CDD-F679-463F-ABCE-FDFA3FC576E2";
name = "Regular Italic";
paths = (
{
closed = 1;
nodes = (
"264 492 LINE",
"63 492 LINE",
"75 548 LINE",
"537 548 LINE",
"525 492 LINE",
"326 492 LINE",
"222 0 LINE",
"159 0 LINE"
);
}
);
width = 509;
}
);
leftKerningGroup = T.sc;
note = T.sc;
rightKerningGroup = T.sc;
},
{
glyphname = Tbar;
layers = (
{
layerId = "DC6C2CDD-F679-463F-ABCE-FDFA3FC576E2";
name = "Regular Italic";
paths = (
{
closed = 1;
nodes = (
"86 405 LINE",
"294 405 LINE",
"346 648 LINE",
"107 648 LINE",
"120 710 LINE",
"667 710 LINE",
"654 648 LINE",
"415 648 LINE",
"363 405 LINE",
"571 405 LINE",
"563 366 LINE",
"354 366 LINE",
"277 0 LINE",
"208 0 LINE",
"286 366 LINE",
"78 366 LINE"
);
}
);
width = 617;
}
);
leftKerningGroup = T;
note = Tbar;
rightKerningGroup = T;
unicode = 0166;
},
{
glyphname = Tcaron;
layers = (
{
layerId = "DC6C2CDD-F679-463F-ABCE-FDFA3FC576E2";
name = "Regular Italic";
paths = (
{
closed = 1;
nodes = (
"291 897 LINE",
"334 917 LINE",
"401 854 LINE",
"495 917 LINE",
"529 897 LINE",
"417 811 LINE",
"367 811 LINE"
);
},
{
closed = 1;
nodes = (
"328 648 LINE",
"90 648 LINE",
"103 710 LINE",
"650 710 LINE",
"637 648 LINE",
"398 648 LINE",
"260 0 LINE",
"191 0 LINE"
);
}
);
width = 582;
}
);
leftKerningGroup = T;
note = Tcaron;
rightKerningGroup = T;
unicode = 0164;
},
{
glyphname = Thorn;
layers = (
{
layerId = "DC6C2CDD-F679-463F-ABCE-FDFA3FC576E2";
name = "Regular Italic";
paths = (
{
closed = 1;
nodes = (
"175 710 LINE",
"244 710 LINE",
"214 569 LINE",
"407 569 LINE SMOOTH",
"456 569 OFFCURVE",
"496 547 OFFCURVE",
"524 512 CURVE SMOOTH",
"551 477 OFFCURVE",
"565 432 OFFCURVE",
"565 384 CURVE SMOOTH",
"565 320 OFFCURVE",
"536 255 OFFCURVE",
"492 205 CURVE SMOOTH",
"447 155 OFFCURVE",
"385 121 OFFCURVE",
"317 121 CURVE SMOOTH",
"119 121 LINE",
"93 0 LINE",
"24 0 LINE"
);
},
{
closed = 1;
nodes = (
"328 184 LINE SMOOTH",
"373 184 OFFCURVE",
"415 209 OFFCURVE",
"446 246 CURVE SMOOTH",
"477 283 OFFCURVE",
"495 330 OFFCURVE",
"495 377 CURVE SMOOTH",
"495 413 OFFCURVE",
"485 445 OFFCURVE",
"466 469 CURVE SMOOTH",
"447 492 OFFCURVE",
"422 507 OFFCURVE",
"390 507 CURVE SMOOTH",
"201 507 LINE",
"132 184 LINE"
);
}
);
width = 579;
}
);
leftKerningGroup = B;
note = Thorn;
rightKerningGroup = Thorn;
unicode = 00DE;
},
{
glyphname = U;
layers = (
{
layerId = "DC6C2CDD-F679-463F-ABCE-FDFA3FC576E2";
name = "Regular Italic";
paths = (
{
closed = 1;
nodes = (
"215 -5 OFFCURVE",
"159 21 OFFCURVE",
"124 64 CURVE SMOOTH",
"89 107 OFFCURVE",
"75 165 OFFCURVE",
"75 230 CURVE SMOOTH",
"75 268 OFFCURVE",
"80 309 OFFCURVE",
"89 352 CURVE SMOOTH",
"165 710 LINE",
"234 710 LINE",
"158 352 LINE SMOOTH",
"150 313 OFFCURVE",
"145 277 OFFCURVE",
"145 242 CURVE SMOOTH",
"145 190 OFFCURVE",
"156 144 OFFCURVE",
"182 112 CURVE SMOOTH",
"208 79 OFFCURVE",
"249 58 OFFCURVE",
"310 58 CURVE SMOOTH",
"394 58 OFFCURVE",
"457 95 OFFCURVE",
"502 151 CURVE SMOOTH",
"546 206 OFFCURVE",
"573 280 OFFCURVE",
"588 352 CURVE SMOOTH",
"664 710 LINE",
"733 710 LINE",
"658 352 LINE SMOOTH",
"638 256 OFFCURVE",
"600 166 OFFCURVE",
"541 102 CURVE SMOOTH",
"481 37 OFFCURVE",
"402 -5 OFFCURVE",
"298 -5 CURVE SMOOTH"
);
}
);
width = 724;
}
);
leftKerningGroup = U;
note = U;
rightKerningGroup = U;
unicode = 0055;
},
{
glyphname = U.sc;
layers = (
{
layerId = "DC6C2CDD-F679-463F-ABCE-FDFA3FC576E2";
name = "Regular Italic";
paths = (
{
closed = 1;
nodes = (
"177 -4 OFFCURVE",
"130 17 OFFCURVE",
"100 51 CURVE SMOOTH",
"70 85 OFFCURVE",
"57 132 OFFCURVE",
"57 184 CURVE SMOOTH",
"57 212 OFFCURVE",
"60 242 OFFCURVE",
"67 271 CURVE SMOOTH",
"126 548 LINE",
"188 548 LINE",
"130 271 LINE SMOOTH",
"125 244 OFFCURVE",
"121 220 OFFCURVE",
"121 196 CURVE SMOOTH",
"121 156 OFFCURVE",
"130 121 OFFCURVE",
"152 95 CURVE SMOOTH",
"174 69 OFFCURVE",
"207 53 OFFCURVE",
"259 53 CURVE SMOOTH",
"328 53 OFFCURVE",
"378 81 OFFCURVE",
"414 122 CURVE SMOOTH",
"450 162 OFFCURVE",
"471 216 OFFCURVE",
"483 271 CURVE SMOOTH",
"542 548 LINE",
"604 548 LINE",
"545 271 LINE SMOOTH",
"529 196 OFFCURVE",
"499 129 OFFCURVE",
"451 78 CURVE SMOOTH",
"402 27 OFFCURVE",
"335 -4 OFFCURVE",
"248 -4 CURVE SMOOTH"
);
}
);
width = 624;
}
);
leftKerningGroup = U.sc;
note = U.sc;
rightKerningGroup = U.sc;
},
{
glyphname = Uacute;
layers = (
{
layerId = "DC6C2CDD-F679-463F-ABCE-FDFA3FC576E2";
name = "Regular Italic";
paths = (
{
closed = 1;
nodes = (
"458 807 LINE",
"416 824 LINE",
"492 917 LINE",
"563 917 LINE"
);
},
{
closed = 1;
nodes = (
"215 -5 OFFCURVE",
"159 21 OFFCURVE",
"124 64 CURVE SMOOTH",
"89 107 OFFCURVE",
"75 165 OFFCURVE",
"75 230 CURVE SMOOTH",
"75 268 OFFCURVE",
"80 309 OFFCURVE",
"89 352 CURVE SMOOTH",
"165 710 LINE",
"234 710 LINE",
"158 352 LINE SMOOTH",
"150 313 OFFCURVE",
"145 277 OFFCURVE",
"145 242 CURVE SMOOTH",
"145 190 OFFCURVE",
"156 144 OFFCURVE",
"182 112 CURVE SMOOTH",
"208 79 OFFCURVE",
"249 58 OFFCURVE",
"310 58 CURVE SMOOTH",
"394 58 OFFCURVE",
"457 95 OFFCURVE",
"502 151 CURVE SMOOTH",
"546 206 OFFCURVE",
"573 280 OFFCURVE",
"588 352 CURVE SMOOTH",
"664 710 LINE",
"733 710 LINE",
"658 352 LINE SMOOTH",
"638 256 OFFCURVE",
"600 166 OFFCURVE",
"541 102 CURVE SMOOTH",
"481 37 OFFCURVE",
"402 -5 OFFCURVE",
"298 -5 CURVE SMOOTH"
);
}
);
width = 724;
}
);
leftKerningGroup = U;
note = Uacute;
rightKerningGroup = U;
unicode = 00DA;
},
{
glyphname = Ubreve;
layers = (
{
layerId = "DC6C2CDD-F679-463F-ABCE-FDFA3FC576E2";
name = "Regular Italic";
paths = (
{
closed = 1;
nodes = (
"215 -5 OFFCURVE",
"159 21 OFFCURVE",
"124 64 CURVE SMOOTH",
"89 107 OFFCURVE",
"75 165 OFFCURVE",
"75 230 CURVE SMOOTH",
"75 268 OFFCURVE",
"80 309 OFFCURVE",
"89 352 CURVE SMOOTH",
"165 710 LINE",
"234 710 LINE",
"158 352 LINE SMOOTH",
"150 313 OFFCURVE",
"145 277 OFFCURVE",
"145 242 CURVE SMOOTH",
"145 190 OFFCURVE",
"156 144 OFFCURVE",
"182 112 CURVE SMOOTH",
"208 79 OFFCURVE",
"249 58 OFFCURVE",
"310 58 CURVE SMOOTH",
"394 58 OFFCURVE",
"457 95 OFFCURVE",
"502 151 CURVE SMOOTH",
"546 206 OFFCURVE",
"573 280 OFFCURVE",
"588 352 CURVE SMOOTH",
"664 710 LINE",
"733 710 LINE",
"658 352 LINE SMOOTH",
"638 256 OFFCURVE",
"600 166 OFFCURVE",
"541 102 CURVE SMOOTH",
"481 37 OFFCURVE",
"402 -5 OFFCURVE",
"298 -5 CURVE SMOOTH"
);
},
{
closed = 1;
nodes = (
"494 851 OFFCURVE",
"524 880 OFFCURVE",
"536 917 CURVE",
"576 917 LINE",
"569 889 OFFCURVE",
"554 864 OFFCURVE",
"534 846 CURVE SMOOTH",
"513 828 OFFCURVE",
"487 816 OFFCURVE",
"460 816 CURVE SMOOTH",
"413 816 OFFCURVE",
"383 849 OFFCURVE",
"383 894 CURVE SMOOTH",
"383 901 OFFCURVE",
"384 909 OFFCURVE",
"386 917 CURVE",
"428 917 LINE",
"427 910 OFFCURVE",
"426 905 OFFCURVE",
"426 902 CURVE SMOOTH",
"426 874 OFFCURVE",
"443 851 OFFCURVE",
"467 851 CURVE SMOOTH"
);
}
);
width = 724;
}
);
leftKerningGroup = U;
note = Ubreve;
rightKerningGroup = U;
unicode = 016C;
},
{
glyphname = Ucircumflex;
layers = (
{
layerId = "DC6C2CDD-F679-463F-ABCE-FDFA3FC576E2";
name = "Regular Italic";
paths = (
{
closed = 1;
nodes = (
"352 832 LINE",
"465 917 LINE",
"515 917 LINE",
"590 832 LINE",
"548 811 LINE",
"480 874 LINE",
"386 811 LINE"
);
},
{
closed = 1;
nodes = (
"215 -5 OFFCURVE",
"159 21 OFFCURVE",
"124 64 CURVE SMOOTH",
"89 107 OFFCURVE",
"75 165 OFFCURVE",
"75 230 CURVE SMOOTH",
"75 268 OFFCURVE",
"80 309 OFFCURVE",
"89 352 CURVE SMOOTH",
"165 710 LINE",
"234 710 LINE",
"158 352 LINE SMOOTH",
"150 313 OFFCURVE",
"145 277 OFFCURVE",
"145 242 CURVE SMOOTH",
"145 190 OFFCURVE",
"156 144 OFFCURVE",
"182 112 CURVE SMOOTH",
"208 79 OFFCURVE",
"249 58 OFFCURVE",
"310 58 CURVE SMOOTH",
"394 58 OFFCURVE",
"457 95 OFFCURVE",
"502 151 CURVE SMOOTH",
"546 206 OFFCURVE",
"573 280 OFFCURVE",
"588 352 CURVE SMOOTH",
"664 710 LINE",
"733 710 LINE",
"658 352 LINE SMOOTH",
"638 256 OFFCURVE",
"600 166 OFFCURVE",
"541 102 CURVE SMOOTH",
"481 37 OFFCURVE",
"402 -5 OFFCURVE",
"298 -5 CURVE SMOOTH"
);
}
);
width = 724;
}
);
leftKerningGroup = U;
note = Ucircumflex;
rightKerningGroup = U;
unicode = 00DB;
},
{
glyphname = Udieresis;
layers = (
{
layerId = "DC6C2CDD-F679-463F-ABCE-FDFA3FC576E2";
name = "Regular Italic";
paths = (
{
closed = 1;
nodes = (
"365 820 LINE",
"386 914 LINE",
"444 914 LINE",
"423 820 LINE"
);
},
{
closed = 1;
nodes = (
"509 820 LINE",
"529 914 LINE",
"586 914 LINE",
"567 820 LINE"
);
},
{
closed = 1;
nodes = (
"215 -5 OFFCURVE",
"159 21 OFFCURVE",
"124 64 CURVE SMOOTH",
"89 107 OFFCURVE",
"75 165 OFFCURVE",
"75 230 CURVE SMOOTH",
"75 268 OFFCURVE",
"80 309 OFFCURVE",
"89 352 CURVE SMOOTH",
"165 710 LINE",
"234 710 LINE",
"158 352 LINE SMOOTH",
"150 313 OFFCURVE",
"145 277 OFFCURVE",
"145 242 CURVE SMOOTH",
"145 190 OFFCURVE",
"156 144 OFFCURVE",
"182 112 CURVE SMOOTH",
"208 79 OFFCURVE",
"249 58 OFFCURVE",
"310 58 CURVE SMOOTH",
"394 58 OFFCURVE",
"457 95 OFFCURVE",
"502 151 CURVE SMOOTH",
"546 206 OFFCURVE",
"573 280 OFFCURVE",
"588 352 CURVE SMOOTH",
"664 710 LINE",
"733 710 LINE",
"658 352 LINE SMOOTH",
"638 256 OFFCURVE",
"600 166 OFFCURVE",
"541 102 CURVE SMOOTH",
"481 37 OFFCURVE",
"402 -5 OFFCURVE",
"298 -5 CURVE SMOOTH"
);
}
);
width = 724;
}
);
leftKerningGroup = U;
note = Udieresis;
rightKerningGroup = U;
unicode = 00DC;
},
{
glyphname = Ugrave;
layers = (
{
layerId = "DC6C2CDD-F679-463F-ABCE-FDFA3FC576E2";
name = "Regular Italic";
paths = (
{
closed = 1;
nodes = (
"215 -5 OFFCURVE",
"159 21 OFFCURVE",
"124 64 CURVE SMOOTH",
"89 107 OFFCURVE",
"75 165 OFFCURVE",
"75 230 CURVE SMOOTH",
"75 268 OFFCURVE",
"80 309 OFFCURVE",
"89 352 CURVE SMOOTH",
"165 710 LINE",
"234 710 LINE",
"158 352 LINE SMOOTH",
"150 313 OFFCURVE",
"145 277 OFFCURVE",
"145 242 CURVE SMOOTH",
"145 190 OFFCURVE",
"156 144 OFFCURVE",
"182 112 CURVE SMOOTH",
"208 79 OFFCURVE",
"249 58 OFFCURVE",
"310 58 CURVE SMOOTH",
"394 58 OFFCURVE",
"457 95 OFFCURVE",
"502 151 CURVE SMOOTH",
"546 206 OFFCURVE",
"573 280 OFFCURVE",
"588 352 CURVE SMOOTH",
"664 710 LINE",
"733 710 LINE",
"658 352 LINE SMOOTH",
"638 256 OFFCURVE",
"600 166 OFFCURVE",
"541 102 CURVE SMOOTH",
"481 37 OFFCURVE",
"402 -5 OFFCURVE",
"298 -5 CURVE SMOOTH"
);
},
{
closed = 1;
nodes = (
"409 917 LINE",
"479 917 LINE",
"517 824 LINE",
"468 807 LINE"
);
}
);
width = 724;
}
);
leftKerningGroup = U;
note = Ugrave;
rightKerningGroup = U;
unicode = 00D9;
},
{
glyphname = Uhungarumlaut;
layers = (
{
layerId = "DC6C2CDD-F679-463F-ABCE-FDFA3FC576E2";
name = "Regular Italic";
paths = (
{
closed = 1;
nodes = (
"215 -5 OFFCURVE",
"159 21 OFFCURVE",
"124 64 CURVE SMOOTH",
"89 107 OFFCURVE",
"75 165 OFFCURVE",
"75 230 CURVE SMOOTH",
"75 268 OFFCURVE",
"80 309 OFFCURVE",
"89 352 CURVE SMOOTH",
"165 710 LINE",
"234 710 LINE",
"158 352 LINE SMOOTH",
"150 313 OFFCURVE",
"145 277 OFFCURVE",
"145 242 CURVE SMOOTH",
"145 190 OFFCURVE",
"156 144 OFFCURVE",
"182 112 CURVE SMOOTH",
"208 79 OFFCURVE",
"249 58 OFFCURVE",
"310 58 CURVE SMOOTH",
"394 58 OFFCURVE",
"457 95 OFFCURVE",
"502 151 CURVE SMOOTH",
"546 206 OFFCURVE",
"573 280 OFFCURVE",
"588 352 CURVE SMOOTH",
"664 710 LINE",
"733 710 LINE",
"658 352 LINE SMOOTH",
"638 256 OFFCURVE",
"600 166 OFFCURVE",
"541 102 CURVE SMOOTH",
"481 37 OFFCURVE",
"402 -5 OFFCURVE",
"298 -5 CURVE SMOOTH"
);
},
{
closed = 1;
nodes = (
"390 807 LINE",
"357 824 LINE",
"430 917 LINE",
"493 917 LINE"
);
},
{
closed = 1;
nodes = (
"511 807 LINE",
"479 824 LINE",
"552 917 LINE",
"614 917 LINE"
);
}
);
width = 724;
}
);
leftKerningGroup = U;
note = Uhungarumlaut;
rightKerningGroup = U;
unicode = 0170;
},
{
glyphname = Umacron;
layers = (
{
layerId = "DC6C2CDD-F679-463F-ABCE-FDFA3FC576E2";
name = "Regular Italic";
paths = (
{
closed = 1;
nodes = (
"215 -5 OFFCURVE",
"159 21 OFFCURVE",
"124 64 CURVE SMOOTH",
"89 107 OFFCURVE",
"75 165 OFFCURVE",
"75 230 CURVE SMOOTH",
"75 268 OFFCURVE",
"80 309 OFFCURVE",
"89 352 CURVE SMOOTH",
"165 710 LINE",
"234 710 LINE",
"158 352 LINE SMOOTH",
"150 313 OFFCURVE",
"145 277 OFFCURVE",
"145 242 CURVE SMOOTH",
"145 190 OFFCURVE",
"156 144 OFFCURVE",
"182 112 CURVE SMOOTH",
"208 79 OFFCURVE",
"249 58 OFFCURVE",
"310 58 CURVE SMOOTH",
"394 58 OFFCURVE",
"457 95 OFFCURVE",
"502 151 CURVE SMOOTH",
"546 206 OFFCURVE",
"573 280 OFFCURVE",
"588 352 CURVE SMOOTH",
"664 710 LINE",
"733 710 LINE",
"658 352 LINE SMOOTH",
"638 256 OFFCURVE",
"600 166 OFFCURVE",
"541 102 CURVE SMOOTH",
"481 37 OFFCURVE",
"402 -5 OFFCURVE",
"298 -5 CURVE SMOOTH"
);
},
{
closed = 1;
nodes = (
"336 849 LINE",
"346 896 LINE",
"621 896 LINE",
"611 849 LINE"
);
}
);
width = 724;
}
);
leftKerningGroup = U;
note = Umacron;
rightKerningGroup = U;
unicode = 016A;
},
{
glyphname = Uogonek;
layers = (
{
layerId = "DC6C2CDD-F679-463F-ABCE-FDFA3FC576E2";
name = "Regular Italic";
paths = (
{
closed = 1;
nodes = (
"198 -167 OFFCURVE",
"178 -144 OFFCURVE",
"178 -115 CURVE SMOOTH",
"178 -78 OFFCURVE",
"205 -45 OFFCURVE",
"269 -4 CURVE",
"197 1 OFFCURVE",
"149 30 OFFCURVE",
"118 72 CURVE SMOOTH",
"87 114 OFFCURVE",
"75 169 OFFCURVE",
"75 230 CURVE SMOOTH",
"75 268 OFFCURVE",
"80 309 OFFCURVE",
"89 352 CURVE SMOOTH",
"165 710 LINE",
"234 710 LINE",
"158 352 LINE SMOOTH",
"150 313 OFFCURVE",
"145 277 OFFCURVE",
"145 242 CURVE SMOOTH",
"145 190 OFFCURVE",
"156 144 OFFCURVE",
"182 112 CURVE SMOOTH",
"208 79 OFFCURVE",
"249 58 OFFCURVE",
"310 58 CURVE SMOOTH",
"394 58 OFFCURVE",
"457 95 OFFCURVE",
"502 151 CURVE SMOOTH",
"546 206 OFFCURVE",
"573 280 OFFCURVE",
"588 352 CURVE SMOOTH",
"664 710 LINE",
"733 710 LINE",
"658 352 LINE SMOOTH",
"638 259 OFFCURVE",
"602 171 OFFCURVE",
"546 107 CURVE SMOOTH",
"489 42 OFFCURVE",
"412 0 OFFCURVE",
"315 -4 CURVE",
"280 -25 OFFCURVE",
"256 -42 OFFCURVE",
"243 -57 CURVE",
"229 -72 OFFCURVE",
"222 -87 OFFCURVE",
"222 -102 CURVE SMOOTH",
"222 -122 OFFCURVE",
"236 -134 OFFCURVE",
"264 -138 CURVE",
"238 -176 LINE"
);
}
);
width = 724;
}
);
leftKerningGroup = U;
note = Uogonek;
rightKerningGroup = U;
unicode = 0172;
},
{
glyphname = Uring;
layers = (
{
layerId = "DC6C2CDD-F679-463F-ABCE-FDFA3FC576E2";
name = "Regular Italic";
paths = (
{
closed = 1;
nodes = (
"403 886 OFFCURVE",
"443 917 OFFCURVE",
"490 917 CURVE SMOOTH",
"526 917 OFFCURVE",
"548 896 OFFCURVE",
"548 864 CURVE SMOOTH",
"548 819 OFFCURVE",
"510 786 OFFCURVE",
"461 786 CURVE SMOOTH",
"425 786 OFFCURVE",
"403 807 OFFCURVE",
"403 839 CURVE SMOOTH"
);
},
{
closed = 1;
nodes = (
"460 890 OFFCURVE",
"436 871 OFFCURVE",
"436 844 CURVE SMOOTH",
"436 827 OFFCURVE",
"448 813 OFFCURVE",
"467 813 CURVE SMOOTH",
"490 813 OFFCURVE",
"516 832 OFFCURVE",
"516 859 CURVE SMOOTH",
"516 878 OFFCURVE",
"503 890 OFFCURVE",
"484 890 CURVE SMOOTH"
);
},
{
closed = 1;
nodes = (
"215 -5 OFFCURVE",
"159 21 OFFCURVE",
"124 64 CURVE SMOOTH",
"89 107 OFFCURVE",
"75 165 OFFCURVE",
"75 230 CURVE SMOOTH",
"75 268 OFFCURVE",
"80 309 OFFCURVE",
"89 352 CURVE SMOOTH",
"165 710 LINE",
"234 710 LINE",
"158 352 LINE SMOOTH",
"150 313 OFFCURVE",
"145 277 OFFCURVE",
"145 242 CURVE SMOOTH",
"145 190 OFFCURVE",
"156 144 OFFCURVE",
"182 112 CURVE SMOOTH",
"208 79 OFFCURVE",
"249 58 OFFCURVE",
"310 58 CURVE SMOOTH",
"394 58 OFFCURVE",
"457 95 OFFCURVE",
"502 151 CURVE SMOOTH",
"546 206 OFFCURVE",
"573 280 OFFCURVE",
"588 352 CURVE SMOOTH",
"664 710 LINE",
"733 710 LINE",
"658 352 LINE SMOOTH",
"638 256 OFFCURVE",
"600 166 OFFCURVE",
"541 102 CURVE SMOOTH",
"481 37 OFFCURVE",
"402 -5 OFFCURVE",
"298 -5 CURVE SMOOTH"
);
}
);
width = 724;
}
);
leftKerningGroup = U;
note = Uring;
rightKerningGroup = U;
unicode = 016E;
},
{
glyphname = Utilde;
layers = (
{
layerId = "DC6C2CDD-F679-463F-ABCE-FDFA3FC576E2";
name = "Regular Italic";
paths = (
{
closed = 1;
nodes = (
"215 -5 OFFCURVE",
"159 21 OFFCURVE",
"124 64 CURVE SMOOTH",
"89 107 OFFCURVE",
"75 165 OFFCURVE",
"75 230 CURVE SMOOTH",
"75 268 OFFCURVE",
"80 309 OFFCURVE",
"89 352 CURVE SMOOTH",
"165 710 LINE",
"234 710 LINE",
"158 352 LINE SMOOTH",
"150 313 OFFCURVE",
"145 277 OFFCURVE",
"145 242 CURVE SMOOTH",
"145 190 OFFCURVE",
"156 144 OFFCURVE",
"182 112 CURVE SMOOTH",
"208 79 OFFCURVE",
"249 58 OFFCURVE",
"310 58 CURVE SMOOTH",
"394 58 OFFCURVE",
"457 95 OFFCURVE",
"502 151 CURVE SMOOTH",
"546 206 OFFCURVE",
"573 280 OFFCURVE",
"588 352 CURVE SMOOTH",
"664 710 LINE",
"733 710 LINE",
"658 352 LINE SMOOTH",
"638 256 OFFCURVE",
"600 166 OFFCURVE",
"541 102 CURVE SMOOTH",
"481 37 OFFCURVE",
"402 -5 OFFCURVE",
"298 -5 CURVE SMOOTH"
);
},
{
closed = 1;
nodes = (
"497 825 OFFCURVE",
"479 835 OFFCURVE",
"463 845 CURVE SMOOTH",
"447 855 OFFCURVE",
"432 865 OFFCURVE",
"412 865 CURVE SMOOTH",
"392 865 OFFCURVE",
"377 854 OFFCURVE",
"369 843 CURVE",
"364 837 OFFCURVE",
"361 832 OFFCURVE",
"359 827 CURVE",
"356 822 OFFCURVE",
"355 818 OFFCURVE",
"355 817 CURVE",
"313 817 LINE",
"314 824 OFFCURVE",
"324 848 OFFCURVE",
"341 869 CURVE SMOOTH",
"358 890 OFFCURVE",
"385 910 OFFCURVE",
"421 910 CURVE SMOOTH",
"448 910 OFFCURVE",
"464 900 OFFCURVE",
"480 889 CURVE SMOOTH",
"496 878 OFFCURVE",
"510 868 OFFCURVE",
"534 868 CURVE SMOOTH",
"558 868 OFFCURVE",
"575 879 OFFCURVE",
"584 891 CURVE",
"589 897 OFFCURVE",
"592 903 OFFCURVE",
"595 908 CURVE",
"597 913 OFFCURVE",
"598 916 OFFCURVE",
"598 917 CURVE",
"640 917 LINE",
"639 914 OFFCURVE",
"637 907 OFFCURVE",
"632 897 CURVE",
"623 877 OFFCURVE",
"604 854 OFFCURVE",
"576 838 CURVE",
"562 829 OFFCURVE",
"545 825 OFFCURVE",
"525 825 CURVE SMOOTH"
);
}
);
width = 724;
}
);
leftKerningGroup = U;
note = Utilde;
rightKerningGroup = U;
unicode = 0168;
},
{
glyphname = V;
layers = (
{
layerId = "DC6C2CDD-F679-463F-ABCE-FDFA3FC576E2";
name = "Regular Italic";
paths = (
{
closed = 1;
nodes = (
"97 710 LINE",
"170 710 LINE",
"276 87 LINE",
"645 710 LINE",
"718 710 LINE",
"288 0 LINE",
"226 0 LINE"
);
}
);
width = 648;
}
);
leftKerningGroup = V;
note = V;
rightKerningGroup = V;
unicode = 0056;
},
{
glyphname = V.sc;
layers = (
{
layerId = "DC6C2CDD-F679-463F-ABCE-FDFA3FC576E2";
name = "Regular Italic";
paths = (
{
closed = 1;
nodes = (
"67 548 LINE",
"133 548 LINE",
"233 87 LINE",
"526 548 LINE",
"593 548 LINE",
"241 0 LINE",
"186 0 LINE"
);
}
);
width = 561;
}
);
leftKerningGroup = V.sc;
note = V.sc;
rightKerningGroup = V.sc;
},
{
glyphname = W;
layers = (
{
layerId = "DC6C2CDD-F679-463F-ABCE-FDFA3FC576E2";
name = "Regular Italic";
paths = (
{
closed = 1;
nodes = (
"95 710 LINE",
"170 710 LINE",
"278 81 LINE",
"473 402 LINE",
"420 705 LINE",
"486 705 LINE",
"526 453 LINE",
"675 705 LINE",
"741 705 LINE",
"559 402 LINE",
"618 81 LINE",
"992 710 LINE",
"1069 710 LINE",
"632 0 LINE",
"572 0 LINE",
"506 351 LINE",
"290 0 LINE",
"229 0 LINE"
);
}
);
width = 997;
}
);
leftKerningGroup = W;
note = W;
rightKerningGroup = W;
unicode = 0057;
},
{
glyphname = W.alt;
layers = (
{
layerId = "DC6C2CDD-F679-463F-ABCE-FDFA3FC576E2";
name = "Regular Italic";
paths = (
{
closed = 1;
nodes = (
"100 710 LINE",
"177 710 LINE",
"227 101 LINE",
"545 710 LINE",
"621 710 LINE",
"686 101 LINE",
"994 710 LINE",
"1073 710 LINE",
"707 0 LINE",
"634 0 LINE",
"559 597 LINE",
"237 0 LINE",
"164 0 LINE"
);
}
);
width = 1009;
}
);
leftKerningGroup = W.alt;
note = W.alt;
rightKerningGroup = W.alt;
},
{
glyphname = W.sc;
layers = (
{
layerId = "DC6C2CDD-F679-463F-ABCE-FDFA3FC576E2";
name = "Regular Italic";
paths = (
{
closed = 1;
nodes = (
"66 548 LINE",
"134 548 LINE",
"238 76 LINE",
"388 307 LINE",
"339 544 LINE",
"398 544 LINE",
"435 352 LINE",
"555 544 LINE",
"615 544 LINE",
"465 307 LINE",
"518 76 LINE",
"822 548 LINE",
"890 548 LINE",
"533 0 LINE",
"479 0 LINE",
"418 264 LINE",
"245 0 LINE",
"189 0 LINE"
);
}
);
width = 857;
}
);
leftKerningGroup = W.sc;
note = W.sc;
rightKerningGroup = W.sc;
},
{
glyphname = Wacute;
layers = (
{
layerId = "DC6C2CDD-F679-463F-ABCE-FDFA3FC576E2";
name = "Regular Italic";
paths = (
{
closed = 1;
nodes = (
"589 807 LINE",
"547 824 LINE",
"623 917 LINE",
"694 917 LINE"
);
},
{
closed = 1;
nodes = (
"95 710 LINE",
"170 710 LINE",
"278 81 LINE",
"473 402 LINE",
"420 705 LINE",
"486 705 LINE",
"526 453 LINE",
"675 705 LINE",
"741 705 LINE",
"559 402 LINE",
"618 81 LINE",
"992 710 LINE",
"1069 710 LINE",
"632 0 LINE",
"572 0 LINE",
"506 351 LINE",
"290 0 LINE",
"229 0 LINE"
);
}
);
width = 997;
}
);
leftKerningGroup = W;
note = Wacute;
rightKerningGroup = W;
unicode = 1E82;
},
{
glyphname = Wcircumflex;
layers = (
{
layerId = "DC6C2CDD-F679-463F-ABCE-FDFA3FC576E2";
name = "Regular Italic";
paths = (
{
closed = 1;
nodes = (
"486 832 LINE",
"599 917 LINE",
"649 917 LINE",
"724 832 LINE",
"682 811 LINE",
"614 874 LINE",
"520 811 LINE"
);
},
{
closed = 1;
nodes = (
"95 710 LINE",
"170 710 LINE",
"278 81 LINE",
"473 402 LINE",
"420 705 LINE",
"486 705 LINE",
"526 453 LINE",
"675 705 LINE",
"741 705 LINE",
"559 402 LINE",
"618 81 LINE",
"992 710 LINE",
"1069 710 LINE",
"632 0 LINE",
"572 0 LINE",
"506 351 LINE",
"290 0 LINE",
"229 0 LINE"
);
}
);
width = 997;
}
);
leftKerningGroup = W;
note = Wcircumflex;
rightKerningGroup = W;
unicode = 0174;
},
{
glyphname = Wdieresis;
layers = (
{
layerId = "DC6C2CDD-F679-463F-ABCE-FDFA3FC576E2";
name = "Regular Italic";
paths = (
{
closed = 1;
nodes = (
"493 820 LINE",
"514 914 LINE",
"572 914 LINE",
"551 820 LINE"
);
},
{
closed = 1;
nodes = (
"637 820 LINE",
"657 914 LINE",
"714 914 LINE",
"695 820 LINE"
);
},
{
closed = 1;
nodes = (
"95 710 LINE",
"170 710 LINE",
"278 81 LINE",
"473 402 LINE",
"420 705 LINE",
"486 705 LINE",
"526 453 LINE",
"675 705 LINE",
"741 705 LINE",
"559 402 LINE",
"618 81 LINE",
"992 710 LINE",
"1069 710 LINE",
"632 0 LINE",
"572 0 LINE",
"506 351 LINE",
"290 0 LINE",
"229 0 LINE"
);
}
);
width = 997;
}
);
leftKerningGroup = W;
note = Wdieresis;
rightKerningGroup = W;
unicode = 1E84;
},
{
glyphname = Wgrave;
layers = (
{
layerId = "DC6C2CDD-F679-463F-ABCE-FDFA3FC576E2";
name = "Regular Italic";
paths = (
{
closed = 1;
nodes = (
"95 710 LINE",
"170 710 LINE",
"278 81 LINE",
"473 402 LINE",
"420 705 LINE",
"486 705 LINE",
"526 453 LINE",
"675 705 LINE",
"741 705 LINE",
"559 402 LINE",
"618 81 LINE",
"992 710 LINE",
"1069 710 LINE",
"632 0 LINE",
"572 0 LINE",
"506 351 LINE",
"290 0 LINE",
"229 0 LINE"
);
},
{
closed = 1;
nodes = (
"528 917 LINE",
"598 917 LINE",
"636 824 LINE",
"587 807 LINE"
);
}
);
width = 997;
}
);
leftKerningGroup = W;
note = Wgrave;
rightKerningGroup = W;
unicode = 1E80;
},
{
glyphname = X;
layers = (
{
layerId = "DC6C2CDD-F679-463F-ABCE-FDFA3FC576E2";
name = "Regular Italic";
paths = (
{
closed = 1;
nodes = (
"274 350 LINE",
"92 710 LINE",
"171 710 LINE",
"324 400 LINE",
"608 710 LINE",
"685 710 LINE",
"350 350 LINE",
"526 0 LINE",
"449 0 LINE",
"302 300 LINE",
"28 0 LINE",
"-51 0 LINE"
);
}
);
width = 604;
}
);
leftKerningGroup = X;
note = X;
rightKerningGroup = X;
unicode = 0058;
},
{
glyphname = X.sc;
layers = (
{
layerId = "DC6C2CDD-F679-463F-ABCE-FDFA3FC576E2";
name = "Regular Italic";
paths = (
{
closed = 1;
nodes = (
"224 270 LINE",
"66 548 LINE",
"136 548 LINE",
"268 315 LINE",
"498 548 LINE",
"568 548 LINE",
"292 270 LINE",
"445 0 LINE",
"376 0 LINE",
"249 225 LINE",
"26 0 LINE",
"-44 0 LINE"
);
}
);
width = 529;
}
);
leftKerningGroup = X.sc;
note = X.sc;
rightKerningGroup = X.sc;
},
{
glyphname = Y;
layers = (
{
layerId = "DC6C2CDD-F679-463F-ABCE-FDFA3FC576E2";
name = "Regular Italic";
paths = (
{
closed = 1;
nodes = (
"257 266 LINE",
"91 710 LINE",
"168 710 LINE",
"305 328 LINE",
"605 710 LINE",
"681 710 LINE",
"325 264 LINE",
"269 0 LINE",
"200 0 LINE"
);
}
);
width = 607;
}
);
leftKerningGroup = Y;
note = Y;
rightKerningGroup = Y;
unicode = 0059;
},
{
glyphname = Y.sc;
layers = (
{
layerId = "DC6C2CDD-F679-463F-ABCE-FDFA3FC576E2";
name = "Regular Italic";
paths = (
{
closed = 1;
nodes = (
"207 203 LINE",
"62 548 LINE",
"130 548 LINE",
"249 258 LINE",
"493 548 LINE",
"562 548 LINE",
"269 202 LINE",
"226 0 LINE",
"163 0 LINE"
);
}
);
width = 526;
}
);
leftKerningGroup = Y.sc;
note = Y.sc;
rightKerningGroup = Y.sc;
},
{
glyphname = Yacute;
layers = (
{
layerId = "DC6C2CDD-F679-463F-ABCE-FDFA3FC576E2";
name = "Regular Italic";
paths = (
{
closed = 1;
nodes = (
"257 266 LINE",
"91 710 LINE",
"168 710 LINE",
"305 328 LINE",
"605 710 LINE",
"681 710 LINE",
"325 264 LINE",
"269 0 LINE",
"200 0 LINE"
);
},
{
closed = 1;
nodes = (
"395 807 LINE",
"353 824 LINE",
"429 917 LINE",
"500 917 LINE"
);
}
);
width = 607;
}
);
leftKerningGroup = Y;
note = Yacute;
rightKerningGroup = Y;
unicode = 00DD;
},
{
glyphname = Ycircumflex;
layers = (
{
layerId = "DC6C2CDD-F679-463F-ABCE-FDFA3FC576E2";
name = "Regular Italic";
paths = (
{
closed = 1;
nodes = (
"257 266 LINE",
"91 710 LINE",
"168 710 LINE",
"305 328 LINE",
"605 710 LINE",
"681 710 LINE",
"325 264 LINE",
"269 0 LINE",
"200 0 LINE"
);
},
{
closed = 1;
nodes = (
"285 832 LINE",
"398 917 LINE",
"448 917 LINE",
"523 832 LINE",
"481 811 LINE",
"413 874 LINE",
"319 811 LINE"
);
}
);
width = 607;
}
);
leftKerningGroup = Y;
note = Ycircumflex;
rightKerningGroup = Y;
unicode = 0176;
},
{
glyphname = Ydieresis;
layers = (
{
layerId = "DC6C2CDD-F679-463F-ABCE-FDFA3FC576E2";
name = "Regular Italic";
paths = (
{
closed = 1;
nodes = (
"257 266 LINE",
"91 710 LINE",
"168 710 LINE",
"305 328 LINE",
"605 710 LINE",
"681 710 LINE",
"325 264 LINE",
"269 0 LINE",
"200 0 LINE"
);
},
{
closed = 1;
nodes = (
"305 820 LINE",
"326 914 LINE",
"384 914 LINE",
"363 820 LINE"
);
},
{
closed = 1;
nodes = (
"449 820 LINE",
"469 914 LINE",
"526 914 LINE",
"507 820 LINE"
);
}
);
width = 607;
}
);
leftKerningGroup = Y;
note = Ydieresis;
rightKerningGroup = Y;
unicode = 0178;
},
{
glyphname = Ygrave;
layers = (
{
layerId = "DC6C2CDD-F679-463F-ABCE-FDFA3FC576E2";
name = "Regular Italic";
paths = (
{
closed = 1;
nodes = (
"257 266 LINE",
"91 710 LINE",
"168 710 LINE",
"305 328 LINE",
"605 710 LINE",
"681 710 LINE",
"325 264 LINE",
"269 0 LINE",
"200 0 LINE"
);
},
{
closed = 1;
nodes = (
"339 917 LINE",
"409 917 LINE",
"447 824 LINE",
"398 807 LINE"
);
}
);
width = 607;
}
);
leftKerningGroup = Y;
note = Ygrave;
rightKerningGroup = Y;
unicode = 1EF2;
},
{
glyphname = Ytilde;
layers = (
{
layerId = "DC6C2CDD-F679-463F-ABCE-FDFA3FC576E2";
name = "Regular Italic";
paths = (
{
closed = 1;
nodes = (
"257 266 LINE",
"91 710 LINE",
"168 710 LINE",
"305 328 LINE",
"605 710 LINE",
"681 710 LINE",
"325 264 LINE",
"269 0 LINE",
"200 0 LINE"
);
},
{
closed = 1;
nodes = (
"426 825 OFFCURVE",
"408 835 OFFCURVE",
"392 845 CURVE SMOOTH",
"376 855 OFFCURVE",
"361 865 OFFCURVE",
"341 865 CURVE SMOOTH",
"321 865 OFFCURVE",
"306 854 OFFCURVE",
"298 843 CURVE",
"293 837 OFFCURVE",
"290 832 OFFCURVE",
"288 827 CURVE",
"285 822 OFFCURVE",
"284 818 OFFCURVE",
"284 817 CURVE",
"242 817 LINE",
"243 824 OFFCURVE",
"253 848 OFFCURVE",
"270 869 CURVE SMOOTH",
"287 890 OFFCURVE",
"314 910 OFFCURVE",
"350 910 CURVE SMOOTH",
"377 910 OFFCURVE",
"393 900 OFFCURVE",
"409 889 CURVE SMOOTH",
"425 878 OFFCURVE",
"439 868 OFFCURVE",
"463 868 CURVE SMOOTH",
"487 868 OFFCURVE",
"504 879 OFFCURVE",
"513 891 CURVE",
"518 897 OFFCURVE",
"521 903 OFFCURVE",
"524 908 CURVE",
"526 913 OFFCURVE",
"527 916 OFFCURVE",
"527 917 CURVE",
"569 917 LINE",
"568 914 OFFCURVE",
"566 907 OFFCURVE",
"561 897 CURVE",
"552 877 OFFCURVE",
"533 854 OFFCURVE",
"505 838 CURVE",
"491 829 OFFCURVE",
"474 825 OFFCURVE",
"454 825 CURVE SMOOTH"
);
}
);
width = 607;
}
);
leftKerningGroup = Y;
note = Ytilde;
rightKerningGroup = Y;
unicode = 1EF8;
},
{
glyphname = Z;
layers = (
{
layerId = "DC6C2CDD-F679-463F-ABCE-FDFA3FC576E2";
name = "Regular Italic";
paths = (
{
closed = 1;
nodes = (
"-24 55 LINE",
"556 648 LINE",
"110 648 LINE",
"123 710 LINE",
"651 710 LINE",
"639 655 LINE",
"65 62 LINE",
"512 62 LINE",
"499 0 LINE",
"-36 0 LINE"
);
}
);
width = 596;
}
);
leftKerningGroup = Z;
note = Z;
rightKerningGroup = Z;
unicode = 005A;
},
{
glyphname = Z.sc;
layers = (
{
layerId = "DC6C2CDD-F679-463F-ABCE-FDFA3FC576E2";
name = "Regular Italic";
paths = (
{
closed = 1;
nodes = (
"-18 49 LINE",
"455 492 LINE",
"83 492 LINE",
"95 548 LINE",
"541 548 LINE",
"530 498 LINE",
"62 56 LINE",
"435 56 LINE",
"423 0 LINE",
"-28 0 LINE"
);
}
);
width = 525;
}
);
leftKerningGroup = Z.sc;
note = Z.sc;
rightKerningGroup = Z.sc;
},
{
glyphname = Zacute;
layers = (
{
layerId = "DC6C2CDD-F679-463F-ABCE-FDFA3FC576E2";
name = "Regular Italic";
paths = (
{
closed = 1;
nodes = (
"390 807 LINE",
"348 824 LINE",
"424 917 LINE",
"495 917 LINE"
);
},
{
closed = 1;
nodes = (
"-24 55 LINE",
"556 648 LINE",
"110 648 LINE",
"123 710 LINE",
"651 710 LINE",
"639 655 LINE",
"65 62 LINE",
"512 62 LINE",
"499 0 LINE",
"-36 0 LINE"
);
}
);
width = 596;
}
);
leftKerningGroup = Z;
note = Zacute;
rightKerningGroup = Z;
unicode = 0179;
},
{
glyphname = Zcaron;
layers = (
{
layerId = "DC6C2CDD-F679-463F-ABCE-FDFA3FC576E2";
name = "Regular Italic";
paths = (
{
closed = 1;
nodes = (
"296 897 LINE",
"339 917 LINE",
"406 854 LINE",
"500 917 LINE",
"534 897 LINE",
"422 811 LINE",
"372 811 LINE"
);
},
{
closed = 1;
nodes = (
"-24 55 LINE",
"556 648 LINE",
"110 648 LINE",
"123 710 LINE",
"651 710 LINE",
"639 655 LINE",
"65 62 LINE",
"512 62 LINE",
"499 0 LINE",
"-36 0 LINE"
);
}
);
width = 596;
}
);
leftKerningGroup = Z;
note = Zcaron;
rightKerningGroup = Z;
unicode = 017D;
},
{
glyphname = Zdotaccent;
layers = (
{
layerId = "DC6C2CDD-F679-463F-ABCE-FDFA3FC576E2";
name = "Regular Italic";
paths = (
{
closed = 1;
nodes = (
"-24 55 LINE",
"556 648 LINE",
"110 648 LINE",
"123 710 LINE",
"651 710 LINE",
"639 655 LINE",
"65 62 LINE",
"512 62 LINE",
"499 0 LINE",
"-36 0 LINE"
);
},
{
closed = 1;
nodes = (
"370 820 LINE",
"391 917 LINE",
"453 917 LINE",
"432 820 LINE"
);
}
);
width = 596;
}
);
leftKerningGroup = Z;
note = Zdotaccent;
rightKerningGroup = Z;
unicode = 017B;
},
{
glyphname = a;
layers = (
{
layerId = "DC6C2CDD-F679-463F-ABCE-FDFA3FC576E2";
name = "Regular Italic";
paths = (
{
closed = 1;
nodes = (
"151 -10 OFFCURVE",
"106 15 OFFCURVE",
"74 55 CURVE SMOOTH",
"42 95 OFFCURVE",
"25 149 OFFCURVE",
"25 208 CURVE SMOOTH",
"25 291 OFFCURVE",
"60 371 OFFCURVE",
"113 431 CURVE SMOOTH",
"166 491 OFFCURVE",
"238 530 OFFCURVE",
"314 530 CURVE SMOOTH",
"398 530 OFFCURVE",
"453 477 OFFCURVE",
"476 412 CURVE",
"500 521 LINE",
"568 521 LINE",
"476 89 LINE SMOOTH",
"475 84 OFFCURVE",
"474 79 OFFCURVE",
"474 76 CURVE SMOOTH",
"474 65 OFFCURVE",
"480 60 OFFCURVE",
"493 60 CURVE",
"480 0 LINE",
"475 -1 OFFCURVE",
"470 -1 OFFCURVE",
"465 -2 CURVE SMOOTH",
"460 -3 OFFCURVE",
"456 -3 OFFCURVE",
"453 -3 CURVE",
"422 0 OFFCURVE",
"407 14 OFFCURVE",
"407 37 CURVE SMOOTH",
"407 42 OFFCURVE",
"408 49 OFFCURVE",
"410 58 CURVE",
"411 67 OFFCURVE",
"414 81 OFFCURVE",
"418 101 CURVE",
"365 33 OFFCURVE",
"283 -10 OFFCURVE",
"210 -10 CURVE SMOOTH"
);
},
{
closed = 1;
nodes = (
"271 50 OFFCURVE",
"312 64 OFFCURVE",
"348 88 CURVE SMOOTH",
"383 111 OFFCURVE",
"414 143 OFFCURVE",
"427 179 CURVE",
"460 340 LINE",
"456 376 OFFCURVE",
"437 408 OFFCURVE",
"412 432 CURVE SMOOTH",
"387 455 OFFCURVE",
"354 470 OFFCURVE",
"319 470 CURVE SMOOTH",
"259 470 OFFCURVE",
"203 437 OFFCURVE",
"163 389 CURVE SMOOTH",
"122 341 OFFCURVE",
"96 278 OFFCURVE",
"96 218 CURVE SMOOTH",
"96 171 OFFCURVE",
"110 130 OFFCURVE",
"135 100 CURVE SMOOTH",
"160 70 OFFCURVE",
"195 50 OFFCURVE",
"238 50 CURVE SMOOTH"
);
}
);
width = 598;
}
);
leftKerningGroup = a;
note = a;
rightKerningGroup = a;
unicode = 0061;
},
{
glyphname = a.alt;
layers = (
{
layerId = "DC6C2CDD-F679-463F-ABCE-FDFA3FC576E2";
name = "Regular Italic";
paths = (
{
closed = 1;
nodes = (
"150 -10 OFFCURVE",
"104 15 OFFCURVE",
"73 55 CURVE SMOOTH",
"41 94 OFFCURVE",
"24 148 OFFCURVE",
"24 207 CURVE SMOOTH",
"24 292 OFFCURVE",
"60 373 OFFCURVE",
"116 433 CURVE SMOOTH",
"171 492 OFFCURVE",
"243 530 OFFCURVE",
"318 530 CURVE SMOOTH",
"401 530 OFFCURVE",
"457 480 OFFCURVE",
"478 411 CURVE",
"501 517 LINE",
"569 517 LINE",
"459 0 LINE",
"391 0 LINE",
"413 105 LINE",
"362 36 OFFCURVE",
"289 -10 OFFCURVE",
"209 -10 CURVE SMOOTH"
);
},
{
closed = 1;
nodes = (
"276 50 OFFCURVE",
"313 64 OFFCURVE",
"346 87 CURVE SMOOTH",
"378 110 OFFCURVE",
"407 142 OFFCURVE",
"428 178 CURVE",
"462 336 LINE",
"451 413 OFFCURVE",
"399 470 OFFCURVE",
"323 470 CURVE SMOOTH",
"263 470 OFFCURVE",
"205 436 OFFCURVE",
"164 388 CURVE SMOOTH",
"123 340 OFFCURVE",
"96 277 OFFCURVE",
"96 217 CURVE SMOOTH",
"96 172 OFFCURVE",
"109 130 OFFCURVE",
"133 100 CURVE SMOOTH",
"157 70 OFFCURVE",
"193 50 OFFCURVE",
"237 50 CURVE SMOOTH"
);
}
);
width = 596;
}
);
leftKerningGroup = a;
note = a.alt;
rightKerningGroup = a.alt;
},
{
glyphname = a.alt2;
layers = (
{
layerId = "DC6C2CDD-F679-463F-ABCE-FDFA3FC576E2";
name = "Regular Italic";
paths = (
{
closed = 1;
nodes = (
"90 -10 OFFCURVE",
"56 4 OFFCURVE",
"33 28 CURVE SMOOTH",
"9 52 OFFCURVE",
"-4 86 OFFCURVE",
"-4 123 CURVE SMOOTH",
"-4 188 OFFCURVE",
"30 236 OFFCURVE",
"78 266 CURVE SMOOTH",
"125 296 OFFCURVE",
"186 309 OFFCURVE",
"241 309 CURVE SMOOTH",
"309 309 OFFCURVE",
"357 294 OFFCURVE",
"380 282 CURVE",
"391 329 LINE SMOOTH",
"394 342 OFFCURVE",
"395 356 OFFCURVE",
"395 371 CURVE SMOOTH",
"395 438 OFFCURVE",
"356 479 OFFCURVE",
"284 479 CURVE SMOOTH",
"233 479 OFFCURVE",
"176 457 OFFCURVE",
"112 417 CURVE",
"99 462 LINE",
"163 501 OFFCURVE",
"232 530 OFFCURVE",
"300 530 CURVE SMOOTH",
"409 530 OFFCURVE",
"463 472 OFFCURVE",
"463 380 CURVE SMOOTH",
"463 361 OFFCURVE",
"461 342 OFFCURVE",
"457 323 CURVE SMOOTH",
"389 0 LINE",
"323 0 LINE",
"340 82 LINE",
"281 18 OFFCURVE",
"203 -10 OFFCURVE",
"130 -10 CURVE SMOOTH"
);
},
{
closed = 1;
nodes = (
"186 42 OFFCURVE",
"218 48 OFFCURVE",
"248 60 CURVE SMOOTH",
"278 72 OFFCURVE",
"307 91 OFFCURVE",
"328 115 CURVE SMOOTH",
"342 130 OFFCURVE",
"350 143 OFFCURVE",
"353 154 CURVE",
"371 239 LINE",
"331 258 OFFCURVE",
"285 266 OFFCURVE",
"241 266 CURVE SMOOTH",
"202 266 OFFCURVE",
"158 257 OFFCURVE",
"123 237 CURVE SMOOTH",
"88 216 OFFCURVE",
"63 184 OFFCURVE",
"63 136 CURVE SMOOTH",
"63 80 OFFCURVE",
"103 42 OFFCURVE",
"158 42 CURVE SMOOTH"
);
}
);
width = 519;
}
);
leftKerningGroup = a.alt2;
note = a.alt2;
rightKerningGroup = a.alt2;
},
{
glyphname = aacute;
layers = (
{
layerId = "DC6C2CDD-F679-463F-ABCE-FDFA3FC576E2";
name = "Regular Italic";
paths = (
{
closed = 1;
nodes = (
"151 -10 OFFCURVE",
"106 15 OFFCURVE",
"74 55 CURVE SMOOTH",
"42 95 OFFCURVE",
"25 149 OFFCURVE",
"25 208 CURVE SMOOTH",
"25 291 OFFCURVE",
"60 371 OFFCURVE",
"113 431 CURVE SMOOTH",
"166 491 OFFCURVE",
"238 530 OFFCURVE",
"314 530 CURVE SMOOTH",
"398 530 OFFCURVE",
"453 477 OFFCURVE",
"476 412 CURVE",
"500 521 LINE",
"568 521 LINE",
"476 89 LINE SMOOTH",
"475 84 OFFCURVE",
"474 79 OFFCURVE",
"474 76 CURVE SMOOTH",
"474 65 OFFCURVE",
"480 60 OFFCURVE",
"493 60 CURVE",
"480 0 LINE",
"475 -1 OFFCURVE",
"470 -1 OFFCURVE",
"465 -2 CURVE SMOOTH",
"460 -3 OFFCURVE",
"456 -3 OFFCURVE",
"453 -3 CURVE",
"422 0 OFFCURVE",
"407 14 OFFCURVE",
"407 37 CURVE SMOOTH",
"407 42 OFFCURVE",
"408 49 OFFCURVE",
"410 58 CURVE",
"411 67 OFFCURVE",
"414 81 OFFCURVE",
"418 101 CURVE",
"365 33 OFFCURVE",
"283 -10 OFFCURVE",
"210 -10 CURVE SMOOTH"
);
},
{
closed = 1;
nodes = (
"271 50 OFFCURVE",
"312 64 OFFCURVE",
"348 88 CURVE SMOOTH",
"383 111 OFFCURVE",
"414 143 OFFCURVE",
"427 179 CURVE",
"460 340 LINE",
"456 376 OFFCURVE",
"437 408 OFFCURVE",
"412 432 CURVE SMOOTH",
"387 455 OFFCURVE",
"354 470 OFFCURVE",
"319 470 CURVE SMOOTH",
"259 470 OFFCURVE",
"203 437 OFFCURVE",
"163 389 CURVE SMOOTH",
"122 341 OFFCURVE",
"96 278 OFFCURVE",
"96 218 CURVE SMOOTH",
"96 171 OFFCURVE",
"110 130 OFFCURVE",
"135 100 CURVE SMOOTH",
"160 70 OFFCURVE",
"195 50 OFFCURVE",
"238 50 CURVE SMOOTH"
);
},
{
closed = 1;
nodes = (
"350 620 LINE",
"308 637 LINE",
"384 730 LINE",
"455 730 LINE"
);
}
);
width = 598;
}
);
leftKerningGroup = a;
note = aacute;
rightKerningGroup = a;
unicode = 00E1;
},
{
glyphname = abreve;
layers = (
{
layerId = "DC6C2CDD-F679-463F-ABCE-FDFA3FC576E2";
name = "Regular Italic";
paths = (
{
closed = 1;
nodes = (
"151 -10 OFFCURVE",
"106 15 OFFCURVE",
"74 55 CURVE SMOOTH",
"42 95 OFFCURVE",
"25 149 OFFCURVE",
"25 208 CURVE SMOOTH",
"25 291 OFFCURVE",
"60 371 OFFCURVE",
"113 431 CURVE SMOOTH",
"166 491 OFFCURVE",
"238 530 OFFCURVE",
"314 530 CURVE SMOOTH",
"398 530 OFFCURVE",
"453 477 OFFCURVE",
"476 412 CURVE",
"500 521 LINE",
"568 521 LINE",
"476 89 LINE SMOOTH",
"475 84 OFFCURVE",
"474 79 OFFCURVE",
"474 76 CURVE SMOOTH",
"474 65 OFFCURVE",
"480 60 OFFCURVE",
"493 60 CURVE",
"480 0 LINE",
"475 -1 OFFCURVE",
"470 -1 OFFCURVE",
"465 -2 CURVE SMOOTH",
"460 -3 OFFCURVE",
"456 -3 OFFCURVE",
"453 -3 CURVE",
"422 0 OFFCURVE",
"407 14 OFFCURVE",
"407 37 CURVE SMOOTH",
"407 42 OFFCURVE",
"408 49 OFFCURVE",
"410 58 CURVE",
"411 67 OFFCURVE",
"414 81 OFFCURVE",
"418 101 CURVE",
"365 33 OFFCURVE",
"283 -10 OFFCURVE",
"210 -10 CURVE SMOOTH"
);
},
{
closed = 1;
nodes = (
"271 50 OFFCURVE",
"312 64 OFFCURVE",
"348 88 CURVE SMOOTH",
"383 111 OFFCURVE",
"414 143 OFFCURVE",
"427 179 CURVE",
"460 340 LINE",
"456 376 OFFCURVE",
"437 408 OFFCURVE",
"412 432 CURVE SMOOTH",
"387 455 OFFCURVE",
"354 470 OFFCURVE",
"319 470 CURVE SMOOTH",
"259 470 OFFCURVE",
"203 437 OFFCURVE",
"163 389 CURVE SMOOTH",
"122 341 OFFCURVE",
"96 278 OFFCURVE",
"96 218 CURVE SMOOTH",
"96 171 OFFCURVE",
"110 130 OFFCURVE",
"135 100 CURVE SMOOTH",
"160 70 OFFCURVE",
"195 50 OFFCURVE",
"238 50 CURVE SMOOTH"
);
},
{
closed = 1;
nodes = (
"379 664 OFFCURVE",
"409 693 OFFCURVE",
"421 730 CURVE",
"461 730 LINE",
"454 702 OFFCURVE",
"439 677 OFFCURVE",
"419 659 CURVE SMOOTH",
"398 641 OFFCURVE",
"372 629 OFFCURVE",
"345 629 CURVE SMOOTH",
"298 629 OFFCURVE",
"268 662 OFFCURVE",
"268 707 CURVE SMOOTH",
"268 714 OFFCURVE",
"269 722 OFFCURVE",
"271 730 CURVE",
"313 730 LINE",
"312 723 OFFCURVE",
"311 718 OFFCURVE",
"311 715 CURVE SMOOTH",
"311 687 OFFCURVE",
"328 664 OFFCURVE",
"352 664 CURVE SMOOTH"
);
}
);
width = 598;
}
);
leftKerningGroup = a;
note = abreve;
rightKerningGroup = a;
unicode = 0103;
},
{
glyphname = acircumflex;
layers = (
{
layerId = "DC6C2CDD-F679-463F-ABCE-FDFA3FC576E2";
name = "Regular Italic";
paths = (
{
closed = 1;
nodes = (
"151 -10 OFFCURVE",
"106 15 OFFCURVE",
"74 55 CURVE SMOOTH",
"42 95 OFFCURVE",
"25 149 OFFCURVE",
"25 208 CURVE SMOOTH",
"25 291 OFFCURVE",
"60 371 OFFCURVE",
"113 431 CURVE SMOOTH",
"166 491 OFFCURVE",
"238 530 OFFCURVE",
"314 530 CURVE SMOOTH",
"398 530 OFFCURVE",
"453 477 OFFCURVE",
"476 412 CURVE",
"500 521 LINE",
"568 521 LINE",
"476 89 LINE SMOOTH",
"475 84 OFFCURVE",
"474 79 OFFCURVE",
"474 76 CURVE SMOOTH",
"474 65 OFFCURVE",
"480 60 OFFCURVE",
"493 60 CURVE",
"480 0 LINE",
"475 -1 OFFCURVE",
"470 -1 OFFCURVE",
"465 -2 CURVE SMOOTH",
"460 -3 OFFCURVE",
"456 -3 OFFCURVE",
"453 -3 CURVE",
"422 0 OFFCURVE",
"407 14 OFFCURVE",
"407 37 CURVE SMOOTH",
"407 42 OFFCURVE",
"408 49 OFFCURVE",
"410 58 CURVE",
"411 67 OFFCURVE",
"414 81 OFFCURVE",
"418 101 CURVE",
"365 33 OFFCURVE",
"283 -10 OFFCURVE",
"210 -10 CURVE SMOOTH"
);
},
{
closed = 1;
nodes = (
"271 50 OFFCURVE",
"312 64 OFFCURVE",
"348 88 CURVE SMOOTH",
"383 111 OFFCURVE",
"414 143 OFFCURVE",
"427 179 CURVE",
"460 340 LINE",
"456 376 OFFCURVE",
"437 408 OFFCURVE",
"412 432 CURVE SMOOTH",
"387 455 OFFCURVE",
"354 470 OFFCURVE",
"319 470 CURVE SMOOTH",
"259 470 OFFCURVE",
"203 437 OFFCURVE",
"163 389 CURVE SMOOTH",
"122 341 OFFCURVE",
"96 278 OFFCURVE",
"96 218 CURVE SMOOTH",
"96 171 OFFCURVE",
"110 130 OFFCURVE",
"135 100 CURVE SMOOTH",
"160 70 OFFCURVE",
"195 50 OFFCURVE",
"238 50 CURVE SMOOTH"
);
},
{
closed = 1;
nodes = (
"236 645 LINE",
"349 730 LINE",
"399 730 LINE",
"474 645 LINE",
"432 624 LINE",
"364 687 LINE",
"270 624 LINE"
);
}
);
width = 598;
}
);
leftKerningGroup = a;
note = acircumflex;
rightKerningGroup = a;
unicode = 00E2;
},
{
glyphname = adieresis;
layers = (
{
layerId = "DC6C2CDD-F679-463F-ABCE-FDFA3FC576E2";
name = "Regular Italic";
paths = (
{
closed = 1;
nodes = (
"151 -10 OFFCURVE",
"106 15 OFFCURVE",
"74 55 CURVE SMOOTH",
"42 95 OFFCURVE",
"25 149 OFFCURVE",
"25 208 CURVE SMOOTH",
"25 291 OFFCURVE",
"60 371 OFFCURVE",
"113 431 CURVE SMOOTH",
"166 491 OFFCURVE",
"238 530 OFFCURVE",
"314 530 CURVE SMOOTH",
"398 530 OFFCURVE",
"453 477 OFFCURVE",
"476 412 CURVE",
"500 521 LINE",
"568 521 LINE",
"476 89 LINE SMOOTH",
"475 84 OFFCURVE",
"474 79 OFFCURVE",
"474 76 CURVE SMOOTH",
"474 65 OFFCURVE",
"480 60 OFFCURVE",
"493 60 CURVE",
"480 0 LINE",
"475 -1 OFFCURVE",
"470 -1 OFFCURVE",
"465 -2 CURVE SMOOTH",
"460 -3 OFFCURVE",
"456 -3 OFFCURVE",
"453 -3 CURVE",
"422 0 OFFCURVE",
"407 14 OFFCURVE",
"407 37 CURVE SMOOTH",
"407 42 OFFCURVE",
"408 49 OFFCURVE",
"410 58 CURVE",
"411 67 OFFCURVE",
"414 81 OFFCURVE",
"418 101 CURVE",
"365 33 OFFCURVE",
"283 -10 OFFCURVE",
"210 -10 CURVE SMOOTH"
);
},
{
closed = 1;
nodes = (
"271 50 OFFCURVE",
"312 64 OFFCURVE",
"348 88 CURVE SMOOTH",
"383 111 OFFCURVE",
"414 143 OFFCURVE",
"427 179 CURVE",
"460 340 LINE",
"456 376 OFFCURVE",
"437 408 OFFCURVE",
"412 432 CURVE SMOOTH",
"387 455 OFFCURVE",
"354 470 OFFCURVE",
"319 470 CURVE SMOOTH",
"259 470 OFFCURVE",
"203 437 OFFCURVE",
"163 389 CURVE SMOOTH",
"122 341 OFFCURVE",
"96 278 OFFCURVE",
"96 218 CURVE SMOOTH",
"96 171 OFFCURVE",
"110 130 OFFCURVE",
"135 100 CURVE SMOOTH",
"160 70 OFFCURVE",
"195 50 OFFCURVE",
"238 50 CURVE SMOOTH"
);
},
{
closed = 1;
nodes = (
"250 633 LINE",
"271 727 LINE",
"329 727 LINE",
"308 633 LINE"
);
},
{
closed = 1;
nodes = (
"394 633 LINE",
"414 727 LINE",
"471 727 LINE",
"452 633 LINE"
);
}
);
width = 598;
}
);
leftKerningGroup = a;
note = adieresis;
rightKerningGroup = a;
unicode = 00E4;
},
{
glyphname = ae;
layers = (
{
layerId = "DC6C2CDD-F679-463F-ABCE-FDFA3FC576E2";
name = "Regular Italic";
paths = (
{
closed = 1;
nodes = (
"90 -10 OFFCURVE",
"56 5 OFFCURVE",
"32 29 CURVE SMOOTH",
"8 53 OFFCURVE",
"-4 86 OFFCURVE",
"-4 123 CURVE SMOOTH",
"-4 178 OFFCURVE",
"23 224 OFFCURVE",
"67 257 CURVE SMOOTH",
"111 290 OFFCURVE",
"172 309 OFFCURVE",
"240 309 CURVE SMOOTH",
"284 309 OFFCURVE",
"327 301 OFFCURVE",
"362 289 CURVE",
"367 306 OFFCURVE",
"373 322 OFFCURVE",
"380 336 CURVE SMOOTH",
"387 349 OFFCURVE",
"391 364 OFFCURVE",
"394 380 CURVE",
"394 437 OFFCURVE",
"355 479 OFFCURVE",
"283 479 CURVE SMOOTH",
"232 479 OFFCURVE",
"175 457 OFFCURVE",
"111 417 CURVE",
"98 462 LINE",
"173 507 OFFCURVE",
"237 530 OFFCURVE",
"301 530 CURVE SMOOTH",
"381 530 OFFCURVE",
"433 493 OFFCURVE",
"448 426 CURVE",
"504 489 OFFCURVE",
"579 530 OFFCURVE",
"660 530 CURVE SMOOTH",
"721 530 OFFCURVE",
"771 507 OFFCURVE",
"805 468 CURVE SMOOTH",
"839 429 OFFCURVE",
"858 376 OFFCURVE",
"858 316 CURVE SMOOTH",
"858 273 OFFCURVE",
"848 248 OFFCURVE",
"843 236 CURVE",
"416 236 LINE",
"415 225 OFFCURVE",
"414 214 OFFCURVE",
"414 202 CURVE SMOOTH",
"414 155 OFFCURVE",
"429 115 OFFCURVE",
"455 87 CURVE SMOOTH",
"481 59 OFFCURVE",
"517 42 OFFCURVE",
"561 42 CURVE SMOOTH",
"593 42 OFFCURVE",
"628 52 OFFCURVE",
"658 68 CURVE SMOOTH",
"688 84 OFFCURVE",
"714 108 OFFCURVE",
"731 136 CURVE",
"787 120 LINE",
"763 81 OFFCURVE",
"728 50 OFFCURVE",
"686 27 CURVE SMOOTH",
"644 3 OFFCURVE",
"596 -10 OFFCURVE",
"548 -10 CURVE SMOOTH",
"460 -10 OFFCURVE",
"396 36 OFFCURVE",
"367 105 CURVE",
"336 64 OFFCURVE",
"295 35 OFFCURVE",
"252 17 CURVE SMOOTH",
"209 -1 OFFCURVE",
"166 -10 OFFCURVE",
"134 -10 CURVE SMOOTH"
);
},
{
closed = 1;
nodes = (
"197 42 OFFCURVE",
"239 54 OFFCURVE",
"276 74 CURVE SMOOTH",
"312 94 OFFCURVE",
"341 121 OFFCURVE",
"352 150 CURVE",
"349 161 OFFCURVE",
"348 174 OFFCURVE",
"348 191 CURVE SMOOTH",
"348 210 OFFCURVE",
"350 230 OFFCURVE",
"353 246 CURVE",
"320 259 OFFCURVE",
"279 266 OFFCURVE",
"242 266 CURVE SMOOTH",
"190 266 OFFCURVE",
"146 253 OFFCURVE",
"114 230 CURVE SMOOTH",
"82 207 OFFCURVE",
"63 175 OFFCURVE",
"63 136 CURVE SMOOTH",
"63 85 OFFCURVE",
"94 42 OFFCURVE",
"161 42 CURVE SMOOTH"
);
},
{
closed = 1;
nodes = (
"789 282 LINE",
"792 295 OFFCURVE",
"792 310 OFFCURVE",
"792 322 CURVE SMOOTH",
"792 411 OFFCURVE",
"740 477 OFFCURVE",
"648 477 CURVE SMOOTH",
"597 477 OFFCURVE",
"550 457 OFFCURVE",
"511 422 CURVE SMOOTH",
"471 387 OFFCURVE",
"440 338 OFFCURVE",
"425 282 CURVE"
);
}
);
width = 887;
}
);
leftKerningGroup = a.alt2;
note = ae;
rightKerningGroup = ae;
unicode = 00E6;
},
{
glyphname = aeacute;
layers = (
{
layerId = "DC6C2CDD-F679-463F-ABCE-FDFA3FC576E2";
name = "Regular Italic";
paths = (
{
closed = 1;
nodes = (
"501 620 LINE",
"459 637 LINE",
"535 730 LINE",
"606 730 LINE"
);
},
{
closed = 1;
nodes = (
"89 -10 OFFCURVE",
"55 5 OFFCURVE",
"31 29 CURVE SMOOTH",
"7 53 OFFCURVE",
"-5 86 OFFCURVE",
"-5 123 CURVE SMOOTH",
"-5 178 OFFCURVE",
"22 224 OFFCURVE",
"66 257 CURVE SMOOTH",
"110 290 OFFCURVE",
"171 309 OFFCURVE",
"239 309 CURVE SMOOTH",
"283 309 OFFCURVE",
"326 301 OFFCURVE",
"361 289 CURVE",
"366 306 OFFCURVE",
"372 322 OFFCURVE",
"379 336 CURVE SMOOTH",
"386 349 OFFCURVE",
"390 364 OFFCURVE",
"393 380 CURVE",
"393 437 OFFCURVE",
"354 479 OFFCURVE",
"282 479 CURVE SMOOTH",
"231 479 OFFCURVE",
"174 457 OFFCURVE",
"110 417 CURVE",
"97 462 LINE",
"172 507 OFFCURVE",
"236 530 OFFCURVE",
"300 530 CURVE SMOOTH",
"380 530 OFFCURVE",
"432 493 OFFCURVE",
"447 426 CURVE",
"503 489 OFFCURVE",
"578 530 OFFCURVE",
"659 530 CURVE SMOOTH",
"720 530 OFFCURVE",
"770 507 OFFCURVE",
"804 468 CURVE SMOOTH",
"838 429 OFFCURVE",
"857 376 OFFCURVE",
"857 316 CURVE SMOOTH",
"857 273 OFFCURVE",
"847 248 OFFCURVE",
"842 236 CURVE",
"415 236 LINE",
"414 225 OFFCURVE",
"413 214 OFFCURVE",
"413 202 CURVE SMOOTH",
"413 155 OFFCURVE",
"428 115 OFFCURVE",
"454 87 CURVE SMOOTH",
"480 59 OFFCURVE",
"516 42 OFFCURVE",
"560 42 CURVE SMOOTH",
"592 42 OFFCURVE",
"627 52 OFFCURVE",
"657 68 CURVE SMOOTH",
"687 84 OFFCURVE",
"713 108 OFFCURVE",
"730 136 CURVE",
"786 120 LINE",
"762 81 OFFCURVE",
"727 50 OFFCURVE",
"685 27 CURVE SMOOTH",
"643 3 OFFCURVE",
"595 -10 OFFCURVE",
"547 -10 CURVE SMOOTH",
"459 -10 OFFCURVE",
"395 36 OFFCURVE",
"366 105 CURVE",
"335 64 OFFCURVE",
"294 35 OFFCURVE",
"251 17 CURVE SMOOTH",
"208 -1 OFFCURVE",
"165 -10 OFFCURVE",
"133 -10 CURVE SMOOTH"
);
},
{
closed = 1;
nodes = (
"196 42 OFFCURVE",
"238 54 OFFCURVE",
"275 74 CURVE SMOOTH",
"311 94 OFFCURVE",
"340 121 OFFCURVE",
"351 150 CURVE",
"348 161 OFFCURVE",
"347 174 OFFCURVE",
"347 191 CURVE SMOOTH",
"347 210 OFFCURVE",
"349 230 OFFCURVE",
"352 246 CURVE",
"319 259 OFFCURVE",
"278 266 OFFCURVE",
"241 266 CURVE SMOOTH",
"189 266 OFFCURVE",
"145 253 OFFCURVE",
"113 230 CURVE SMOOTH",
"81 207 OFFCURVE",
"62 175 OFFCURVE",
"62 136 CURVE SMOOTH",
"62 85 OFFCURVE",
"93 42 OFFCURVE",
"160 42 CURVE SMOOTH"
);
},
{
closed = 1;
nodes = (
"788 282 LINE",
"791 295 OFFCURVE",
"791 310 OFFCURVE",
"791 322 CURVE SMOOTH",
"791 411 OFFCURVE",
"739 477 OFFCURVE",
"647 477 CURVE SMOOTH",
"596 477 OFFCURVE",
"549 457 OFFCURVE",
"510 422 CURVE SMOOTH",
"470 387 OFFCURVE",
"439 338 OFFCURVE",
"424 282 CURVE"
);
}
);
width = 885;
}
);
leftKerningGroup = a.alt2;
note = aeacute;
rightKerningGroup = ae;
unicode = 01FD;
},
{
glyphname = agrave;
layers = (
{
layerId = "DC6C2CDD-F679-463F-ABCE-FDFA3FC576E2";
name = "Regular Italic";
paths = (
{
closed = 1;
nodes = (
"151 -10 OFFCURVE",
"106 15 OFFCURVE",
"74 55 CURVE SMOOTH",
"42 95 OFFCURVE",
"25 149 OFFCURVE",
"25 208 CURVE SMOOTH",
"25 291 OFFCURVE",
"60 371 OFFCURVE",
"113 431 CURVE SMOOTH",
"166 491 OFFCURVE",
"238 530 OFFCURVE",
"314 530 CURVE SMOOTH",
"398 530 OFFCURVE",
"453 477 OFFCURVE",
"476 412 CURVE",
"500 521 LINE",
"568 521 LINE",
"476 89 LINE SMOOTH",
"475 84 OFFCURVE",
"474 79 OFFCURVE",
"474 76 CURVE SMOOTH",
"474 65 OFFCURVE",
"480 60 OFFCURVE",
"493 60 CURVE",
"480 0 LINE",
"475 -1 OFFCURVE",
"470 -1 OFFCURVE",
"465 -2 CURVE SMOOTH",
"460 -3 OFFCURVE",
"456 -3 OFFCURVE",
"453 -3 CURVE",
"422 0 OFFCURVE",
"407 14 OFFCURVE",
"407 37 CURVE SMOOTH",
"407 42 OFFCURVE",
"408 49 OFFCURVE",
"410 58 CURVE",
"411 67 OFFCURVE",
"414 81 OFFCURVE",
"418 101 CURVE",
"365 33 OFFCURVE",
"283 -10 OFFCURVE",
"210 -10 CURVE SMOOTH"
);
},
{
closed = 1;
nodes = (
"271 50 OFFCURVE",
"312 64 OFFCURVE",
"348 88 CURVE SMOOTH",
"383 111 OFFCURVE",
"414 143 OFFCURVE",
"427 179 CURVE",
"460 340 LINE",
"456 376 OFFCURVE",
"437 408 OFFCURVE",
"412 432 CURVE SMOOTH",
"387 455 OFFCURVE",
"354 470 OFFCURVE",
"319 470 CURVE SMOOTH",
"259 470 OFFCURVE",
"203 437 OFFCURVE",
"163 389 CURVE SMOOTH",
"122 341 OFFCURVE",
"96 278 OFFCURVE",
"96 218 CURVE SMOOTH",
"96 171 OFFCURVE",
"110 130 OFFCURVE",
"135 100 CURVE SMOOTH",
"160 70 OFFCURVE",
"195 50 OFFCURVE",
"238 50 CURVE SMOOTH"
);
},
{
closed = 1;
nodes = (
"281 730 LINE",
"351 730 LINE",
"389 637 LINE",
"340 620 LINE"
);
}
);
width = 598;
}
);
leftKerningGroup = a;
note = agrave;
rightKerningGroup = a;
unicode = 00E0;
},
{
glyphname = amacron;
layers = (
{
layerId = "DC6C2CDD-F679-463F-ABCE-FDFA3FC576E2";
name = "Regular Italic";
paths = (
{
closed = 1;
nodes = (
"151 -10 OFFCURVE",
"106 15 OFFCURVE",
"74 55 CURVE SMOOTH",
"42 95 OFFCURVE",
"25 149 OFFCURVE",
"25 208 CURVE SMOOTH",
"25 291 OFFCURVE",
"60 371 OFFCURVE",
"113 431 CURVE SMOOTH",
"166 491 OFFCURVE",
"238 530 OFFCURVE",
"314 530 CURVE SMOOTH",
"398 530 OFFCURVE",
"453 477 OFFCURVE",
"476 412 CURVE",
"500 521 LINE",
"568 521 LINE",
"476 89 LINE SMOOTH",
"475 84 OFFCURVE",
"474 79 OFFCURVE",
"474 76 CURVE SMOOTH",
"474 65 OFFCURVE",
"480 60 OFFCURVE",
"493 60 CURVE",
"480 0 LINE",
"475 -1 OFFCURVE",
"470 -1 OFFCURVE",
"465 -2 CURVE SMOOTH",
"460 -3 OFFCURVE",
"456 -3 OFFCURVE",
"453 -3 CURVE",
"422 0 OFFCURVE",
"407 14 OFFCURVE",
"407 37 CURVE SMOOTH",
"407 42 OFFCURVE",
"408 49 OFFCURVE",
"410 58 CURVE",
"411 67 OFFCURVE",
"414 81 OFFCURVE",
"418 101 CURVE",
"365 33 OFFCURVE",
"283 -10 OFFCURVE",
"210 -10 CURVE SMOOTH"
);
},
{
closed = 1;
nodes = (
"271 50 OFFCURVE",
"312 64 OFFCURVE",
"348 88 CURVE SMOOTH",
"383 111 OFFCURVE",
"414 143 OFFCURVE",
"427 179 CURVE",
"460 340 LINE",
"456 376 OFFCURVE",
"437 408 OFFCURVE",
"412 432 CURVE SMOOTH",
"387 455 OFFCURVE",
"354 470 OFFCURVE",
"319 470 CURVE SMOOTH",
"259 470 OFFCURVE",
"203 437 OFFCURVE",
"163 389 CURVE SMOOTH",
"122 341 OFFCURVE",
"96 278 OFFCURVE",
"96 218 CURVE SMOOTH",
"96 171 OFFCURVE",
"110 130 OFFCURVE",
"135 100 CURVE SMOOTH",
"160 70 OFFCURVE",
"195 50 OFFCURVE",
"238 50 CURVE SMOOTH"
);
},
{
closed = 1;
nodes = (
"229 662 LINE",
"239 709 LINE",
"514 709 LINE",
"504 662 LINE"
);
}
);
width = 598;
}
);
leftKerningGroup = a;
note = amacron;
rightKerningGroup = a;
unicode = 0101;
},
{
glyphname = ampersand;
layers = (
{
layerId = "DC6C2CDD-F679-463F-ABCE-FDFA3FC576E2";
name = "Regular Italic";
paths = (
{
closed = 1;
nodes = (
"408 104 LINE",
"343 32 OFFCURVE",
"265 -10 OFFCURVE",
"185 -10 CURVE SMOOTH",
"136 -10 OFFCURVE",
"94 8 OFFCURVE",
"65 37 CURVE SMOOTH",
"36 65 OFFCURVE",
"18 107 OFFCURVE",
"18 155 CURVE SMOOTH",
"18 208 OFFCURVE",
"39 254 OFFCURVE",
"72 294 CURVE SMOOTH",
"105 333 OFFCURVE",
"152 367 OFFCURVE",
"207 400 CURVE",
"167 461 OFFCURVE",
"151 501 OFFCURVE",
"151 540 CURVE SMOOTH",
"151 589 OFFCURVE",
"176 634 OFFCURVE",
"214 667 CURVE SMOOTH",
"252 699 OFFCURVE",
"303 719 OFFCURVE",
"358 719 CURVE SMOOTH",
"430 719 OFFCURVE",
"489 679 OFFCURVE",
"517 614 CURVE",
"470 572 LINE",
"449 628 OFFCURVE",
"403 666 OFFCURVE",
"347 666 CURVE SMOOTH",
"312 666 OFFCURVE",
"279 652 OFFCURVE",
"255 631 CURVE SMOOTH",
"231 610 OFFCURVE",
"215 581 OFFCURVE",
"215 550 CURVE SMOOTH",
"215 519 OFFCURVE",
"229 483 OFFCURVE",
"276 415 CURVE SMOOTH",
"420 209 LINE",
"455 268 OFFCURVE",
"479 337 OFFCURVE",
"494 416 CURVE",
"654 416 LINE",
"642 361 LINE",
"543 361 LINE",
"522 285 OFFCURVE",
"492 217 OFFCURVE",
"453 161 CURVE",
"566 0 LINE",
"480 0 LINE"
);
},
{
closed = 1;
nodes = (
"263 46 OFFCURVE",
"325 85 OFFCURVE",
"378 149 CURVE",
"236 356 LINE",
"143 297 OFFCURVE",
"85 240 OFFCURVE",
"85 163 CURVE SMOOTH",
"85 90 OFFCURVE",
"134 46 OFFCURVE",
"199 46 CURVE SMOOTH"
);
}
);
width = 671;
}
);
leftKerningGroup = ampersand;
note = ampersand;
rightKerningGroup = ampersand;
unicode = 0026;
},
{
glyphname = aogonek;
layers = (
{
layerId = "DC6C2CDD-F679-463F-ABCE-FDFA3FC576E2";
name = "Regular Italic";
paths = (
{
closed = 1;
nodes = (
"397 -175 LINE",
"357 -166 OFFCURVE",
"337 -143 OFFCURVE",
"337 -114 CURVE SMOOTH",
"337 -75 OFFCURVE",
"366 -42 OFFCURVE",
"434 1 CURVE",
"416 7 OFFCURVE",
"407 19 OFFCURVE",
"407 37 CURVE SMOOTH",
"407 42 OFFCURVE",
"408 49 OFFCURVE",
"410 58 CURVE",
"411 67 OFFCURVE",
"414 81 OFFCURVE",
"418 101 CURVE",
"365 33 OFFCURVE",
"283 -10 OFFCURVE",
"210 -10 CURVE SMOOTH",
"151 -10 OFFCURVE",
"106 15 OFFCURVE",
"74 55 CURVE SMOOTH",
"42 95 OFFCURVE",
"25 149 OFFCURVE",
"25 208 CURVE SMOOTH",
"25 291 OFFCURVE",
"60 371 OFFCURVE",
"113 431 CURVE SMOOTH",
"166 491 OFFCURVE",
"238 530 OFFCURVE",
"314 530 CURVE SMOOTH",
"398 530 OFFCURVE",
"453 477 OFFCURVE",
"476 412 CURVE",
"500 521 LINE",
"568 521 LINE",
"476 89 LINE SMOOTH",
"475 84 OFFCURVE",
"474 79 OFFCURVE",
"474 76 CURVE SMOOTH",
"474 65 OFFCURVE",
"480 60 OFFCURVE",
"493 60 CURVE",
"480 0 LINE",
"443 -21 OFFCURVE",
"418 -40 OFFCURVE",
"403 -55 CURVE SMOOTH",
"388 -70 OFFCURVE",
"381 -86 OFFCURVE",
"381 -101 CURVE SMOOTH",
"381 -121 OFFCURVE",
"395 -133 OFFCURVE",
"423 -137 CURVE"
);
},
{
closed = 1;
nodes = (
"271 50 OFFCURVE",
"312 64 OFFCURVE",
"348 88 CURVE SMOOTH",
"383 111 OFFCURVE",
"414 143 OFFCURVE",
"427 179 CURVE",
"460 340 LINE",
"456 376 OFFCURVE",
"437 408 OFFCURVE",
"412 432 CURVE SMOOTH",
"387 455 OFFCURVE",
"354 470 OFFCURVE",
"319 470 CURVE SMOOTH",
"259 470 OFFCURVE",
"203 437 OFFCURVE",
"163 389 CURVE SMOOTH",
"122 341 OFFCURVE",
"96 278 OFFCURVE",
"96 218 CURVE SMOOTH",
"96 171 OFFCURVE",
"110 130 OFFCURVE",
"135 100 CURVE SMOOTH",
"160 70 OFFCURVE",
"195 50 OFFCURVE",
"238 50 CURVE SMOOTH"
);
}
);
width = 598;
}
);
leftKerningGroup = a;
note = aogonek;
rightKerningGroup = a;
unicode = 0105;
},
{
glyphname = apostrophe;
layers = (
{
layerId = "DC6C2CDD-F679-463F-ABCE-FDFA3FC576E2";
name = "Regular Italic";
paths = (
{
closed = 1;
nodes = (
"282 637 LINE",
"330 696 LINE",
"336 730 LINE",
"429 730 LINE",
"323 620 LINE"
);
}
);
width = 536;
}
);
leftKerningGroup = apostrophe;
note = apostrophe;
rightKerningGroup = acute;
unicode = 02BC;
},
{
glyphname = aring;
layers = (
{
layerId = "DC6C2CDD-F679-463F-ABCE-FDFA3FC576E2";
name = "Regular Italic";
paths = (
{
closed = 1;
nodes = (
"151 -10 OFFCURVE",
"106 15 OFFCURVE",
"74 55 CURVE SMOOTH",
"42 95 OFFCURVE",
"25 149 OFFCURVE",
"25 208 CURVE SMOOTH",
"25 291 OFFCURVE",
"60 371 OFFCURVE",
"113 431 CURVE SMOOTH",
"166 491 OFFCURVE",
"238 530 OFFCURVE",
"314 530 CURVE SMOOTH",
"398 530 OFFCURVE",
"453 477 OFFCURVE",
"476 412 CURVE",
"500 521 LINE",
"568 521 LINE",
"476 89 LINE SMOOTH",
"475 84 OFFCURVE",
"474 79 OFFCURVE",
"474 76 CURVE SMOOTH",
"474 65 OFFCURVE",
"480 60 OFFCURVE",
"493 60 CURVE",
"480 0 LINE",
"475 -1 OFFCURVE",
"470 -1 OFFCURVE",
"465 -2 CURVE SMOOTH",
"460 -3 OFFCURVE",
"456 -3 OFFCURVE",
"453 -3 CURVE",
"422 0 OFFCURVE",
"407 14 OFFCURVE",
"407 37 CURVE SMOOTH",
"407 42 OFFCURVE",
"408 49 OFFCURVE",
"410 58 CURVE",
"411 67 OFFCURVE",
"414 81 OFFCURVE",
"418 101 CURVE",
"365 33 OFFCURVE",
"283 -10 OFFCURVE",
"210 -10 CURVE SMOOTH"
);
},
{
closed = 1;
nodes = (
"271 50 OFFCURVE",
"312 64 OFFCURVE",
"348 88 CURVE SMOOTH",
"383 111 OFFCURVE",
"414 143 OFFCURVE",
"427 179 CURVE",
"460 340 LINE",
"456 376 OFFCURVE",
"437 408 OFFCURVE",
"412 432 CURVE SMOOTH",
"387 455 OFFCURVE",
"354 470 OFFCURVE",
"319 470 CURVE SMOOTH",
"259 470 OFFCURVE",
"203 437 OFFCURVE",
"163 389 CURVE SMOOTH",
"122 341 OFFCURVE",
"96 278 OFFCURVE",
"96 218 CURVE SMOOTH",
"96 171 OFFCURVE",
"110 130 OFFCURVE",
"135 100 CURVE SMOOTH",
"160 70 OFFCURVE",
"195 50 OFFCURVE",
"238 50 CURVE SMOOTH"
);
},
{
closed = 1;
nodes = (
"283 699 OFFCURVE",
"323 730 OFFCURVE",
"370 730 CURVE SMOOTH",
"406 730 OFFCURVE",
"428 709 OFFCURVE",
"428 677 CURVE SMOOTH",
"428 632 OFFCURVE",
"390 599 OFFCURVE",
"341 599 CURVE SMOOTH",
"305 599 OFFCURVE",
"283 620 OFFCURVE",
"283 652 CURVE SMOOTH"
);
},
{
closed = 1;
nodes = (
"340 703 OFFCURVE",
"316 684 OFFCURVE",
"316 657 CURVE SMOOTH",
"316 640 OFFCURVE",
"328 626 OFFCURVE",
"347 626 CURVE SMOOTH",
"370 626 OFFCURVE",
"396 645 OFFCURVE",
"396 672 CURVE SMOOTH",
"396 691 OFFCURVE",
"383 703 OFFCURVE",
"364 703 CURVE SMOOTH"
);
}
);
width = 598;
}
);
leftKerningGroup = a;
note = aring;
rightKerningGroup = a;
unicode = 00E5;
},
{
glyphname = aringacute;
layers = (
{
layerId = "DC6C2CDD-F679-463F-ABCE-FDFA3FC576E2";
name = "Regular Italic";
paths = (
{
closed = 1;
nodes = (
"151 -10 OFFCURVE",
"106 15 OFFCURVE",
"74 55 CURVE SMOOTH",
"42 95 OFFCURVE",
"25 149 OFFCURVE",
"25 208 CURVE SMOOTH",
"25 291 OFFCURVE",
"60 371 OFFCURVE",
"113 431 CURVE SMOOTH",
"166 491 OFFCURVE",
"238 530 OFFCURVE",
"314 530 CURVE SMOOTH",
"398 530 OFFCURVE",
"453 477 OFFCURVE",
"476 412 CURVE",
"500 521 LINE",
"568 521 LINE",
"476 89 LINE SMOOTH",
"475 84 OFFCURVE",
"474 79 OFFCURVE",
"474 76 CURVE SMOOTH",
"474 65 OFFCURVE",
"480 60 OFFCURVE",
"493 60 CURVE",
"480 0 LINE",
"475 -1 OFFCURVE",
"470 -1 OFFCURVE",
"465 -2 CURVE SMOOTH",
"460 -3 OFFCURVE",
"456 -3 OFFCURVE",
"453 -3 CURVE",
"422 0 OFFCURVE",
"407 14 OFFCURVE",
"407 37 CURVE SMOOTH",
"407 42 OFFCURVE",
"408 49 OFFCURVE",
"410 58 CURVE",
"411 67 OFFCURVE",
"414 81 OFFCURVE",
"418 101 CURVE",
"365 33 OFFCURVE",
"283 -10 OFFCURVE",
"210 -10 CURVE SMOOTH"
);
},
{
closed = 1;
nodes = (
"271 50 OFFCURVE",
"312 64 OFFCURVE",
"348 88 CURVE SMOOTH",
"383 111 OFFCURVE",
"414 143 OFFCURVE",
"427 179 CURVE",
"460 340 LINE",
"456 376 OFFCURVE",
"437 408 OFFCURVE",
"412 432 CURVE SMOOTH",
"387 455 OFFCURVE",
"354 470 OFFCURVE",
"319 470 CURVE SMOOTH",
"259 470 OFFCURVE",
"203 437 OFFCURVE",
"163 389 CURVE SMOOTH",
"122 341 OFFCURVE",
"96 278 OFFCURVE",
"96 218 CURVE SMOOTH",
"96 171 OFFCURVE",
"110 130 OFFCURVE",
"135 100 CURVE SMOOTH",
"160 70 OFFCURVE",
"195 50 OFFCURVE",
"238 50 CURVE SMOOTH"
);
},
{
closed = 1;
nodes = (
"377 770 LINE",
"335 787 LINE",
"411 880 LINE",
"482 880 LINE"
);
},
{
closed = 1;
nodes = (
"283 699 OFFCURVE",
"323 730 OFFCURVE",
"370 730 CURVE SMOOTH",
"406 730 OFFCURVE",
"428 709 OFFCURVE",
"428 677 CURVE SMOOTH",
"428 632 OFFCURVE",
"390 599 OFFCURVE",
"341 599 CURVE SMOOTH",
"305 599 OFFCURVE",
"283 620 OFFCURVE",
"283 652 CURVE SMOOTH"
);
},
{
closed = 1;
nodes = (
"340 703 OFFCURVE",
"316 684 OFFCURVE",
"316 657 CURVE SMOOTH",
"316 640 OFFCURVE",
"328 626 OFFCURVE",
"347 626 CURVE SMOOTH",
"370 626 OFFCURVE",
"396 645 OFFCURVE",
"396 672 CURVE SMOOTH",
"396 691 OFFCURVE",
"383 703 OFFCURVE",
"364 703 CURVE SMOOTH"
);
}
);
width = 598;
}
);
leftKerningGroup = a;
note = aringacute;
rightKerningGroup = a;
unicode = 01FB;
},
{
glyphname = asciicircum;
layers = (
{
layerId = "DC6C2CDD-F679-463F-ABCE-FDFA3FC576E2";
name = "Regular Italic";
paths = (
{
closed = 1;
nodes = (
"52 303 LINE",
"250 710 LINE",
"308 710 LINE",
"505 303 LINE",
"445 303 LINE",
"279 646 LINE",
"110 303 LINE"
);
}
);
width = 541;
}
);
note = asciicircum;
rightKerningGroup = acute;
unicode = 005E;
},
{
glyphname = asciitilde;
layers = (
{
layerId = "DC6C2CDD-F679-463F-ABCE-FDFA3FC576E2";
name = "Regular Italic";
paths = (
{
closed = 1;
nodes = (
"52 244 OFFCURVE",
"55 252 OFFCURVE",
"61 263 CURVE",
"72 285 OFFCURVE",
"92 310 OFFCURVE",
"121 330 CURVE",
"136 339 OFFCURVE",
"153 344 OFFCURVE",
"172 344 CURVE SMOOTH",
"201 344 OFFCURVE",
"225 330 OFFCURVE",
"248 315 CURVE SMOOTH",
"271 300 OFFCURVE",
"292 286 OFFCURVE",
"319 286 CURVE SMOOTH",
"344 286 OFFCURVE",
"363 298 OFFCURVE",
"376 310 CURVE",
"382 316 OFFCURVE",
"387 322 OFFCURVE",
"390 328 CURVE",
"393 333 OFFCURVE",
"394 337 OFFCURVE",
"394 338 CURVE",
"436 338 LINE",
"436 337 OFFCURVE",
"433 331 OFFCURVE",
"428 321 CURVE SMOOTH",
"417 300 OFFCURVE",
"396 275 OFFCURVE",
"365 256 CURVE SMOOTH",
"349 246 OFFCURVE",
"331 241 OFFCURVE",
"310 241 CURVE SMOOTH",
"278 241 OFFCURVE",
"254 255 OFFCURVE",
"231 270 CURVE SMOOTH",
"208 285 OFFCURVE",
"188 299 OFFCURVE",
"164 299 CURVE SMOOTH",
"141 299 OFFCURVE",
"124 285 OFFCURVE",
"112 271 CURVE SMOOTH",
"106 264 OFFCURVE",
"102 257 OFFCURVE",
"99 251 CURVE SMOOTH",
"96 245 OFFCURVE",
"94 242 OFFCURVE",
"94 241 CURVE",
"51 241 LINE"
);
}
);
width = 492;
}
);
note = asciitilde;
rightKerningGroup = acute;
unicode = 007E;
},
{
glyphname = asterisk;
layers = (
{
layerId = "DC6C2CDD-F679-463F-ABCE-FDFA3FC576E2";
name = "Regular Italic";
paths = (
{
closed = 1;
nodes = (
"135 546 LINE",
"189 608 LINE",
"129 630 LINE",
"147 666 LINE",
"208 640 LINE",
"221 713 LINE",
"262 713 LINE",
"244 640 LINE",
"317 666 LINE",
"319 630 LINE",
"249 608 LINE",
"278 546 LINE",
"242 524 LINE",
"216 589 LINE",
"161 524 LINE"
);
}
);
width = 313;
}
);
leftKerningGroup = asterisk;
note = asterisk;
rightKerningGroup = asterisk;
unicode = 002A;
},
{
glyphname = at;
layers = (
{
layerId = "DC6C2CDD-F679-463F-ABCE-FDFA3FC576E2";
name = "Regular Italic";
paths = (
{
closed = 1;
nodes = (
"603 21 OFFCURVE",
"640 63 OFFCURVE",
"666 119 CURVE SMOOTH",
"692 175 OFFCURVE",
"706 245 OFFCURVE",
"706 301 CURVE SMOOTH",
"706 372 OFFCURVE",
"683 439 OFFCURVE",
"640 488 CURVE SMOOTH",
"596 537 OFFCURVE",
"532 569 OFFCURVE",
"451 569 CURVE SMOOTH",
"352 569 OFFCURVE",
"255 524 OFFCURVE",
"182 450 CURVE SMOOTH",
"109 376 OFFCURVE",
"60 274 OFFCURVE",
"60 162 CURVE SMOOTH",
"60 83 OFFCURVE",
"84 15 OFFCURVE",
"127 -33 CURVE SMOOTH",
"170 -82 OFFCURVE",
"233 -112 OFFCURVE",
"309 -112 CURVE SMOOTH",
"362 -112 OFFCURVE",
"409 -98 OFFCURVE",
"461 -74 CURVE",
"466 -106 LINE",
"410 -133 OFFCURVE",
"352 -146 OFFCURVE",
"299 -146 CURVE SMOOTH",
"219 -146 OFFCURVE",
"150 -114 OFFCURVE",
"102 -60 CURVE SMOOTH",
"53 -6 OFFCURVE",
"25 70 OFFCURVE",
"25 159 CURVE SMOOTH",
"25 243 OFFCURVE",
"51 321 OFFCURVE",
"92 387 CURVE SMOOTH",
"132 453 OFFCURVE",
"190 507 OFFCURVE",
"255 544 CURVE SMOOTH",
"319 581 OFFCURVE",
"390 603 OFFCURVE",
"459 603 CURVE SMOOTH",
"547 603 OFFCURVE",
"617 570 OFFCURVE",
"666 516 CURVE SMOOTH",
"714 462 OFFCURVE",
"741 388 OFFCURVE",
"741 311 CURVE SMOOTH",
"741 254 OFFCURVE",
"727 172 OFFCURVE",
"696 105 CURVE SMOOTH",
"664 37 OFFCURVE",
"616 -16 OFFCURVE",
"548 -16 CURVE SMOOTH",
"509 -16 OFFCURVE",
"485 1 OFFCURVE",
"485 48 CURVE SMOOTH",
"485 52 OFFCURVE",
"485 56 OFFCURVE",
"485 61 CURVE SMOOTH",
"485 66 OFFCURVE",
"486 71 OFFCURVE",
"487 76 CURVE",
"443 33 OFFCURVE",
"381 3 OFFCURVE",
"321 3 CURVE SMOOTH",
"274 3 OFFCURVE",
"236 23 OFFCURVE",
"209 56 CURVE SMOOTH",
"182 88 OFFCURVE",
"168 132 OFFCURVE",
"168 183 CURVE SMOOTH",
"168 254 OFFCURVE",
"197 323 OFFCURVE",
"242 373 CURVE SMOOTH",
"286 423 OFFCURVE",
"346 455 OFFCURVE",
"409 455 CURVE SMOOTH",
"477 455 OFFCURVE",
"523 418 OFFCURVE",
"543 362 CURVE",
"561 450 LINE",
"606 450 LINE",
"531 99 LINE SMOOTH",
"527 80 OFFCURVE",
"526 68 OFFCURVE",
"526 60 CURVE SMOOTH",
"526 34 OFFCURVE",
"537 21 OFFCURVE",
"560 21 CURVE SMOOTH"
);
},
{
closed = 1;
nodes = (
"373 44 OFFCURVE",
"407 57 OFFCURVE",
"436 78 CURVE SMOOTH",
"465 98 OFFCURVE",
"488 125 OFFCURVE",
"500 156 CURVE",
"529 310 LINE",
"509 381 OFFCURVE",
"463 413 OFFCURVE",
"407 413 CURVE SMOOTH",
"360 413 OFFCURVE",
"313 388 OFFCURVE",
"277 349 CURVE SMOOTH",
"241 309 OFFCURVE",
"216 255 OFFCURVE",
"216 195 CURVE SMOOTH",
"216 151 OFFCURVE",
"229 114 OFFCURVE",
"252 87 CURVE SMOOTH",
"275 59 OFFCURVE",
"305 44 OFFCURVE",
"341 44 CURVE SMOOTH"
);
}
);
width = 803;
}
);
leftKerningGroup = at;
note = at;
rightKerningGroup = at;
unicode = 0040;
},
{
glyphname = atilde;
layers = (
{
layerId = "DC6C2CDD-F679-463F-ABCE-FDFA3FC576E2";
name = "Regular Italic";
paths = (
{
closed = 1;
nodes = (
"151 -10 OFFCURVE",
"106 15 OFFCURVE",
"74 55 CURVE SMOOTH",
"42 95 OFFCURVE",
"25 149 OFFCURVE",
"25 208 CURVE SMOOTH",
"25 291 OFFCURVE",
"60 371 OFFCURVE",
"113 431 CURVE SMOOTH",
"166 491 OFFCURVE",
"238 530 OFFCURVE",
"314 530 CURVE SMOOTH",
"398 530 OFFCURVE",
"453 477 OFFCURVE",
"476 412 CURVE",
"500 521 LINE",
"568 521 LINE",
"476 89 LINE SMOOTH",
"475 84 OFFCURVE",
"474 79 OFFCURVE",
"474 76 CURVE SMOOTH",
"474 65 OFFCURVE",
"480 60 OFFCURVE",
"493 60 CURVE",
"480 0 LINE",
"475 -1 OFFCURVE",
"470 -1 OFFCURVE",
"465 -2 CURVE SMOOTH",
"460 -3 OFFCURVE",
"456 -3 OFFCURVE",
"453 -3 CURVE",
"422 0 OFFCURVE",
"407 14 OFFCURVE",
"407 37 CURVE SMOOTH",
"407 42 OFFCURVE",
"408 49 OFFCURVE",
"410 58 CURVE",
"411 67 OFFCURVE",
"414 81 OFFCURVE",
"418 101 CURVE",
"365 33 OFFCURVE",
"283 -10 OFFCURVE",
"210 -10 CURVE SMOOTH"
);
},
{
closed = 1;
nodes = (
"271 50 OFFCURVE",
"312 64 OFFCURVE",
"348 88 CURVE SMOOTH",
"383 111 OFFCURVE",
"414 143 OFFCURVE",
"427 179 CURVE",
"460 340 LINE",
"456 376 OFFCURVE",
"437 408 OFFCURVE",
"412 432 CURVE SMOOTH",
"387 455 OFFCURVE",
"354 470 OFFCURVE",
"319 470 CURVE SMOOTH",
"259 470 OFFCURVE",
"203 437 OFFCURVE",
"163 389 CURVE SMOOTH",
"122 341 OFFCURVE",
"96 278 OFFCURVE",
"96 218 CURVE SMOOTH",
"96 171 OFFCURVE",
"110 130 OFFCURVE",
"135 100 CURVE SMOOTH",
"160 70 OFFCURVE",
"195 50 OFFCURVE",
"238 50 CURVE SMOOTH"
);
},
{
closed = 1;
nodes = (
"378 638 OFFCURVE",
"360 648 OFFCURVE",
"344 658 CURVE SMOOTH",
"328 668 OFFCURVE",
"313 678 OFFCURVE",
"293 678 CURVE SMOOTH",
"273 678 OFFCURVE",
"258 667 OFFCURVE",
"250 656 CURVE",
"245 650 OFFCURVE",
"242 645 OFFCURVE",
"240 640 CURVE",
"237 635 OFFCURVE",
"236 631 OFFCURVE",
"236 630 CURVE",
"194 630 LINE",
"195 637 OFFCURVE",
"205 661 OFFCURVE",
"222 682 CURVE SMOOTH",
"239 703 OFFCURVE",
"266 723 OFFCURVE",
"302 723 CURVE SMOOTH",
"329 723 OFFCURVE",
"345 713 OFFCURVE",
"361 702 CURVE SMOOTH",
"377 691 OFFCURVE",
"391 681 OFFCURVE",
"415 681 CURVE SMOOTH",
"439 681 OFFCURVE",
"456 692 OFFCURVE",
"465 704 CURVE",
"470 710 OFFCURVE",
"473 716 OFFCURVE",
"476 721 CURVE",
"478 726 OFFCURVE",
"479 729 OFFCURVE",
"479 730 CURVE",
"521 730 LINE",
"520 727 OFFCURVE",
"518 720 OFFCURVE",
"513 710 CURVE",
"504 690 OFFCURVE",
"485 667 OFFCURVE",
"457 651 CURVE",
"443 642 OFFCURVE",
"426 638 OFFCURVE",
"406 638 CURVE SMOOTH"
);
}
);
width = 598;
}
);
leftKerningGroup = a;
note = atilde;
rightKerningGroup = a;
unicode = 00E3;
},
{
glyphname = b;
layers = (
{
layerId = "DC6C2CDD-F679-463F-ABCE-FDFA3FC576E2";
name = "Regular Italic";
paths = (
{
closed = 1;
nodes = (
"170 -10 OFFCURVE",
"114 37 OFFCURVE",
"91 101 CURVE",
"69 0 LINE",
"9 0 LINE",
"164 730 LINE",
"232 730 LINE",
"164 412 LINE",
"224 483 OFFCURVE",
"295 530 OFFCURVE",
"375 530 CURVE SMOOTH",
"434 530 OFFCURVE",
"478 504 OFFCURVE",
"507 465 CURVE SMOOTH",
"536 425 OFFCURVE",
"551 372 OFFCURVE",
"551 317 CURVE SMOOTH",
"551 230 OFFCURVE",
"514 148 OFFCURVE",
"459 88 CURVE SMOOTH",
"403 28 OFFCURVE",
"329 -10 OFFCURVE",
"254 -10 CURVE SMOOTH"
);
},
{
closed = 1;
nodes = (
"309 50 OFFCURVE",
"366 81 OFFCURVE",
"409 129 CURVE SMOOTH",
"452 176 OFFCURVE",
"479 240 OFFCURVE",
"479 305 CURVE SMOOTH",
"479 348 OFFCURVE",
"467 389 OFFCURVE",
"444 420 CURVE SMOOTH",
"421 451 OFFCURVE",
"387 470 OFFCURVE",
"343 470 CURVE SMOOTH",
"306 470 OFFCURVE",
"269 455 OFFCURVE",
"237 432 CURVE SMOOTH",
"204 409 OFFCURVE",
"174 376 OFFCURVE",
"149 343 CURVE",
"113 170 LINE",
"114 135 OFFCURVE",
"132 105 OFFCURVE",
"157 84 CURVE SMOOTH",
"181 63 OFFCURVE",
"216 50 OFFCURVE",
"252 50 CURVE SMOOTH"
);
}
);
width = 592;
}
);
leftKerningGroup = b;
note = b;
rightKerningGroup = b;
unicode = 0062;
},
{
glyphname = backslash;
layers = (
{
layerId = "DC6C2CDD-F679-463F-ABCE-FDFA3FC576E2";
name = "Regular Italic";
paths = (
{
closed = 1;
nodes = (
"184 710 LINE",
"446 0 LINE",
"370 0 LINE",
"107 710 LINE"
);
}
);
width = 534;
}
);
leftKerningGroup = backslash;
note = backslash;
rightKerningGroup = backslash;
unicode = 005C;
},
{
glyphname = bar;
layers = (
{
layerId = "DC6C2CDD-F679-463F-ABCE-FDFA3FC576E2";
name = "Regular Italic";
paths = (
{
closed = 1;
nodes = (
"119 -130 LINE",
"119 775 LINE",
"179 775 LINE",
"179 -130 LINE"
);
}
);
width = 288;
}
);
leftKerningGroup = bar;
note = bar;
rightKerningGroup = bar;
unicode = 007C;
},
{
glyphname = braceleft;
layers = (
{
layerId = "DC6C2CDD-F679-463F-ABCE-FDFA3FC576E2";
name = "Regular Italic";
paths = (
{
closed = 1;
nodes = (
"233 683 LINE",
"177 422 LINE SMOOTH",
"174 406 OFFCURVE",
"162 379 OFFCURVE",
"138 360 CURVE",
"149 348 OFFCURVE",
"152 331 OFFCURVE",
"152 315 CURVE SMOOTH",
"152 312 OFFCURVE",
"152 309 OFFCURVE",
"152 306 CURVE SMOOTH",
"152 303 OFFCURVE",
"152 301 OFFCURVE",
"151 298 CURVE",
"93 26 LINE",
"145 26 LINE",
"133 -31 LINE",
"40 -31 LINE SMOOTH",
"32 -31 OFFCURVE",
"24 -27 OFFCURVE",
"24 -12 CURVE SMOOTH",
"24 -7 OFFCURVE",
"24 -4 OFFCURVE",
"25 -1 CURVE",
"85 280 LINE",
"86 283 OFFCURVE",
"86 289 OFFCURVE",
"86 296 CURVE SMOOTH",
"86 316 OFFCURVE",
"78 332 OFFCURVE",
"59 335 CURVE",
"70 387 LINE",
"83 387 OFFCURVE",
"95 396 OFFCURVE",
"104 407 CURVE",
"112 418 OFFCURVE",
"118 432 OFFCURVE",
"119 440 CURVE",
"176 710 LINE SMOOTH",
"179 723 OFFCURVE",
"183 731 OFFCURVE",
"190 735 CURVE",
"196 738 OFFCURVE",
"201 740 OFFCURVE",
"204 740 CURVE SMOOTH",
"297 740 LINE",
"285 683 LINE"
);
}
);
width = 251;
}
);
note = braceleft;
rightKerningGroup = acute;
unicode = 007B;
},
{
glyphname = braceright;
layers = (
{
layerId = "DC6C2CDD-F679-463F-ABCE-FDFA3FC576E2";
name = "Regular Italic";
paths = (
{
closed = 1;
nodes = (
"129 683 LINE",
"140 740 LINE",
"233 740 LINE SMOOTH",
"238 740 OFFCURVE",
"250 736 OFFCURVE",
"250 719 CURVE SMOOTH",
"250 715 OFFCURVE",
"250 712 OFFCURVE",
"249 710 CURVE",
"191 440 LINE SMOOTH",
"190 435 OFFCURVE",
"189 430 OFFCURVE",
"189 427 CURVE SMOOTH",
"189 408 OFFCURVE",
"196 387 OFFCURVE",
"217 387 CURVE",
"206 335 LINE",
"181 332 OFFCURVE",
"162 307 OFFCURVE",
"157 280 CURVE SMOOTH",
"98 -1 LINE SMOOTH",
"93 -24 OFFCURVE",
"78 -31 OFFCURVE",
"69 -31 CURVE SMOOTH",
"-24 -31 LINE",
"-12 26 LINE",
"41 26 LINE",
"99 298 LINE SMOOTH",
"102 313 OFFCURVE",
"114 341 OFFCURVE",
"137 360 CURVE",
"126 373 OFFCURVE",
"123 389 OFFCURVE",
"123 404 CURVE SMOOTH",
"123 409 OFFCURVE",
"124 415 OFFCURVE",
"125 422 CURVE",
"181 683 LINE"
);
}
);
width = 250;
}
);
note = braceright;
rightKerningGroup = acute;
unicode = 007D;
},
{
glyphname = bracketleft;
layers = (
{
layerId = "DC6C2CDD-F679-463F-ABCE-FDFA3FC576E2";
name = "Regular Italic";
paths = (
{
closed = 1;
nodes = (
"14 -40 LINE",
"180 740 LINE",
"296 740 LINE",
"284 683 LINE",
"231 683 LINE",
"89 17 LINE",
"143 17 LINE",
"131 -40 LINE"
);
}
);
width = 251;
}
);
note = bracketleft;
rightKerningGroup = acute;
unicode = 005B;
},
{
glyphname = bracketright;
layers = (
{
layerId = "DC6C2CDD-F679-463F-ABCE-FDFA3FC576E2";
name = "Regular Italic";
paths = (
{
closed = 1;
nodes = (
"-25 -40 LINE",
"-13 17 LINE",
"40 17 LINE",
"182 683 LINE",
"129 683 LINE",
"141 740 LINE",
"257 740 LINE",
"92 -40 LINE"
);
}
);
width = 250;
}
);
note = bracketright;
rightKerningGroup = acute;
unicode = 005D;
},
{
glyphname = brokenbar;
layers = (
{
layerId = "DC6C2CDD-F679-463F-ABCE-FDFA3FC576E2";
name = "Regular Italic";
paths = (
{
closed = 1;
nodes = (
"176 277 LINE",
"176 -130 LINE",
"116 -130 LINE",
"116 277 LINE"
);
},
{
closed = 1;
nodes = (
"176 775 LINE",
"176 368 LINE",
"116 368 LINE",
"116 775 LINE"
);
}
);
width = 282;
}
);
leftKerningGroup = brokenbar;
note = brokenbar;
rightKerningGroup = brokenbar;
unicode = 00A6;
},
{
glyphname = bullet;
layers = (
{
layerId = "DC6C2CDD-F679-463F-ABCE-FDFA3FC576E2";
name = "Regular Italic";
paths = (
{
closed = 1;
nodes = (
"266 333 OFFCURVE",
"253 307 OFFCURVE",
"233 288 CURVE SMOOTH",
"213 268 OFFCURVE",
"186 256 OFFCURVE",
"159 256 CURVE SMOOTH",
"119 256 OFFCURVE",
"91 287 OFFCURVE",
"91 330 CURVE SMOOTH",
"91 358 OFFCURVE",
"104 384 OFFCURVE",
"124 404 CURVE SMOOTH",
"144 423 OFFCURVE",
"170 435 OFFCURVE",
"197 435 CURVE SMOOTH",
"240 435 OFFCURVE",
"266 402 OFFCURVE",
"266 361 CURVE SMOOTH"
);
}
);
width = 341;
}
);
note = bullet;
rightKerningGroup = acute;
unicode = 2022;
},
{
glyphname = c;
layers = (
{
layerId = "DC6C2CDD-F679-463F-ABCE-FDFA3FC576E2";
name = "Regular Italic";
paths = (
{
closed = 1;
nodes = (
"162 -10 OFFCURVE",
"112 15 OFFCURVE",
"78 55 CURVE SMOOTH",
"44 95 OFFCURVE",
"25 150 OFFCURVE",
"25 210 CURVE SMOOTH",
"25 294 OFFCURVE",
"61 374 OFFCURVE",
"118 434 CURVE SMOOTH",
"174 493 OFFCURVE",
"252 530 OFFCURVE",
"337 530 CURVE SMOOTH",
"432 530 OFFCURVE",
"494 482 OFFCURVE",
"513 406 CURVE",
"443 385 LINE",
"427 438 OFFCURVE",
"382 470 OFFCURVE",
"322 470 CURVE SMOOTH",
"263 470 OFFCURVE",
"208 441 OFFCURVE",
"165 396 CURVE SMOOTH",
"122 351 OFFCURVE",
"95 287 OFFCURVE",
"95 219 CURVE SMOOTH",
"95 171 OFFCURVE",
"109 130 OFFCURVE",
"133 99 CURVE SMOOTH",
"157 68 OFFCURVE",
"192 50 OFFCURVE",
"233 50 CURVE SMOOTH",
"265 50 OFFCURVE",
"299 60 OFFCURVE",
"328 77 CURVE SMOOTH",
"357 93 OFFCURVE",
"382 115 OFFCURVE",
"394 139 CURVE",
"457 119 LINE",
"436 82 OFFCURVE",
"401 50 OFFCURVE",
"360 27 CURVE SMOOTH",
"319 3 OFFCURVE",
"271 -10 OFFCURVE",
"223 -10 CURVE SMOOTH"
);
}
);
width = 526;
}
);
leftKerningGroup = c;
note = c;
rightKerningGroup = c;
unicode = 0063;
},
{
glyphname = c_t;
layers = (
{
layerId = "DC6C2CDD-F679-463F-ABCE-FDFA3FC576E2";
name = "Regular Italic";
paths = (
{
closed = 1;
nodes = (
"158 -10 OFFCURVE",
"110 16 OFFCURVE",
"76 57 CURVE SMOOTH",
"42 97 OFFCURVE",
"24 153 OFFCURVE",
"24 210 CURVE SMOOTH",
"24 289 OFFCURVE",
"58 369 OFFCURVE",
"114 429 CURVE SMOOTH",
"169 489 OFFCURVE",
"246 530 OFFCURVE",
"333 530 CURVE SMOOTH",
"396 530 OFFCURVE",
"432 514 OFFCURVE",
"463 486 CURVE",
"455 510 OFFCURVE",
"445 544 OFFCURVE",
"445 579 CURVE SMOOTH",
"445 624 OFFCURVE",
"462 666 OFFCURVE",
"493 697 CURVE SMOOTH",
"524 728 OFFCURVE",
"568 747 OFFCURVE",
"624 747 CURVE SMOOTH",
"672 747 OFFCURVE",
"703 737 OFFCURVE",
"723 720 CURVE SMOOTH",
"742 703 OFFCURVE",
"748 678 OFFCURVE",
"748 647 CURVE SMOOTH",
"748 612 OFFCURVE",
"740 569 OFFCURVE",
"729 521 CURVE",
"841 521 LINE",
"829 467 LINE",
"717 467 LINE",
"642 113 LINE",
"641 111 OFFCURVE",
"641 109 OFFCURVE",
"641 107 CURVE SMOOTH",
"641 104 OFFCURVE",
"641 102 OFFCURVE",
"641 101 CURVE SMOOTH",
"641 70 OFFCURVE",
"662 57 OFFCURVE",
"689 57 CURVE SMOOTH",
"721 57 OFFCURVE",
"752 72 OFFCURVE",
"769 80 CURVE",
"774 25 LINE",
"746 13 OFFCURVE",
"703 -6 OFFCURVE",
"654 -6 CURVE SMOOTH",
"603 -6 OFFCURVE",
"567 18 OFFCURVE",
"567 69 CURVE SMOOTH",
"567 76 OFFCURVE",
"568 85 OFFCURVE",
"570 94 CURVE SMOOTH",
"650 467 LINE",
"581 467 LINE",
"592 521 LINE",
"661 521 LINE",
"670 564 OFFCURVE",
"679 603 OFFCURVE",
"679 635 CURVE SMOOTH",
"679 680 OFFCURVE",
"660 710 OFFCURVE",
"599 710 CURVE SMOOTH",
"559 710 OFFCURVE",
"530 693 OFFCURVE",
"510 669 CURVE SMOOTH",
"490 644 OFFCURVE",
"480 610 OFFCURVE",
"480 575 CURVE SMOOTH",
"480 544 OFFCURVE",
"487 510 OFFCURVE",
"495 479 CURVE",
"498 463 OFFCURVE",
"502 449 OFFCURVE",
"506 436 CURVE",
"509 423 OFFCURVE",
"512 413 OFFCURVE",
"513 406 CURVE",
"443 385 LINE",
"424 445 OFFCURVE",
"379 470 OFFCURVE",
"318 470 CURVE SMOOTH",
"255 470 OFFCURVE",
"200 436 OFFCURVE",
"160 388 CURVE SMOOTH",
"119 340 OFFCURVE",
"94 278 OFFCURVE",
"94 219 CURVE SMOOTH",
"94 172 OFFCURVE",
"108 131 OFFCURVE",
"133 100 CURVE SMOOTH",
"157 69 OFFCURVE",
"191 50 OFFCURVE",
"234 50 CURVE SMOOTH",
"261 50 OFFCURVE",
"294 58 OFFCURVE",
"324 74 CURVE SMOOTH",
"354 89 OFFCURVE",
"380 111 OFFCURVE",
"395 139 CURVE",
"457 119 LINE",
"433 78 OFFCURVE",
"397 46 OFFCURVE",
"355 24 CURVE SMOOTH",
"313 2 OFFCURVE",
"266 -10 OFFCURVE",
"222 -10 CURVE SMOOTH"
);
}
);
width = 840;
}
);
leftKerningGroup = c;
note = c_t;
rightKerningGroup = c_t;
},
{
glyphname = cacute;
layers = (
{
layerId = "DC6C2CDD-F679-463F-ABCE-FDFA3FC576E2";
name = "Regular Italic";
paths = (
{
closed = 1;
nodes = (
"338 620 LINE",
"296 637 LINE",
"372 730 LINE",
"443 730 LINE"
);
},
{
closed = 1;
nodes = (
"162 -10 OFFCURVE",
"112 15 OFFCURVE",
"78 55 CURVE SMOOTH",
"44 95 OFFCURVE",
"25 150 OFFCURVE",
"25 210 CURVE SMOOTH",
"25 294 OFFCURVE",
"61 374 OFFCURVE",
"118 434 CURVE SMOOTH",
"174 493 OFFCURVE",
"252 530 OFFCURVE",
"337 530 CURVE SMOOTH",
"432 530 OFFCURVE",
"494 482 OFFCURVE",
"513 406 CURVE",
"443 385 LINE",
"427 438 OFFCURVE",
"382 470 OFFCURVE",
"322 470 CURVE SMOOTH",
"263 470 OFFCURVE",
"208 441 OFFCURVE",
"165 396 CURVE SMOOTH",
"122 351 OFFCURVE",
"95 287 OFFCURVE",
"95 219 CURVE SMOOTH",
"95 171 OFFCURVE",
"109 130 OFFCURVE",
"133 99 CURVE SMOOTH",
"157 68 OFFCURVE",
"192 50 OFFCURVE",
"233 50 CURVE SMOOTH",
"265 50 OFFCURVE",
"299 60 OFFCURVE",
"328 77 CURVE SMOOTH",
"357 93 OFFCURVE",
"382 115 OFFCURVE",
"394 139 CURVE",
"457 119 LINE",
"436 82 OFFCURVE",
"401 50 OFFCURVE",
"360 27 CURVE SMOOTH",
"319 3 OFFCURVE",
"271 -10 OFFCURVE",
"223 -10 CURVE SMOOTH"
);
}
);
width = 526;
}
);
leftKerningGroup = c;
note = cacute;
rightKerningGroup = c;
unicode = 0107;
},
{
glyphname = ccaron;
layers = (
{
layerId = "DC6C2CDD-F679-463F-ABCE-FDFA3FC576E2";
name = "Regular Italic";
paths = (
{
closed = 1;
nodes = (
"251 710 LINE",
"294 730 LINE",
"361 667 LINE",
"455 730 LINE",
"489 710 LINE",
"377 624 LINE",
"327 624 LINE"
);
},
{
closed = 1;
nodes = (
"162 -10 OFFCURVE",
"112 15 OFFCURVE",
"78 55 CURVE SMOOTH",
"44 95 OFFCURVE",
"25 150 OFFCURVE",
"25 210 CURVE SMOOTH",
"25 294 OFFCURVE",
"61 374 OFFCURVE",
"118 434 CURVE SMOOTH",
"174 493 OFFCURVE",
"252 530 OFFCURVE",
"337 530 CURVE SMOOTH",
"432 530 OFFCURVE",
"494 482 OFFCURVE",
"513 406 CURVE",
"443 385 LINE",
"427 438 OFFCURVE",
"382 470 OFFCURVE",
"322 470 CURVE SMOOTH",
"263 470 OFFCURVE",
"208 441 OFFCURVE",
"165 396 CURVE SMOOTH",
"122 351 OFFCURVE",
"95 287 OFFCURVE",
"95 219 CURVE SMOOTH",
"95 171 OFFCURVE",
"109 130 OFFCURVE",
"133 99 CURVE SMOOTH",
"157 68 OFFCURVE",
"192 50 OFFCURVE",
"233 50 CURVE SMOOTH",
"265 50 OFFCURVE",
"299 60 OFFCURVE",
"328 77 CURVE SMOOTH",
"357 93 OFFCURVE",
"382 115 OFFCURVE",
"394 139 CURVE",
"457 119 LINE",
"436 82 OFFCURVE",
"401 50 OFFCURVE",
"360 27 CURVE SMOOTH",
"319 3 OFFCURVE",
"271 -10 OFFCURVE",
"223 -10 CURVE SMOOTH"
);
}
);
width = 526;
}
);
leftKerningGroup = c;
note = ccaron;
rightKerningGroup = c;
unicode = 010D;
},
{
glyphname = ccedilla;
layers = (
{
layerId = "DC6C2CDD-F679-463F-ABCE-FDFA3FC576E2";
name = "Regular Italic";
paths = (
{
closed = 1;
nodes = (
"119 -126 LINE",
"134 -135 OFFCURVE",
"165 -144 OFFCURVE",
"198 -144 CURVE SMOOTH",
"241 -144 OFFCURVE",
"262 -130 OFFCURVE",
"262 -101 CURVE SMOOTH",
"262 -80 OFFCURVE",
"245 -73 OFFCURVE",
"221 -73 CURVE SMOOTH",
"194 -73 OFFCURVE",
"160 -80 OFFCURVE",
"141 -87 CURVE",
"197 -8 LINE",
"142 -3 OFFCURVE",
"101 24 OFFCURVE",
"71 63 CURVE SMOOTH",
"41 102 OFFCURVE",
"25 154 OFFCURVE",
"25 210 CURVE SMOOTH",
"25 294 OFFCURVE",
"61 374 OFFCURVE",
"118 434 CURVE SMOOTH",
"174 493 OFFCURVE",
"252 530 OFFCURVE",
"337 530 CURVE SMOOTH",
"432 530 OFFCURVE",
"494 482 OFFCURVE",
"513 406 CURVE",
"443 385 LINE",
"427 438 OFFCURVE",
"382 470 OFFCURVE",
"322 470 CURVE SMOOTH",
"263 470 OFFCURVE",
"208 441 OFFCURVE",
"165 396 CURVE SMOOTH",
"122 351 OFFCURVE",
"95 287 OFFCURVE",
"95 219 CURVE SMOOTH",
"95 171 OFFCURVE",
"109 130 OFFCURVE",
"133 99 CURVE SMOOTH",
"157 68 OFFCURVE",
"192 50 OFFCURVE",
"233 50 CURVE SMOOTH",
"265 50 OFFCURVE",
"299 60 OFFCURVE",
"328 77 CURVE SMOOTH",
"357 93 OFFCURVE",
"382 115 OFFCURVE",
"394 139 CURVE",
"457 119 LINE",
"436 83 OFFCURVE",
"404 52 OFFCURVE",
"365 30 CURVE SMOOTH",
"326 8 OFFCURVE",
"282 -8 OFFCURVE",
"235 -9 CURVE",
"202 -51 LINE",
"214 -46 OFFCURVE",
"228 -45 OFFCURVE",
"239 -45 CURVE SMOOTH",
"278 -45 OFFCURVE",
"300 -62 OFFCURVE",
"300 -94 CURVE SMOOTH",
"300 -145 OFFCURVE",
"260 -176 OFFCURVE",
"185 -176 CURVE SMOOTH",
"149 -176 OFFCURVE",
"118 -168 OFFCURVE",
"95 -157 CURVE"
);
}
);
width = 526;
}
);
leftKerningGroup = c;
note = ccedilla;
rightKerningGroup = c;
unicode = 00E7;
},
{
glyphname = ccircumflex;
layers = (
{
layerId = "DC6C2CDD-F679-463F-ABCE-FDFA3FC576E2";
name = "Regular Italic";
paths = (
{
closed = 1;
nodes = (
"243 645 LINE",
"356 730 LINE",
"406 730 LINE",
"481 645 LINE",
"439 624 LINE",
"371 687 LINE",
"277 624 LINE"
);
},
{
closed = 1;
nodes = (
"162 -10 OFFCURVE",
"112 15 OFFCURVE",
"78 55 CURVE SMOOTH",
"44 95 OFFCURVE",
"25 150 OFFCURVE",
"25 210 CURVE SMOOTH",
"25 294 OFFCURVE",
"61 374 OFFCURVE",
"118 434 CURVE SMOOTH",
"174 493 OFFCURVE",
"252 530 OFFCURVE",
"337 530 CURVE SMOOTH",
"432 530 OFFCURVE",
"494 482 OFFCURVE",
"513 406 CURVE",
"443 385 LINE",
"427 438 OFFCURVE",
"382 470 OFFCURVE",
"322 470 CURVE SMOOTH",
"263 470 OFFCURVE",
"208 441 OFFCURVE",
"165 396 CURVE SMOOTH",
"122 351 OFFCURVE",
"95 287 OFFCURVE",
"95 219 CURVE SMOOTH",
"95 171 OFFCURVE",
"109 130 OFFCURVE",
"133 99 CURVE SMOOTH",
"157 68 OFFCURVE",
"192 50 OFFCURVE",
"233 50 CURVE SMOOTH",
"265 50 OFFCURVE",
"299 60 OFFCURVE",
"328 77 CURVE SMOOTH",
"357 93 OFFCURVE",
"382 115 OFFCURVE",
"394 139 CURVE",
"457 119 LINE",
"436 82 OFFCURVE",
"401 50 OFFCURVE",
"360 27 CURVE SMOOTH",
"319 3 OFFCURVE",
"271 -10 OFFCURVE",
"223 -10 CURVE SMOOTH"
);
}
);
width = 526;
}
);
leftKerningGroup = c;
note = ccircumflex;
rightKerningGroup = c;
unicode = 0109;
},
{
glyphname = cdotaccent;
layers = (
{
layerId = "DC6C2CDD-F679-463F-ABCE-FDFA3FC576E2";
name = "Regular Italic";
paths = (
{
closed = 1;
nodes = (
"162 -10 OFFCURVE",
"112 15 OFFCURVE",
"78 55 CURVE SMOOTH",
"44 95 OFFCURVE",
"25 150 OFFCURVE",
"25 210 CURVE SMOOTH",
"25 294 OFFCURVE",
"61 374 OFFCURVE",
"118 434 CURVE SMOOTH",
"174 493 OFFCURVE",
"252 530 OFFCURVE",
"337 530 CURVE SMOOTH",
"432 530 OFFCURVE",
"494 482 OFFCURVE",
"513 406 CURVE",
"443 385 LINE",
"427 438 OFFCURVE",
"382 470 OFFCURVE",
"322 470 CURVE SMOOTH",
"263 470 OFFCURVE",
"208 441 OFFCURVE",
"165 396 CURVE SMOOTH",
"122 351 OFFCURVE",
"95 287 OFFCURVE",
"95 219 CURVE SMOOTH",
"95 171 OFFCURVE",
"109 130 OFFCURVE",
"133 99 CURVE SMOOTH",
"157 68 OFFCURVE",
"192 50 OFFCURVE",
"233 50 CURVE SMOOTH",
"265 50 OFFCURVE",
"299 60 OFFCURVE",
"328 77 CURVE SMOOTH",
"357 93 OFFCURVE",
"382 115 OFFCURVE",
"394 139 CURVE",
"457 119 LINE",
"436 82 OFFCURVE",
"401 50 OFFCURVE",
"360 27 CURVE SMOOTH",
"319 3 OFFCURVE",
"271 -10 OFFCURVE",
"223 -10 CURVE SMOOTH"
);
},
{
closed = 1;
nodes = (
"327 633 LINE",
"348 730 LINE",
"410 730 LINE",
"389 633 LINE"
);
}
);
width = 526;
}
);
leftKerningGroup = c;
note = cdotaccent;
rightKerningGroup = c;
unicode = 010B;
},
{
glyphname = cent;
layers = (
{
layerId = "DC6C2CDD-F679-463F-ABCE-FDFA3FC576E2";
name = "Regular Italic";
paths = (
{
closed = 1;
nodes = (
"176 -120 LINE",
"200 -9 LINE",
"145 -5 OFFCURVE",
"102 24 OFFCURVE",
"74 65 CURVE SMOOTH",
"45 105 OFFCURVE",
"29 158 OFFCURVE",
"29 211 CURVE SMOOTH",
"29 286 OFFCURVE",
"59 361 OFFCURVE",
"111 420 CURVE SMOOTH",
"162 479 OFFCURVE",
"233 521 OFFCURVE",
"314 529 CURVE",
"339 645 LINE",
"375 645 LINE",
"350 529 LINE",
"443 526 OFFCURVE",
"497 481 OFFCURVE",
"518 406 CURVE",
"448 385 LINE",
"431 440 OFFCURVE",
"390 465 OFFCURVE",
"337 468 CURVE",
"249 51 LINE",
"273 52 OFFCURVE",
"305 62 OFFCURVE",
"334 77 CURVE SMOOTH",
"362 92 OFFCURVE",
"387 114 OFFCURVE",
"399 139 CURVE",
"462 119 LINE",
"438 76 OFFCURVE",
"399 43 OFFCURVE",
"357 22 CURVE SMOOTH",
"315 1 OFFCURVE",
"269 -10 OFFCURVE",
"236 -10 CURVE",
"212 -120 LINE"
);
},
{
closed = 1;
nodes = (
"99 178 OFFCURVE",
"110 141 OFFCURVE",
"130 111 CURVE SMOOTH",
"149 81 OFFCURVE",
"177 59 OFFCURVE",
"213 54 CURVE",
"300 466 LINE",
"243 461 OFFCURVE",
"192 426 OFFCURVE",
"156 379 CURVE SMOOTH",
"120 331 OFFCURVE",
"99 271 OFFCURVE",
"99 218 CURVE SMOOTH"
);
}
);
width = 540;
}
);
note = cent;
rightKerningGroup = acute;
unicode = 00A2;
},
{
glyphname = colon;
layers = (
{
layerId = "DC6C2CDD-F679-463F-ABCE-FDFA3FC576E2";
name = "Regular Italic";
paths = (
{
closed = 1;
nodes = (
"88 420 LINE",
"109 518 LINE",
"167 518 LINE",
"146 420 LINE"
);
},
{
closed = 1;
nodes = (
"-1 0 LINE",
"21 98 LINE",
"78 98 LINE",
"57 0 LINE"
);
}
);
width = 185;
}
);
leftKerningGroup = colon;
note = colon;
rightKerningGroup = colon;
unicode = 003A;
},
{
glyphname = comma;
layers = (
{
layerId = "DC6C2CDD-F679-463F-ABCE-FDFA3FC576E2";
name = "Regular Italic";
paths = (
{
closed = 1;
nodes = (
"4 -81 LINE",
"39 3 LINE",
"16 3 LINE",
"36 98 LINE",
"101 98 LINE",
"81 3 LINE",
"39 -81 LINE"
);
}
);
width = 222;
}
);
leftKerningGroup = comma;
note = comma;
rightKerningGroup = comma;
unicode = 002C;
},
